M48
;DRILL file {KiCad (5.0.2)-1} date 9/4/2019 12:41:48 PM
;FORMAT={-:-/ absolute / inch / decimal}
FMAT,2
INCH,TZ
T1C0.0157
%
G90
G05
T1
X5.8389Y-2.5662
X5.8418Y-0.9113
X5.8418Y-1.0295
X5.8418Y-1.1034
X5.8418Y-1.2187
X5.8418Y-1.2955
X5.8418Y-1.4108
X5.8418Y-1.4876
X5.8418Y-1.6048
X5.8418Y-1.6797
X5.8418Y-1.795
X5.8418Y-1.8718
X5.8418Y-1.989
X5.8418Y-2.1791
X5.8418Y-2.256
X5.8418Y-2.6402
X5.8418Y-2.0639
X5.8418Y-2.3741
X5.8418Y-2.4481
X5.8418Y-2.7574
X5.8995Y-1.0266
X5.8995Y-1.1034
X5.8995Y-1.4108
X5.8995Y-1.4876
X5.8995Y-1.795
X5.8995Y-1.8718
X5.8995Y-2.1791
X5.8995Y-2.256
X5.8995Y-2.5633
X5.8995Y-2.6402
X5.9187Y-0.9113
X5.9187Y-1.2187
X5.9187Y-1.2955
X5.9187Y-1.6029
X5.9187Y-1.6797
X5.9187Y-1.987
X5.9187Y-2.0639
X5.9187Y-2.3712
X5.9187Y-2.4481
X5.9187Y-2.7554
X5.9379Y-1.065
X5.9379Y-1.4492
X5.9379Y-1.8334
X5.9379Y-2.2176
X5.9379Y-2.6018
X5.9763Y-0.9497
X5.9763Y-1.1802
X5.9763Y-1.3339
X5.9763Y-1.5644
X5.9763Y-1.7181
X5.9763Y-1.9486
X5.9763Y-2.1023
X5.9763Y-2.3328
X5.9763Y-2.4865
X5.9763Y-2.717
X6.0339Y-0.9689
X6.0339Y-1.161
X6.0339Y-1.3531
X6.0339Y-1.5452
X6.0339Y-1.7373
X6.0339Y-1.9294
X6.0339Y-2.1215
X6.0339Y-2.3136
X6.0339Y-2.5057
X6.0339Y-2.6978
X6.13Y-0.9689
X6.13Y-1.161
X6.13Y-1.3531
X6.13Y-1.5452
X6.13Y-1.7373
X6.13Y-1.9294
X6.13Y-2.1215
X6.13Y-2.3136
X6.13Y-2.5057
X6.13Y-2.6978
X6.226Y-0.9689
X6.226Y-1.161
X6.226Y-1.3531
X6.226Y-1.5452
X6.226Y-1.7373
X6.226Y-1.9294
X6.226Y-2.1215
X6.226Y-2.3136
X6.226Y-2.5057
X6.226Y-2.6978
T0
M30
