M48
;DRILL file {KiCad (5.0.2)-1} date 9/3/2019 12:36:02 PM
;FORMAT={-:-/ absolute / inch / decimal}
FMAT,2
INCH,TZ
T1C0.0157
%
G90
G05
T1
X5.8389Y-2.5662
X5.8418Y-0.9113
X5.8418Y-1.0295
X5.8418Y-1.1034
X5.8418Y-1.2187
X5.8418Y-1.2955
X5.8418Y-1.4108
X5.8418Y-1.4876
X5.8418Y-1.6048
X5.8418Y-1.6797
X5.8418Y-1.795
X5.8418Y-1.8718
X5.8418Y-1.989
X5.8418Y-2.1791
X5.8418Y-2.256
X5.8418Y-2.6402
X5.8418Y-2.0639
X5.8418Y-2.3741
X5.8418Y-2.4481
X5.8418Y-2.7574
X5.8995Y-0.9689
X5.8995Y-1.0842
X5.8995Y-1.3531
X5.8995Y-1.4684
X5.8995Y-1.7373
X5.8995Y-1.8526
X5.8995Y-2.1215
X5.8995Y-2.2368
X5.8995Y-2.5057
X5.8995Y-2.621
X5.9187Y-1.2187
X5.9187Y-1.6029
X5.9187Y-1.987
X5.9187Y-2.3712
X5.9187Y-2.7554
X5.9379Y-1.1226
X5.9379Y-1.5068
X5.9379Y-1.891
X5.9379Y-2.2752
X5.9379Y-2.6594
X5.9571Y-1.0266
X5.9571Y-1.4108
X5.9571Y-1.795
X5.9571Y-2.1791
X5.9571Y-2.5633
X5.9763Y-1.2379
X5.9763Y-1.6221
X5.9763Y-2.0063
X5.9763Y-2.3905
X5.9763Y-2.7746
X6.0339Y-1.065
X6.0339Y-1.2571
X6.0339Y-1.4492
X6.0339Y-1.6413
X6.0339Y-1.8334
X6.0339Y-2.0255
X6.0339Y-2.2176
X6.0339Y-2.4097
X6.0339Y-2.6018
X6.0339Y-2.7939
X6.13Y-1.065
X6.13Y-1.2571
X6.13Y-1.4492
X6.13Y-1.6413
X6.13Y-1.8334
X6.13Y-2.0255
X6.13Y-2.2176
X6.13Y-2.4097
X6.13Y-2.6018
X6.13Y-2.7939
X6.226Y-1.065
X6.226Y-1.2571
X6.226Y-1.4492
X6.226Y-1.6413
X6.226Y-1.8334
X6.226Y-2.0255
X6.226Y-2.2176
X6.226Y-2.4097
X6.226Y-2.6018
X6.226Y-2.7939
T0
M30
