G04 #@! TF.GenerationSoftware,KiCad,Pcbnew,(5.0.2)-1*
G04 #@! TF.CreationDate,2019-09-04T12:41:45-04:00*
G04 #@! TF.ProjectId,MMCX_2DD-100P_Odd,4d4d4358-5f32-4444-942d-313030505f4f,rev?*
G04 #@! TF.SameCoordinates,Original*
G04 #@! TF.FileFunction,Legend,Top*
G04 #@! TF.FilePolarity,Positive*
%FSLAX46Y46*%
G04 Gerber Fmt 4.6, Leading zero omitted, Abs format (unit mm)*
G04 Created by KiCad (PCBNEW (5.0.2)-1) date 9/4/2019 12:41:45 PM*
%MOMM*%
%LPD*%
G01*
G04 APERTURE LIST*
%ADD10C,0.300000*%
%ADD11C,0.120000*%
G04 APERTURE END LIST*
D10*
X148810382Y-69202896D02*
X149096097Y-69202896D01*
X149238954Y-69131467D01*
X149310382Y-69060039D01*
X149453239Y-68845753D01*
X149524668Y-68560039D01*
X149524668Y-67988610D01*
X149453239Y-67845753D01*
X149381811Y-67774325D01*
X149238954Y-67702896D01*
X148953239Y-67702896D01*
X148810382Y-67774325D01*
X148738954Y-67845753D01*
X148667525Y-67988610D01*
X148667525Y-68345753D01*
X148738954Y-68488610D01*
X148810382Y-68560039D01*
X148953239Y-68631467D01*
X149238954Y-68631467D01*
X149381811Y-68560039D01*
X149453239Y-68488610D01*
X149524668Y-68345753D01*
X150167525Y-69202896D02*
X150167525Y-67702896D01*
X150738954Y-67702896D01*
X150881811Y-67774325D01*
X150953239Y-67845753D01*
X151024668Y-67988610D01*
X151024668Y-68202896D01*
X150953239Y-68345753D01*
X150881811Y-68417182D01*
X150738954Y-68488610D01*
X150167525Y-68488610D01*
X148774668Y-64323636D02*
X149060382Y-64323636D01*
X149203239Y-64252207D01*
X149274668Y-64180779D01*
X149417525Y-63966493D01*
X149488954Y-63680779D01*
X149488954Y-63109350D01*
X149417525Y-62966493D01*
X149346097Y-62895065D01*
X149203239Y-62823636D01*
X148917525Y-62823636D01*
X148774668Y-62895065D01*
X148703239Y-62966493D01*
X148631811Y-63109350D01*
X148631811Y-63466493D01*
X148703239Y-63609350D01*
X148774668Y-63680779D01*
X148917525Y-63752207D01*
X149203239Y-63752207D01*
X149346097Y-63680779D01*
X149417525Y-63609350D01*
X149488954Y-63466493D01*
X150131811Y-64323636D02*
X150131811Y-62823636D01*
X150988954Y-64323636D01*
X150988954Y-62823636D01*
X148596097Y-57944376D02*
X149596097Y-57944376D01*
X148953239Y-59444376D01*
X150167525Y-59444376D02*
X150167525Y-57944376D01*
X150738954Y-57944376D01*
X150881811Y-58015805D01*
X150953239Y-58087233D01*
X151024668Y-58230090D01*
X151024668Y-58444376D01*
X150953239Y-58587233D01*
X150881811Y-58658662D01*
X150738954Y-58730090D01*
X150167525Y-58730090D01*
X148560382Y-53065116D02*
X149560382Y-53065116D01*
X148917525Y-54565116D01*
X150131811Y-54565116D02*
X150131811Y-53065116D01*
X150988954Y-54565116D01*
X150988954Y-53065116D01*
X149453239Y-48185856D02*
X148738954Y-48185856D01*
X148667525Y-48900142D01*
X148738954Y-48828713D01*
X148881811Y-48757285D01*
X149238954Y-48757285D01*
X149381811Y-48828713D01*
X149453239Y-48900142D01*
X149524668Y-49042999D01*
X149524668Y-49400142D01*
X149453239Y-49542999D01*
X149381811Y-49614427D01*
X149238954Y-49685856D01*
X148881811Y-49685856D01*
X148738954Y-49614427D01*
X148667525Y-49542999D01*
X150167525Y-49685856D02*
X150167525Y-48185856D01*
X150738954Y-48185856D01*
X150881811Y-48257285D01*
X150953239Y-48328713D01*
X151024668Y-48471570D01*
X151024668Y-48685856D01*
X150953239Y-48828713D01*
X150881811Y-48900142D01*
X150738954Y-48971570D01*
X150167525Y-48971570D01*
X149417525Y-43306596D02*
X148703239Y-43306596D01*
X148631811Y-44020882D01*
X148703239Y-43949453D01*
X148846097Y-43878025D01*
X149203239Y-43878025D01*
X149346097Y-43949453D01*
X149417525Y-44020882D01*
X149488954Y-44163739D01*
X149488954Y-44520882D01*
X149417525Y-44663739D01*
X149346097Y-44735167D01*
X149203239Y-44806596D01*
X148846097Y-44806596D01*
X148703239Y-44735167D01*
X148631811Y-44663739D01*
X150131811Y-44806596D02*
X150131811Y-43306596D01*
X150988954Y-44806596D01*
X150988954Y-43306596D01*
X148596097Y-38427336D02*
X149524668Y-38427336D01*
X149024668Y-38998765D01*
X149238954Y-38998765D01*
X149381811Y-39070193D01*
X149453239Y-39141622D01*
X149524668Y-39284479D01*
X149524668Y-39641622D01*
X149453239Y-39784479D01*
X149381811Y-39855907D01*
X149238954Y-39927336D01*
X148810382Y-39927336D01*
X148667525Y-39855907D01*
X148596097Y-39784479D01*
X150167525Y-39927336D02*
X150167525Y-38427336D01*
X150738954Y-38427336D01*
X150881811Y-38498765D01*
X150953239Y-38570193D01*
X151024668Y-38713050D01*
X151024668Y-38927336D01*
X150953239Y-39070193D01*
X150881811Y-39141622D01*
X150738954Y-39213050D01*
X150167525Y-39213050D01*
X148560382Y-33548076D02*
X149488954Y-33548076D01*
X148988954Y-34119505D01*
X149203239Y-34119505D01*
X149346097Y-34190933D01*
X149417525Y-34262362D01*
X149488954Y-34405219D01*
X149488954Y-34762362D01*
X149417525Y-34905219D01*
X149346097Y-34976647D01*
X149203239Y-35048076D01*
X148774668Y-35048076D01*
X148631811Y-34976647D01*
X148560382Y-34905219D01*
X150131811Y-35048076D02*
X150131811Y-33548076D01*
X150988954Y-35048076D01*
X150988954Y-33548076D01*
X149524668Y-30168816D02*
X148667525Y-30168816D01*
X149096097Y-30168816D02*
X149096097Y-28668816D01*
X148953239Y-28883102D01*
X148810382Y-29025959D01*
X148667525Y-29097387D01*
X150167525Y-30168816D02*
X150167525Y-28668816D01*
X150738954Y-28668816D01*
X150881811Y-28740245D01*
X150953239Y-28811673D01*
X151024668Y-28954530D01*
X151024668Y-29168816D01*
X150953239Y-29311673D01*
X150881811Y-29383102D01*
X150738954Y-29454530D01*
X150167525Y-29454530D01*
X149488954Y-25289556D02*
X148631811Y-25289556D01*
X149060382Y-25289556D02*
X149060382Y-23789556D01*
X148917525Y-24003842D01*
X148774668Y-24146699D01*
X148631811Y-24218127D01*
X150131811Y-25289556D02*
X150131811Y-23789556D01*
X150988954Y-25289556D01*
X150988954Y-23789556D01*
D11*
G04 #@! TO.C,J3*
X140300985Y-22050985D02*
X148000985Y-22050985D01*
X148000985Y-27170985D02*
X148000985Y-22050985D01*
X140300985Y-27170985D02*
X148000985Y-27170985D01*
X148200985Y-24060985D02*
X148200985Y-25160985D01*
G04 #@! TO.C,J6*
X148200985Y-33819505D02*
X148200985Y-34919505D01*
X140300985Y-36929505D02*
X148000985Y-36929505D01*
X148000985Y-36929505D02*
X148000985Y-31809505D01*
X140300985Y-31809505D02*
X148000985Y-31809505D01*
G04 #@! TO.C,J9*
X148200985Y-43578025D02*
X148200985Y-44678025D01*
X140300985Y-46688025D02*
X148000985Y-46688025D01*
X148000985Y-46688025D02*
X148000985Y-41568025D01*
X140300985Y-41568025D02*
X148000985Y-41568025D01*
G04 #@! TO.C,J12*
X148200985Y-53336545D02*
X148200985Y-54436545D01*
X140300985Y-56446545D02*
X148000985Y-56446545D01*
X148000985Y-56446545D02*
X148000985Y-51326545D01*
X140300985Y-51326545D02*
X148000985Y-51326545D01*
G04 #@! TO.C,J15*
X148200985Y-63095065D02*
X148200985Y-64195065D01*
X140300985Y-66205065D02*
X148000985Y-66205065D01*
X148000985Y-66205065D02*
X148000985Y-61085065D01*
X140300985Y-61085065D02*
X148000985Y-61085065D01*
G04 #@! TD*
M02*
