G04 #@! TF.GenerationSoftware,KiCad,Pcbnew,(5.0.2)-1*
G04 #@! TF.CreationDate,2019-09-04T12:36:58-04:00*
G04 #@! TF.ProjectId,MMCX_2DD-100P_Both,4d4d4358-5f32-4444-942d-313030505f42,rev?*
G04 #@! TF.SameCoordinates,Original*
G04 #@! TF.FileFunction,Soldermask,Top*
G04 #@! TF.FilePolarity,Negative*
%FSLAX46Y46*%
G04 Gerber Fmt 4.6, Leading zero omitted, Abs format (unit mm)*
G04 Created by KiCad (PCBNEW (5.0.2)-1) date 9/4/2019 12:36:58 PM*
%MOMM*%
%LPD*%
G01*
G04 APERTURE LIST*
%ADD10C,0.100000*%
G04 APERTURE END LIST*
D10*
G36*
X81933789Y-144944833D02*
X81943401Y-144947749D01*
X81952259Y-144952484D01*
X81960027Y-144958859D01*
X81966402Y-144966627D01*
X81971137Y-144975485D01*
X81974053Y-144985097D01*
X81975642Y-145001236D01*
X81975642Y-146514256D01*
X81974053Y-146530395D01*
X81972137Y-146536710D01*
X81967356Y-146560744D01*
X81967356Y-146585248D01*
X81972136Y-146609281D01*
X81974790Y-146615688D01*
X81974790Y-147974237D01*
X81969156Y-147992810D01*
X81966754Y-148017196D01*
X81969156Y-148041582D01*
X81972137Y-148053482D01*
X81974053Y-148059797D01*
X81975642Y-148075936D01*
X81975642Y-149588956D01*
X81974053Y-149605095D01*
X81971137Y-149614707D01*
X81966402Y-149623565D01*
X81960027Y-149631333D01*
X81952259Y-149637708D01*
X81943401Y-149642443D01*
X81933789Y-149645359D01*
X81917650Y-149646948D01*
X74429930Y-149646948D01*
X74413791Y-149645359D01*
X74404179Y-149642443D01*
X74395321Y-149637708D01*
X74387553Y-149631333D01*
X74381178Y-149623565D01*
X74376443Y-149614707D01*
X74373527Y-149605095D01*
X74371938Y-149588956D01*
X74371938Y-149051236D01*
X74373527Y-149035097D01*
X74376443Y-149025485D01*
X74381178Y-149016627D01*
X74387553Y-149008859D01*
X74395321Y-149002484D01*
X74404179Y-148997749D01*
X74413791Y-148994833D01*
X74429930Y-148993244D01*
X78746938Y-148993244D01*
X78771324Y-148990842D01*
X78794773Y-148983729D01*
X78816384Y-148972178D01*
X78835326Y-148956632D01*
X78850872Y-148937690D01*
X78862423Y-148916079D01*
X78869536Y-148892630D01*
X78871938Y-148868244D01*
X78871938Y-148075936D01*
X78873527Y-148059797D01*
X78876443Y-148050185D01*
X78881178Y-148041327D01*
X78887553Y-148033559D01*
X78895321Y-148027184D01*
X78904179Y-148022449D01*
X78913791Y-148019533D01*
X78929930Y-148017944D01*
X79052590Y-148017944D01*
X79076976Y-148015542D01*
X79100425Y-148008429D01*
X79122036Y-147996878D01*
X79140978Y-147981332D01*
X79156524Y-147962390D01*
X79168075Y-147940779D01*
X79175188Y-147917330D01*
X79177590Y-147892944D01*
X79177590Y-146697248D01*
X79175188Y-146672862D01*
X79168075Y-146649413D01*
X79156524Y-146627802D01*
X79140978Y-146608860D01*
X79122036Y-146593314D01*
X79100425Y-146581763D01*
X79076976Y-146574650D01*
X79052590Y-146572248D01*
X78929930Y-146572248D01*
X78913791Y-146570659D01*
X78904179Y-146567743D01*
X78895321Y-146563008D01*
X78887553Y-146556633D01*
X78881178Y-146548865D01*
X78876443Y-146540007D01*
X78873527Y-146530395D01*
X78871938Y-146514256D01*
X78871938Y-145721948D01*
X78869536Y-145697562D01*
X78862423Y-145674113D01*
X78850872Y-145652502D01*
X78835326Y-145633560D01*
X78816384Y-145618014D01*
X78794773Y-145606463D01*
X78771324Y-145599350D01*
X78746938Y-145596948D01*
X74429930Y-145596948D01*
X74413791Y-145595359D01*
X74404179Y-145592443D01*
X74395321Y-145587708D01*
X74387553Y-145581333D01*
X74381178Y-145573565D01*
X74376443Y-145564707D01*
X74373527Y-145555095D01*
X74371938Y-145538956D01*
X74371938Y-145001236D01*
X74373527Y-144985097D01*
X74376443Y-144975485D01*
X74381178Y-144966627D01*
X74387553Y-144958859D01*
X74395321Y-144952484D01*
X74404179Y-144947749D01*
X74413791Y-144944833D01*
X74429930Y-144943244D01*
X81917650Y-144943244D01*
X81933789Y-144944833D01*
X81933789Y-144944833D01*
G37*
G36*
X93661440Y-146324275D02*
X87082440Y-146324275D01*
X87082440Y-145338355D01*
X93661440Y-145338355D01*
X93661440Y-146324275D01*
X93661440Y-146324275D01*
G37*
G36*
X81933789Y-135186313D02*
X81943401Y-135189229D01*
X81952259Y-135193964D01*
X81960027Y-135200339D01*
X81966402Y-135208107D01*
X81971137Y-135216965D01*
X81974053Y-135226577D01*
X81975642Y-135242716D01*
X81975642Y-136755736D01*
X81974053Y-136771875D01*
X81972137Y-136778190D01*
X81967356Y-136802224D01*
X81967356Y-136826728D01*
X81972136Y-136850761D01*
X81974790Y-136857168D01*
X81974790Y-138215717D01*
X81969156Y-138234290D01*
X81966754Y-138258676D01*
X81969156Y-138283062D01*
X81972137Y-138294962D01*
X81974053Y-138301277D01*
X81975642Y-138317416D01*
X81975642Y-139830436D01*
X81974053Y-139846575D01*
X81971137Y-139856187D01*
X81966402Y-139865045D01*
X81960027Y-139872813D01*
X81952259Y-139879188D01*
X81943401Y-139883923D01*
X81933789Y-139886839D01*
X81917650Y-139888428D01*
X74429930Y-139888428D01*
X74413791Y-139886839D01*
X74404179Y-139883923D01*
X74395321Y-139879188D01*
X74387553Y-139872813D01*
X74381178Y-139865045D01*
X74376443Y-139856187D01*
X74373527Y-139846575D01*
X74371938Y-139830436D01*
X74371938Y-139292716D01*
X74373527Y-139276577D01*
X74376443Y-139266965D01*
X74381178Y-139258107D01*
X74387553Y-139250339D01*
X74395321Y-139243964D01*
X74404179Y-139239229D01*
X74413791Y-139236313D01*
X74429930Y-139234724D01*
X78746938Y-139234724D01*
X78771324Y-139232322D01*
X78794773Y-139225209D01*
X78816384Y-139213658D01*
X78835326Y-139198112D01*
X78850872Y-139179170D01*
X78862423Y-139157559D01*
X78869536Y-139134110D01*
X78871938Y-139109724D01*
X78871938Y-138317416D01*
X78873527Y-138301277D01*
X78876443Y-138291665D01*
X78881178Y-138282807D01*
X78887553Y-138275039D01*
X78895321Y-138268664D01*
X78904179Y-138263929D01*
X78913791Y-138261013D01*
X78929930Y-138259424D01*
X79052590Y-138259424D01*
X79076976Y-138257022D01*
X79100425Y-138249909D01*
X79122036Y-138238358D01*
X79140978Y-138222812D01*
X79156524Y-138203870D01*
X79168075Y-138182259D01*
X79175188Y-138158810D01*
X79177590Y-138134424D01*
X79177590Y-136938728D01*
X79175188Y-136914342D01*
X79168075Y-136890893D01*
X79156524Y-136869282D01*
X79140978Y-136850340D01*
X79122036Y-136834794D01*
X79100425Y-136823243D01*
X79076976Y-136816130D01*
X79052590Y-136813728D01*
X78929930Y-136813728D01*
X78913791Y-136812139D01*
X78904179Y-136809223D01*
X78895321Y-136804488D01*
X78887553Y-136798113D01*
X78881178Y-136790345D01*
X78876443Y-136781487D01*
X78873527Y-136771875D01*
X78871938Y-136755736D01*
X78871938Y-135963428D01*
X78869536Y-135939042D01*
X78862423Y-135915593D01*
X78850872Y-135893982D01*
X78835326Y-135875040D01*
X78816384Y-135859494D01*
X78794773Y-135847943D01*
X78771324Y-135840830D01*
X78746938Y-135838428D01*
X74429930Y-135838428D01*
X74413791Y-135836839D01*
X74404179Y-135833923D01*
X74395321Y-135829188D01*
X74387553Y-135822813D01*
X74381178Y-135815045D01*
X74376443Y-135806187D01*
X74373527Y-135796575D01*
X74371938Y-135780436D01*
X74371938Y-135242716D01*
X74373527Y-135226577D01*
X74376443Y-135216965D01*
X74381178Y-135208107D01*
X74387553Y-135200339D01*
X74395321Y-135193964D01*
X74404179Y-135189229D01*
X74413791Y-135186313D01*
X74429930Y-135184724D01*
X81917650Y-135184724D01*
X81933789Y-135186313D01*
X81933789Y-135186313D01*
G37*
G36*
X93661440Y-136565758D02*
X87082440Y-136565758D01*
X87082440Y-135579838D01*
X93661440Y-135579838D01*
X93661440Y-136565758D01*
X93661440Y-136565758D01*
G37*
G36*
X81933789Y-125427793D02*
X81943401Y-125430709D01*
X81952259Y-125435444D01*
X81960027Y-125441819D01*
X81966402Y-125449587D01*
X81971137Y-125458445D01*
X81974053Y-125468057D01*
X81975642Y-125484196D01*
X81975642Y-126997216D01*
X81974053Y-127013355D01*
X81972137Y-127019670D01*
X81967356Y-127043704D01*
X81967356Y-127068208D01*
X81972136Y-127092241D01*
X81974790Y-127098648D01*
X81974790Y-128457197D01*
X81969156Y-128475770D01*
X81966754Y-128500156D01*
X81969156Y-128524542D01*
X81972137Y-128536442D01*
X81974053Y-128542757D01*
X81975642Y-128558896D01*
X81975642Y-130071916D01*
X81974053Y-130088055D01*
X81971137Y-130097667D01*
X81966402Y-130106525D01*
X81960027Y-130114293D01*
X81952259Y-130120668D01*
X81943401Y-130125403D01*
X81933789Y-130128319D01*
X81917650Y-130129908D01*
X74429930Y-130129908D01*
X74413791Y-130128319D01*
X74404179Y-130125403D01*
X74395321Y-130120668D01*
X74387553Y-130114293D01*
X74381178Y-130106525D01*
X74376443Y-130097667D01*
X74373527Y-130088055D01*
X74371938Y-130071916D01*
X74371938Y-129534196D01*
X74373527Y-129518057D01*
X74376443Y-129508445D01*
X74381178Y-129499587D01*
X74387553Y-129491819D01*
X74395321Y-129485444D01*
X74404179Y-129480709D01*
X74413791Y-129477793D01*
X74429930Y-129476204D01*
X78746938Y-129476204D01*
X78771324Y-129473802D01*
X78794773Y-129466689D01*
X78816384Y-129455138D01*
X78835326Y-129439592D01*
X78850872Y-129420650D01*
X78862423Y-129399039D01*
X78869536Y-129375590D01*
X78871938Y-129351204D01*
X78871938Y-128558896D01*
X78873527Y-128542757D01*
X78876443Y-128533145D01*
X78881178Y-128524287D01*
X78887553Y-128516519D01*
X78895321Y-128510144D01*
X78904179Y-128505409D01*
X78913791Y-128502493D01*
X78929930Y-128500904D01*
X79052590Y-128500904D01*
X79076976Y-128498502D01*
X79100425Y-128491389D01*
X79122036Y-128479838D01*
X79140978Y-128464292D01*
X79156524Y-128445350D01*
X79168075Y-128423739D01*
X79175188Y-128400290D01*
X79177590Y-128375904D01*
X79177590Y-127180208D01*
X79175188Y-127155822D01*
X79168075Y-127132373D01*
X79156524Y-127110762D01*
X79140978Y-127091820D01*
X79122036Y-127076274D01*
X79100425Y-127064723D01*
X79076976Y-127057610D01*
X79052590Y-127055208D01*
X78929930Y-127055208D01*
X78913791Y-127053619D01*
X78904179Y-127050703D01*
X78895321Y-127045968D01*
X78887553Y-127039593D01*
X78881178Y-127031825D01*
X78876443Y-127022967D01*
X78873527Y-127013355D01*
X78871938Y-126997216D01*
X78871938Y-126204908D01*
X78869536Y-126180522D01*
X78862423Y-126157073D01*
X78850872Y-126135462D01*
X78835326Y-126116520D01*
X78816384Y-126100974D01*
X78794773Y-126089423D01*
X78771324Y-126082310D01*
X78746938Y-126079908D01*
X74429930Y-126079908D01*
X74413791Y-126078319D01*
X74404179Y-126075403D01*
X74395321Y-126070668D01*
X74387553Y-126064293D01*
X74381178Y-126056525D01*
X74376443Y-126047667D01*
X74373527Y-126038055D01*
X74371938Y-126021916D01*
X74371938Y-125484196D01*
X74373527Y-125468057D01*
X74376443Y-125458445D01*
X74381178Y-125449587D01*
X74387553Y-125441819D01*
X74395321Y-125435444D01*
X74404179Y-125430709D01*
X74413791Y-125427793D01*
X74429930Y-125426204D01*
X81917650Y-125426204D01*
X81933789Y-125427793D01*
X81933789Y-125427793D01*
G37*
G36*
X93661440Y-126807235D02*
X87082440Y-126807235D01*
X87082440Y-125821315D01*
X93661440Y-125821315D01*
X93661440Y-126807235D01*
X93661440Y-126807235D01*
G37*
G36*
X81933789Y-115669273D02*
X81943401Y-115672189D01*
X81952259Y-115676924D01*
X81960027Y-115683299D01*
X81966402Y-115691067D01*
X81971137Y-115699925D01*
X81974053Y-115709537D01*
X81975642Y-115725676D01*
X81975642Y-117238696D01*
X81974053Y-117254835D01*
X81972137Y-117261150D01*
X81967356Y-117285184D01*
X81967356Y-117309688D01*
X81972136Y-117333721D01*
X81974790Y-117340128D01*
X81974790Y-118698677D01*
X81969156Y-118717250D01*
X81966754Y-118741636D01*
X81969156Y-118766022D01*
X81972137Y-118777922D01*
X81974053Y-118784237D01*
X81975642Y-118800376D01*
X81975642Y-120313396D01*
X81974053Y-120329535D01*
X81971137Y-120339147D01*
X81966402Y-120348005D01*
X81960027Y-120355773D01*
X81952259Y-120362148D01*
X81943401Y-120366883D01*
X81933789Y-120369799D01*
X81917650Y-120371388D01*
X74429930Y-120371388D01*
X74413791Y-120369799D01*
X74404179Y-120366883D01*
X74395321Y-120362148D01*
X74387553Y-120355773D01*
X74381178Y-120348005D01*
X74376443Y-120339147D01*
X74373527Y-120329535D01*
X74371938Y-120313396D01*
X74371938Y-119775676D01*
X74373527Y-119759537D01*
X74376443Y-119749925D01*
X74381178Y-119741067D01*
X74387553Y-119733299D01*
X74395321Y-119726924D01*
X74404179Y-119722189D01*
X74413791Y-119719273D01*
X74429930Y-119717684D01*
X78746938Y-119717684D01*
X78771324Y-119715282D01*
X78794773Y-119708169D01*
X78816384Y-119696618D01*
X78835326Y-119681072D01*
X78850872Y-119662130D01*
X78862423Y-119640519D01*
X78869536Y-119617070D01*
X78871938Y-119592684D01*
X78871938Y-118800376D01*
X78873527Y-118784237D01*
X78876443Y-118774625D01*
X78881178Y-118765767D01*
X78887553Y-118757999D01*
X78895321Y-118751624D01*
X78904179Y-118746889D01*
X78913791Y-118743973D01*
X78929930Y-118742384D01*
X79052590Y-118742384D01*
X79076976Y-118739982D01*
X79100425Y-118732869D01*
X79122036Y-118721318D01*
X79140978Y-118705772D01*
X79156524Y-118686830D01*
X79168075Y-118665219D01*
X79175188Y-118641770D01*
X79177590Y-118617384D01*
X79177590Y-117421688D01*
X79175188Y-117397302D01*
X79168075Y-117373853D01*
X79156524Y-117352242D01*
X79140978Y-117333300D01*
X79122036Y-117317754D01*
X79100425Y-117306203D01*
X79076976Y-117299090D01*
X79052590Y-117296688D01*
X78929930Y-117296688D01*
X78913791Y-117295099D01*
X78904179Y-117292183D01*
X78895321Y-117287448D01*
X78887553Y-117281073D01*
X78881178Y-117273305D01*
X78876443Y-117264447D01*
X78873527Y-117254835D01*
X78871938Y-117238696D01*
X78871938Y-116446388D01*
X78869536Y-116422002D01*
X78862423Y-116398553D01*
X78850872Y-116376942D01*
X78835326Y-116358000D01*
X78816384Y-116342454D01*
X78794773Y-116330903D01*
X78771324Y-116323790D01*
X78746938Y-116321388D01*
X74429930Y-116321388D01*
X74413791Y-116319799D01*
X74404179Y-116316883D01*
X74395321Y-116312148D01*
X74387553Y-116305773D01*
X74381178Y-116298005D01*
X74376443Y-116289147D01*
X74373527Y-116279535D01*
X74371938Y-116263396D01*
X74371938Y-115725676D01*
X74373527Y-115709537D01*
X74376443Y-115699925D01*
X74381178Y-115691067D01*
X74387553Y-115683299D01*
X74395321Y-115676924D01*
X74404179Y-115672189D01*
X74413791Y-115669273D01*
X74429930Y-115667684D01*
X81917650Y-115667684D01*
X81933789Y-115669273D01*
X81933789Y-115669273D01*
G37*
G36*
X93661440Y-117048715D02*
X87082440Y-117048715D01*
X87082440Y-116062795D01*
X93661440Y-116062795D01*
X93661440Y-117048715D01*
X93661440Y-117048715D01*
G37*
G36*
X81933789Y-105910753D02*
X81943401Y-105913669D01*
X81952259Y-105918404D01*
X81960027Y-105924779D01*
X81966402Y-105932547D01*
X81971137Y-105941405D01*
X81974053Y-105951017D01*
X81975642Y-105967156D01*
X81975642Y-107480176D01*
X81974053Y-107496315D01*
X81972137Y-107502630D01*
X81967356Y-107526664D01*
X81967356Y-107551168D01*
X81972136Y-107575201D01*
X81974790Y-107581608D01*
X81974790Y-108940157D01*
X81969156Y-108958730D01*
X81966754Y-108983116D01*
X81969156Y-109007502D01*
X81972137Y-109019402D01*
X81974053Y-109025717D01*
X81975642Y-109041856D01*
X81975642Y-110554876D01*
X81974053Y-110571015D01*
X81971137Y-110580627D01*
X81966402Y-110589485D01*
X81960027Y-110597253D01*
X81952259Y-110603628D01*
X81943401Y-110608363D01*
X81933789Y-110611279D01*
X81917650Y-110612868D01*
X74429930Y-110612868D01*
X74413791Y-110611279D01*
X74404179Y-110608363D01*
X74395321Y-110603628D01*
X74387553Y-110597253D01*
X74381178Y-110589485D01*
X74376443Y-110580627D01*
X74373527Y-110571015D01*
X74371938Y-110554876D01*
X74371938Y-110017156D01*
X74373527Y-110001017D01*
X74376443Y-109991405D01*
X74381178Y-109982547D01*
X74387553Y-109974779D01*
X74395321Y-109968404D01*
X74404179Y-109963669D01*
X74413791Y-109960753D01*
X74429930Y-109959164D01*
X78746938Y-109959164D01*
X78771324Y-109956762D01*
X78794773Y-109949649D01*
X78816384Y-109938098D01*
X78835326Y-109922552D01*
X78850872Y-109903610D01*
X78862423Y-109881999D01*
X78869536Y-109858550D01*
X78871938Y-109834164D01*
X78871938Y-109041856D01*
X78873527Y-109025717D01*
X78876443Y-109016105D01*
X78881178Y-109007247D01*
X78887553Y-108999479D01*
X78895321Y-108993104D01*
X78904179Y-108988369D01*
X78913791Y-108985453D01*
X78929930Y-108983864D01*
X79052590Y-108983864D01*
X79076976Y-108981462D01*
X79100425Y-108974349D01*
X79122036Y-108962798D01*
X79140978Y-108947252D01*
X79156524Y-108928310D01*
X79168075Y-108906699D01*
X79175188Y-108883250D01*
X79177590Y-108858864D01*
X79177590Y-107663168D01*
X79175188Y-107638782D01*
X79168075Y-107615333D01*
X79156524Y-107593722D01*
X79140978Y-107574780D01*
X79122036Y-107559234D01*
X79100425Y-107547683D01*
X79076976Y-107540570D01*
X79052590Y-107538168D01*
X78929930Y-107538168D01*
X78913791Y-107536579D01*
X78904179Y-107533663D01*
X78895321Y-107528928D01*
X78887553Y-107522553D01*
X78881178Y-107514785D01*
X78876443Y-107505927D01*
X78873527Y-107496315D01*
X78871938Y-107480176D01*
X78871938Y-106687868D01*
X78869536Y-106663482D01*
X78862423Y-106640033D01*
X78850872Y-106618422D01*
X78835326Y-106599480D01*
X78816384Y-106583934D01*
X78794773Y-106572383D01*
X78771324Y-106565270D01*
X78746938Y-106562868D01*
X74429930Y-106562868D01*
X74413791Y-106561279D01*
X74404179Y-106558363D01*
X74395321Y-106553628D01*
X74387553Y-106547253D01*
X74381178Y-106539485D01*
X74376443Y-106530627D01*
X74373527Y-106521015D01*
X74371938Y-106504876D01*
X74371938Y-105967156D01*
X74373527Y-105951017D01*
X74376443Y-105941405D01*
X74381178Y-105932547D01*
X74387553Y-105924779D01*
X74395321Y-105918404D01*
X74404179Y-105913669D01*
X74413791Y-105910753D01*
X74429930Y-105909164D01*
X81917650Y-105909164D01*
X81933789Y-105910753D01*
X81933789Y-105910753D01*
G37*
G36*
X93661440Y-107290195D02*
X87082440Y-107290195D01*
X87082440Y-106304275D01*
X93661440Y-106304275D01*
X93661440Y-107290195D01*
X93661440Y-107290195D01*
G37*
G36*
X80856430Y-100537611D02*
X80856432Y-100537612D01*
X80856433Y-100537612D01*
X80863770Y-100540651D01*
X80888828Y-100551030D01*
X80917981Y-100570510D01*
X80942773Y-100595302D01*
X80944541Y-100597948D01*
X80960086Y-100616891D01*
X80979028Y-100632436D01*
X81000639Y-100643988D01*
X81024088Y-100651101D01*
X81048474Y-100653503D01*
X81072860Y-100651101D01*
X81096310Y-100643988D01*
X81117920Y-100632437D01*
X81136863Y-100616892D01*
X81152409Y-100597948D01*
X81154177Y-100595302D01*
X81178969Y-100570510D01*
X81208122Y-100551030D01*
X81233180Y-100540651D01*
X81240517Y-100537612D01*
X81240518Y-100537612D01*
X81240520Y-100537611D01*
X81274905Y-100530771D01*
X81309971Y-100530771D01*
X81344356Y-100537611D01*
X81344358Y-100537612D01*
X81344359Y-100537612D01*
X81351696Y-100540651D01*
X81376754Y-100551030D01*
X81405907Y-100570510D01*
X81430699Y-100595302D01*
X81432467Y-100597948D01*
X81448012Y-100616891D01*
X81466954Y-100632436D01*
X81488565Y-100643988D01*
X81512014Y-100651101D01*
X81536400Y-100653503D01*
X81560786Y-100651101D01*
X81584236Y-100643988D01*
X81605846Y-100632437D01*
X81624789Y-100616892D01*
X81640335Y-100597948D01*
X81642103Y-100595302D01*
X81666895Y-100570510D01*
X81696048Y-100551030D01*
X81721106Y-100540651D01*
X81728443Y-100537612D01*
X81728444Y-100537612D01*
X81728446Y-100537611D01*
X81762831Y-100530771D01*
X81797897Y-100530771D01*
X81832282Y-100537611D01*
X81832284Y-100537612D01*
X81832285Y-100537612D01*
X81839622Y-100540651D01*
X81864680Y-100551030D01*
X81893833Y-100570510D01*
X81918625Y-100595302D01*
X81920393Y-100597948D01*
X81935938Y-100616891D01*
X81954880Y-100632436D01*
X81976491Y-100643988D01*
X81999940Y-100651101D01*
X82024326Y-100653503D01*
X82048712Y-100651101D01*
X82072162Y-100643988D01*
X82093772Y-100632437D01*
X82112715Y-100616892D01*
X82128261Y-100597948D01*
X82130029Y-100595302D01*
X82154821Y-100570510D01*
X82183974Y-100551030D01*
X82209032Y-100540651D01*
X82216369Y-100537612D01*
X82216370Y-100537612D01*
X82216372Y-100537611D01*
X82250757Y-100530771D01*
X82285823Y-100530771D01*
X82320208Y-100537611D01*
X82320210Y-100537612D01*
X82320211Y-100537612D01*
X82327548Y-100540651D01*
X82352606Y-100551030D01*
X82381759Y-100570510D01*
X82406551Y-100595302D01*
X82408319Y-100597948D01*
X82423864Y-100616891D01*
X82442806Y-100632436D01*
X82464417Y-100643988D01*
X82487866Y-100651101D01*
X82512252Y-100653503D01*
X82536638Y-100651101D01*
X82560088Y-100643988D01*
X82581698Y-100632437D01*
X82600641Y-100616892D01*
X82616187Y-100597948D01*
X82617955Y-100595302D01*
X82642747Y-100570510D01*
X82671900Y-100551030D01*
X82696958Y-100540651D01*
X82704295Y-100537612D01*
X82704296Y-100537612D01*
X82704298Y-100537611D01*
X82738683Y-100530771D01*
X82773749Y-100530771D01*
X82808134Y-100537611D01*
X82808136Y-100537612D01*
X82808137Y-100537612D01*
X82815474Y-100540651D01*
X82840532Y-100551030D01*
X82869685Y-100570510D01*
X82894477Y-100595302D01*
X82896245Y-100597948D01*
X82911790Y-100616891D01*
X82930732Y-100632436D01*
X82952343Y-100643988D01*
X82975792Y-100651101D01*
X83000178Y-100653503D01*
X83024564Y-100651101D01*
X83048014Y-100643988D01*
X83069624Y-100632437D01*
X83088567Y-100616892D01*
X83104113Y-100597948D01*
X83105881Y-100595302D01*
X83130673Y-100570510D01*
X83159826Y-100551030D01*
X83184884Y-100540651D01*
X83192221Y-100537612D01*
X83192222Y-100537612D01*
X83192224Y-100537611D01*
X83226609Y-100530771D01*
X83261675Y-100530771D01*
X83296060Y-100537611D01*
X83296062Y-100537612D01*
X83296063Y-100537612D01*
X83303400Y-100540651D01*
X83328458Y-100551030D01*
X83357611Y-100570510D01*
X83382403Y-100595302D01*
X83384171Y-100597948D01*
X83399716Y-100616891D01*
X83418658Y-100632436D01*
X83440269Y-100643988D01*
X83463718Y-100651101D01*
X83488104Y-100653503D01*
X83512490Y-100651101D01*
X83535940Y-100643988D01*
X83557550Y-100632437D01*
X83576493Y-100616892D01*
X83592039Y-100597948D01*
X83593807Y-100595302D01*
X83618599Y-100570510D01*
X83647752Y-100551030D01*
X83672810Y-100540651D01*
X83680147Y-100537612D01*
X83680148Y-100537612D01*
X83680150Y-100537611D01*
X83714535Y-100530771D01*
X83749601Y-100530771D01*
X83783986Y-100537611D01*
X83783988Y-100537612D01*
X83783989Y-100537612D01*
X83791326Y-100540651D01*
X83816384Y-100551030D01*
X83845537Y-100570510D01*
X83870329Y-100595302D01*
X83872097Y-100597948D01*
X83887642Y-100616891D01*
X83906584Y-100632436D01*
X83928195Y-100643988D01*
X83951644Y-100651101D01*
X83976030Y-100653503D01*
X84000416Y-100651101D01*
X84023866Y-100643988D01*
X84045476Y-100632437D01*
X84064419Y-100616892D01*
X84079965Y-100597948D01*
X84081733Y-100595302D01*
X84106525Y-100570510D01*
X84135678Y-100551030D01*
X84160736Y-100540651D01*
X84168073Y-100537612D01*
X84168074Y-100537612D01*
X84168076Y-100537611D01*
X84202461Y-100530771D01*
X84237527Y-100530771D01*
X84271912Y-100537611D01*
X84271914Y-100537612D01*
X84271915Y-100537612D01*
X84279252Y-100540651D01*
X84304310Y-100551030D01*
X84333463Y-100570510D01*
X84358255Y-100595302D01*
X84360023Y-100597948D01*
X84375568Y-100616891D01*
X84394510Y-100632436D01*
X84416121Y-100643988D01*
X84439570Y-100651101D01*
X84463956Y-100653503D01*
X84488342Y-100651101D01*
X84511792Y-100643988D01*
X84533402Y-100632437D01*
X84552345Y-100616892D01*
X84567891Y-100597948D01*
X84569659Y-100595302D01*
X84594451Y-100570510D01*
X84623604Y-100551030D01*
X84648662Y-100540651D01*
X84655999Y-100537612D01*
X84656000Y-100537612D01*
X84656002Y-100537611D01*
X84690387Y-100530771D01*
X84725453Y-100530771D01*
X84759838Y-100537611D01*
X84759840Y-100537612D01*
X84759841Y-100537612D01*
X84767178Y-100540651D01*
X84792236Y-100551030D01*
X84821389Y-100570510D01*
X84846181Y-100595302D01*
X84847949Y-100597948D01*
X84863494Y-100616891D01*
X84882436Y-100632436D01*
X84904047Y-100643988D01*
X84927496Y-100651101D01*
X84951882Y-100653503D01*
X84976268Y-100651101D01*
X84999718Y-100643988D01*
X85021328Y-100632437D01*
X85040271Y-100616892D01*
X85055817Y-100597948D01*
X85057585Y-100595302D01*
X85082377Y-100570510D01*
X85111530Y-100551030D01*
X85136588Y-100540651D01*
X85143925Y-100537612D01*
X85143926Y-100537612D01*
X85143928Y-100537611D01*
X85178313Y-100530771D01*
X85213379Y-100530771D01*
X85247764Y-100537611D01*
X85247766Y-100537612D01*
X85247767Y-100537612D01*
X85255104Y-100540651D01*
X85280162Y-100551030D01*
X85309315Y-100570510D01*
X85334107Y-100595302D01*
X85335875Y-100597948D01*
X85351420Y-100616891D01*
X85370362Y-100632436D01*
X85391973Y-100643988D01*
X85415422Y-100651101D01*
X85439808Y-100653503D01*
X85464194Y-100651101D01*
X85487644Y-100643988D01*
X85509254Y-100632437D01*
X85528197Y-100616892D01*
X85543743Y-100597948D01*
X85545511Y-100595302D01*
X85570303Y-100570510D01*
X85599456Y-100551030D01*
X85624514Y-100540651D01*
X85631851Y-100537612D01*
X85631852Y-100537612D01*
X85631854Y-100537611D01*
X85666239Y-100530771D01*
X85701305Y-100530771D01*
X85735690Y-100537611D01*
X85735692Y-100537612D01*
X85735693Y-100537612D01*
X85743030Y-100540651D01*
X85768088Y-100551030D01*
X85797241Y-100570510D01*
X85822033Y-100595302D01*
X85823801Y-100597948D01*
X85839346Y-100616891D01*
X85858288Y-100632436D01*
X85879899Y-100643988D01*
X85903348Y-100651101D01*
X85927734Y-100653503D01*
X85952120Y-100651101D01*
X85975570Y-100643988D01*
X85997180Y-100632437D01*
X86016123Y-100616892D01*
X86031669Y-100597948D01*
X86033437Y-100595302D01*
X86058229Y-100570510D01*
X86087382Y-100551030D01*
X86112440Y-100540651D01*
X86119777Y-100537612D01*
X86119778Y-100537612D01*
X86119780Y-100537611D01*
X86154165Y-100530771D01*
X86189231Y-100530771D01*
X86223616Y-100537611D01*
X86223618Y-100537612D01*
X86223619Y-100537612D01*
X86230956Y-100540651D01*
X86256014Y-100551030D01*
X86285167Y-100570510D01*
X86309959Y-100595302D01*
X86311727Y-100597948D01*
X86327272Y-100616891D01*
X86346214Y-100632436D01*
X86367825Y-100643988D01*
X86391274Y-100651101D01*
X86415660Y-100653503D01*
X86440046Y-100651101D01*
X86463496Y-100643988D01*
X86485106Y-100632437D01*
X86504049Y-100616892D01*
X86519595Y-100597948D01*
X86521363Y-100595302D01*
X86546155Y-100570510D01*
X86575308Y-100551030D01*
X86600366Y-100540651D01*
X86607703Y-100537612D01*
X86607704Y-100537612D01*
X86607706Y-100537611D01*
X86642091Y-100530771D01*
X86677157Y-100530771D01*
X86711542Y-100537611D01*
X86711544Y-100537612D01*
X86711545Y-100537612D01*
X86718882Y-100540651D01*
X86743940Y-100551030D01*
X86773093Y-100570510D01*
X86797885Y-100595302D01*
X86799653Y-100597948D01*
X86815198Y-100616891D01*
X86834140Y-100632436D01*
X86855751Y-100643988D01*
X86879200Y-100651101D01*
X86903586Y-100653503D01*
X86927972Y-100651101D01*
X86951422Y-100643988D01*
X86973032Y-100632437D01*
X86991975Y-100616892D01*
X87007521Y-100597948D01*
X87009289Y-100595302D01*
X87034081Y-100570510D01*
X87063234Y-100551030D01*
X87088292Y-100540651D01*
X87095629Y-100537612D01*
X87095630Y-100537612D01*
X87095632Y-100537611D01*
X87130017Y-100530771D01*
X87165083Y-100530771D01*
X87199468Y-100537611D01*
X87199470Y-100537612D01*
X87199471Y-100537612D01*
X87206808Y-100540651D01*
X87231866Y-100551030D01*
X87261019Y-100570510D01*
X87285811Y-100595302D01*
X87305291Y-100624455D01*
X87308597Y-100632437D01*
X87318709Y-100656850D01*
X87325550Y-100691240D01*
X87325550Y-100726302D01*
X87318709Y-100760692D01*
X87316328Y-100766441D01*
X87305291Y-100793087D01*
X87285811Y-100822240D01*
X87261019Y-100847032D01*
X87231866Y-100866512D01*
X87206808Y-100876891D01*
X87199471Y-100879930D01*
X87199470Y-100879930D01*
X87199468Y-100879931D01*
X87165083Y-100886771D01*
X87130017Y-100886771D01*
X87095632Y-100879931D01*
X87095630Y-100879930D01*
X87095629Y-100879930D01*
X87088292Y-100876891D01*
X87063234Y-100866512D01*
X87034081Y-100847032D01*
X87009289Y-100822240D01*
X87007521Y-100819594D01*
X86991976Y-100800651D01*
X86973034Y-100785106D01*
X86951423Y-100773554D01*
X86927974Y-100766441D01*
X86903588Y-100764039D01*
X86879202Y-100766441D01*
X86855752Y-100773554D01*
X86834142Y-100785105D01*
X86815199Y-100800650D01*
X86799653Y-100819594D01*
X86797885Y-100822240D01*
X86773093Y-100847032D01*
X86743940Y-100866512D01*
X86718882Y-100876891D01*
X86711545Y-100879930D01*
X86711544Y-100879930D01*
X86711542Y-100879931D01*
X86677157Y-100886771D01*
X86642091Y-100886771D01*
X86607706Y-100879931D01*
X86607704Y-100879930D01*
X86607703Y-100879930D01*
X86600366Y-100876891D01*
X86575308Y-100866512D01*
X86546155Y-100847032D01*
X86521363Y-100822240D01*
X86519595Y-100819594D01*
X86504050Y-100800651D01*
X86485108Y-100785106D01*
X86463497Y-100773554D01*
X86440048Y-100766441D01*
X86415662Y-100764039D01*
X86391276Y-100766441D01*
X86367826Y-100773554D01*
X86346216Y-100785105D01*
X86327273Y-100800650D01*
X86311727Y-100819594D01*
X86309959Y-100822240D01*
X86285167Y-100847032D01*
X86256014Y-100866512D01*
X86230956Y-100876891D01*
X86223619Y-100879930D01*
X86223618Y-100879930D01*
X86223616Y-100879931D01*
X86189231Y-100886771D01*
X86154165Y-100886771D01*
X86119780Y-100879931D01*
X86119778Y-100879930D01*
X86119777Y-100879930D01*
X86112440Y-100876891D01*
X86087382Y-100866512D01*
X86058229Y-100847032D01*
X86033437Y-100822240D01*
X86031669Y-100819594D01*
X86016124Y-100800651D01*
X85997182Y-100785106D01*
X85975571Y-100773554D01*
X85952122Y-100766441D01*
X85927736Y-100764039D01*
X85903350Y-100766441D01*
X85879900Y-100773554D01*
X85858290Y-100785105D01*
X85839347Y-100800650D01*
X85823801Y-100819594D01*
X85822033Y-100822240D01*
X85797241Y-100847032D01*
X85768088Y-100866512D01*
X85743030Y-100876891D01*
X85735693Y-100879930D01*
X85735692Y-100879930D01*
X85735690Y-100879931D01*
X85701305Y-100886771D01*
X85666239Y-100886771D01*
X85631854Y-100879931D01*
X85631852Y-100879930D01*
X85631851Y-100879930D01*
X85624514Y-100876891D01*
X85599456Y-100866512D01*
X85570303Y-100847032D01*
X85545511Y-100822240D01*
X85543743Y-100819594D01*
X85528198Y-100800651D01*
X85509256Y-100785106D01*
X85487645Y-100773554D01*
X85464196Y-100766441D01*
X85439810Y-100764039D01*
X85415424Y-100766441D01*
X85391974Y-100773554D01*
X85370364Y-100785105D01*
X85351421Y-100800650D01*
X85335875Y-100819594D01*
X85334107Y-100822240D01*
X85309315Y-100847032D01*
X85280162Y-100866512D01*
X85255104Y-100876891D01*
X85247767Y-100879930D01*
X85247766Y-100879930D01*
X85247764Y-100879931D01*
X85213379Y-100886771D01*
X85178313Y-100886771D01*
X85143928Y-100879931D01*
X85143926Y-100879930D01*
X85143925Y-100879930D01*
X85136588Y-100876891D01*
X85111530Y-100866512D01*
X85082377Y-100847032D01*
X85057585Y-100822240D01*
X85055817Y-100819594D01*
X85040272Y-100800651D01*
X85021330Y-100785106D01*
X84999719Y-100773554D01*
X84976270Y-100766441D01*
X84951884Y-100764039D01*
X84927498Y-100766441D01*
X84904048Y-100773554D01*
X84882438Y-100785105D01*
X84863495Y-100800650D01*
X84847949Y-100819594D01*
X84846181Y-100822240D01*
X84821389Y-100847032D01*
X84792236Y-100866512D01*
X84767178Y-100876891D01*
X84759841Y-100879930D01*
X84759840Y-100879930D01*
X84759838Y-100879931D01*
X84725453Y-100886771D01*
X84690387Y-100886771D01*
X84656002Y-100879931D01*
X84656000Y-100879930D01*
X84655999Y-100879930D01*
X84648662Y-100876891D01*
X84623604Y-100866512D01*
X84594451Y-100847032D01*
X84569659Y-100822240D01*
X84567891Y-100819594D01*
X84552346Y-100800651D01*
X84533404Y-100785106D01*
X84511793Y-100773554D01*
X84488344Y-100766441D01*
X84463958Y-100764039D01*
X84439572Y-100766441D01*
X84416122Y-100773554D01*
X84394512Y-100785105D01*
X84375569Y-100800650D01*
X84360023Y-100819594D01*
X84358255Y-100822240D01*
X84333463Y-100847032D01*
X84304310Y-100866512D01*
X84279252Y-100876891D01*
X84271915Y-100879930D01*
X84271914Y-100879930D01*
X84271912Y-100879931D01*
X84237527Y-100886771D01*
X84202461Y-100886771D01*
X84168076Y-100879931D01*
X84168074Y-100879930D01*
X84168073Y-100879930D01*
X84160736Y-100876891D01*
X84135678Y-100866512D01*
X84106525Y-100847032D01*
X84081733Y-100822240D01*
X84079965Y-100819594D01*
X84064420Y-100800651D01*
X84045478Y-100785106D01*
X84023867Y-100773554D01*
X84000418Y-100766441D01*
X83976032Y-100764039D01*
X83951646Y-100766441D01*
X83928196Y-100773554D01*
X83906586Y-100785105D01*
X83887643Y-100800650D01*
X83872097Y-100819594D01*
X83870329Y-100822240D01*
X83845537Y-100847032D01*
X83816384Y-100866512D01*
X83791326Y-100876891D01*
X83783989Y-100879930D01*
X83783988Y-100879930D01*
X83783986Y-100879931D01*
X83749601Y-100886771D01*
X83714535Y-100886771D01*
X83680150Y-100879931D01*
X83680148Y-100879930D01*
X83680147Y-100879930D01*
X83672810Y-100876891D01*
X83647752Y-100866512D01*
X83618599Y-100847032D01*
X83593807Y-100822240D01*
X83592039Y-100819594D01*
X83576494Y-100800651D01*
X83557552Y-100785106D01*
X83535941Y-100773554D01*
X83512492Y-100766441D01*
X83488106Y-100764039D01*
X83463720Y-100766441D01*
X83440270Y-100773554D01*
X83418660Y-100785105D01*
X83399717Y-100800650D01*
X83384171Y-100819594D01*
X83382403Y-100822240D01*
X83357611Y-100847032D01*
X83328458Y-100866512D01*
X83303400Y-100876891D01*
X83296063Y-100879930D01*
X83296062Y-100879930D01*
X83296060Y-100879931D01*
X83261675Y-100886771D01*
X83226609Y-100886771D01*
X83192224Y-100879931D01*
X83192222Y-100879930D01*
X83192221Y-100879930D01*
X83184884Y-100876891D01*
X83159826Y-100866512D01*
X83130673Y-100847032D01*
X83105881Y-100822240D01*
X83104113Y-100819594D01*
X83088568Y-100800651D01*
X83069626Y-100785106D01*
X83048015Y-100773554D01*
X83024566Y-100766441D01*
X83000180Y-100764039D01*
X82975794Y-100766441D01*
X82952344Y-100773554D01*
X82930734Y-100785105D01*
X82911791Y-100800650D01*
X82896245Y-100819594D01*
X82894477Y-100822240D01*
X82869685Y-100847032D01*
X82840532Y-100866512D01*
X82815474Y-100876891D01*
X82808137Y-100879930D01*
X82808136Y-100879930D01*
X82808134Y-100879931D01*
X82773749Y-100886771D01*
X82738683Y-100886771D01*
X82704298Y-100879931D01*
X82704296Y-100879930D01*
X82704295Y-100879930D01*
X82696958Y-100876891D01*
X82671900Y-100866512D01*
X82642747Y-100847032D01*
X82617955Y-100822240D01*
X82616187Y-100819594D01*
X82600642Y-100800651D01*
X82581700Y-100785106D01*
X82560089Y-100773554D01*
X82536640Y-100766441D01*
X82512254Y-100764039D01*
X82487868Y-100766441D01*
X82464418Y-100773554D01*
X82442808Y-100785105D01*
X82423865Y-100800650D01*
X82408319Y-100819594D01*
X82406551Y-100822240D01*
X82381759Y-100847032D01*
X82352606Y-100866512D01*
X82327548Y-100876891D01*
X82320211Y-100879930D01*
X82320210Y-100879930D01*
X82320208Y-100879931D01*
X82285823Y-100886771D01*
X82250757Y-100886771D01*
X82216372Y-100879931D01*
X82216370Y-100879930D01*
X82216369Y-100879930D01*
X82209032Y-100876891D01*
X82183974Y-100866512D01*
X82154821Y-100847032D01*
X82130029Y-100822240D01*
X82128261Y-100819594D01*
X82112716Y-100800651D01*
X82093774Y-100785106D01*
X82072163Y-100773554D01*
X82048714Y-100766441D01*
X82024328Y-100764039D01*
X81999942Y-100766441D01*
X81976492Y-100773554D01*
X81954882Y-100785105D01*
X81935939Y-100800650D01*
X81920393Y-100819594D01*
X81918625Y-100822240D01*
X81893833Y-100847032D01*
X81864680Y-100866512D01*
X81839622Y-100876891D01*
X81832285Y-100879930D01*
X81832284Y-100879930D01*
X81832282Y-100879931D01*
X81797897Y-100886771D01*
X81762831Y-100886771D01*
X81728446Y-100879931D01*
X81728444Y-100879930D01*
X81728443Y-100879930D01*
X81721106Y-100876891D01*
X81696048Y-100866512D01*
X81666895Y-100847032D01*
X81642103Y-100822240D01*
X81640335Y-100819594D01*
X81624790Y-100800651D01*
X81605848Y-100785106D01*
X81584237Y-100773554D01*
X81560788Y-100766441D01*
X81536402Y-100764039D01*
X81512016Y-100766441D01*
X81488566Y-100773554D01*
X81466956Y-100785105D01*
X81448013Y-100800650D01*
X81432467Y-100819594D01*
X81430699Y-100822240D01*
X81405907Y-100847032D01*
X81376754Y-100866512D01*
X81351696Y-100876891D01*
X81344359Y-100879930D01*
X81344358Y-100879930D01*
X81344356Y-100879931D01*
X81309971Y-100886771D01*
X81274905Y-100886771D01*
X81240520Y-100879931D01*
X81240518Y-100879930D01*
X81240517Y-100879930D01*
X81233180Y-100876891D01*
X81208122Y-100866512D01*
X81178969Y-100847032D01*
X81154177Y-100822240D01*
X81152409Y-100819594D01*
X81136864Y-100800651D01*
X81117922Y-100785106D01*
X81096311Y-100773554D01*
X81072862Y-100766441D01*
X81048476Y-100764039D01*
X81024090Y-100766441D01*
X81000640Y-100773554D01*
X80979030Y-100785105D01*
X80960087Y-100800650D01*
X80944541Y-100819594D01*
X80942773Y-100822240D01*
X80917981Y-100847032D01*
X80888828Y-100866512D01*
X80863770Y-100876891D01*
X80856433Y-100879930D01*
X80856432Y-100879930D01*
X80856430Y-100879931D01*
X80822045Y-100886771D01*
X80786979Y-100886771D01*
X80752594Y-100879931D01*
X80752592Y-100879930D01*
X80752591Y-100879930D01*
X80745254Y-100876891D01*
X80720196Y-100866512D01*
X80691043Y-100847032D01*
X80666251Y-100822240D01*
X80646771Y-100793087D01*
X80635734Y-100766441D01*
X80633353Y-100760692D01*
X80626512Y-100726302D01*
X80626512Y-100691240D01*
X80633353Y-100656850D01*
X80643465Y-100632437D01*
X80646771Y-100624455D01*
X80666251Y-100595302D01*
X80691043Y-100570510D01*
X80720196Y-100551030D01*
X80745254Y-100540651D01*
X80752591Y-100537612D01*
X80752592Y-100537612D01*
X80752594Y-100537611D01*
X80786979Y-100530771D01*
X80822045Y-100530771D01*
X80856430Y-100537611D01*
X80856430Y-100537611D01*
G37*
G36*
X93462676Y-93717277D02*
X93472288Y-93720193D01*
X93481146Y-93724928D01*
X93488914Y-93731303D01*
X93495289Y-93739071D01*
X93500024Y-93747929D01*
X93502940Y-93757541D01*
X93504529Y-93773680D01*
X93504529Y-94311400D01*
X93502940Y-94327539D01*
X93500024Y-94337151D01*
X93495289Y-94346009D01*
X93488914Y-94353777D01*
X93481146Y-94360152D01*
X93472288Y-94364887D01*
X93462676Y-94367803D01*
X93446537Y-94369392D01*
X89129529Y-94369392D01*
X89105143Y-94371794D01*
X89081694Y-94378907D01*
X89060083Y-94390458D01*
X89041141Y-94406004D01*
X89025595Y-94424946D01*
X89014044Y-94446557D01*
X89006931Y-94470006D01*
X89004529Y-94494392D01*
X89004529Y-95286700D01*
X89002940Y-95302839D01*
X89000024Y-95312451D01*
X88995289Y-95321309D01*
X88988914Y-95329077D01*
X88981146Y-95335452D01*
X88972288Y-95340187D01*
X88962676Y-95343103D01*
X88946537Y-95344692D01*
X88823877Y-95344692D01*
X88799491Y-95347094D01*
X88776042Y-95354207D01*
X88754431Y-95365758D01*
X88735489Y-95381304D01*
X88719943Y-95400246D01*
X88708392Y-95421857D01*
X88701279Y-95445306D01*
X88698877Y-95469692D01*
X88698877Y-96665388D01*
X88701279Y-96689774D01*
X88708392Y-96713223D01*
X88719943Y-96734834D01*
X88735489Y-96753776D01*
X88754431Y-96769322D01*
X88776042Y-96780873D01*
X88799491Y-96787986D01*
X88823877Y-96790388D01*
X88946537Y-96790388D01*
X88962676Y-96791977D01*
X88972288Y-96794893D01*
X88981146Y-96799628D01*
X88988914Y-96806003D01*
X88995289Y-96813771D01*
X89000024Y-96822629D01*
X89002940Y-96832241D01*
X89004529Y-96848380D01*
X89004529Y-97640688D01*
X89006931Y-97665074D01*
X89014044Y-97688523D01*
X89025595Y-97710134D01*
X89041141Y-97729076D01*
X89060083Y-97744622D01*
X89081694Y-97756173D01*
X89105143Y-97763286D01*
X89129529Y-97765688D01*
X93446537Y-97765688D01*
X93462676Y-97767277D01*
X93472288Y-97770193D01*
X93481146Y-97774928D01*
X93488914Y-97781303D01*
X93495289Y-97789071D01*
X93500024Y-97797929D01*
X93502940Y-97807541D01*
X93504529Y-97823680D01*
X93504529Y-98361400D01*
X93502940Y-98377539D01*
X93500024Y-98387151D01*
X93495289Y-98396009D01*
X93488914Y-98403777D01*
X93481146Y-98410152D01*
X93472288Y-98414887D01*
X93462676Y-98417803D01*
X93446537Y-98419392D01*
X87379923Y-98419392D01*
X87355537Y-98421794D01*
X87332088Y-98428907D01*
X87310477Y-98440458D01*
X87291535Y-98456004D01*
X87275989Y-98474946D01*
X87264438Y-98496557D01*
X87257325Y-98520006D01*
X87254923Y-98544392D01*
X87257325Y-98568778D01*
X87264438Y-98592227D01*
X87275989Y-98613838D01*
X87281315Y-98620327D01*
X87305291Y-98656209D01*
X87308597Y-98664191D01*
X87318709Y-98688604D01*
X87325550Y-98722994D01*
X87325550Y-98758056D01*
X87318709Y-98792446D01*
X87316328Y-98798195D01*
X87305291Y-98824841D01*
X87285811Y-98853994D01*
X87261019Y-98878786D01*
X87231866Y-98898266D01*
X87206808Y-98908645D01*
X87199471Y-98911684D01*
X87199470Y-98911684D01*
X87199468Y-98911685D01*
X87165083Y-98918525D01*
X87130017Y-98918525D01*
X87095632Y-98911685D01*
X87095630Y-98911684D01*
X87095629Y-98911684D01*
X87088292Y-98908645D01*
X87063234Y-98898266D01*
X87034081Y-98878786D01*
X87009289Y-98853994D01*
X87007521Y-98851348D01*
X86991976Y-98832405D01*
X86973034Y-98816860D01*
X86951423Y-98805308D01*
X86927974Y-98798195D01*
X86903588Y-98795793D01*
X86879202Y-98798195D01*
X86855752Y-98805308D01*
X86834142Y-98816859D01*
X86815199Y-98832404D01*
X86799653Y-98851348D01*
X86797885Y-98853994D01*
X86773093Y-98878786D01*
X86743940Y-98898266D01*
X86718882Y-98908645D01*
X86711545Y-98911684D01*
X86711544Y-98911684D01*
X86711542Y-98911685D01*
X86677157Y-98918525D01*
X86642091Y-98918525D01*
X86607706Y-98911685D01*
X86607704Y-98911684D01*
X86607703Y-98911684D01*
X86600366Y-98908645D01*
X86575308Y-98898266D01*
X86546155Y-98878786D01*
X86521363Y-98853994D01*
X86519595Y-98851348D01*
X86504050Y-98832405D01*
X86485108Y-98816860D01*
X86463497Y-98805308D01*
X86440048Y-98798195D01*
X86415662Y-98795793D01*
X86391276Y-98798195D01*
X86367826Y-98805308D01*
X86346216Y-98816859D01*
X86327273Y-98832404D01*
X86311727Y-98851348D01*
X86309959Y-98853994D01*
X86285167Y-98878786D01*
X86256014Y-98898266D01*
X86230956Y-98908645D01*
X86223619Y-98911684D01*
X86223618Y-98911684D01*
X86223616Y-98911685D01*
X86189231Y-98918525D01*
X86154165Y-98918525D01*
X86119780Y-98911685D01*
X86119778Y-98911684D01*
X86119777Y-98911684D01*
X86112440Y-98908645D01*
X86087382Y-98898266D01*
X86058229Y-98878786D01*
X86033437Y-98853994D01*
X86031669Y-98851348D01*
X86016124Y-98832405D01*
X85997182Y-98816860D01*
X85975571Y-98805308D01*
X85952122Y-98798195D01*
X85927736Y-98795793D01*
X85903350Y-98798195D01*
X85879900Y-98805308D01*
X85858290Y-98816859D01*
X85839347Y-98832404D01*
X85823801Y-98851348D01*
X85822033Y-98853994D01*
X85797241Y-98878786D01*
X85768088Y-98898266D01*
X85743030Y-98908645D01*
X85735693Y-98911684D01*
X85735692Y-98911684D01*
X85735690Y-98911685D01*
X85701305Y-98918525D01*
X85666239Y-98918525D01*
X85631854Y-98911685D01*
X85631852Y-98911684D01*
X85631851Y-98911684D01*
X85624514Y-98908645D01*
X85599456Y-98898266D01*
X85570303Y-98878786D01*
X85545511Y-98853994D01*
X85543743Y-98851348D01*
X85528198Y-98832405D01*
X85509256Y-98816860D01*
X85487645Y-98805308D01*
X85464196Y-98798195D01*
X85439810Y-98795793D01*
X85415424Y-98798195D01*
X85391974Y-98805308D01*
X85370364Y-98816859D01*
X85351421Y-98832404D01*
X85335875Y-98851348D01*
X85334107Y-98853994D01*
X85309315Y-98878786D01*
X85280162Y-98898266D01*
X85255104Y-98908645D01*
X85247767Y-98911684D01*
X85247766Y-98911684D01*
X85247764Y-98911685D01*
X85213379Y-98918525D01*
X85178313Y-98918525D01*
X85143928Y-98911685D01*
X85143926Y-98911684D01*
X85143925Y-98911684D01*
X85136588Y-98908645D01*
X85111530Y-98898266D01*
X85082377Y-98878786D01*
X85057585Y-98853994D01*
X85055817Y-98851348D01*
X85040272Y-98832405D01*
X85021330Y-98816860D01*
X84999719Y-98805308D01*
X84976270Y-98798195D01*
X84951884Y-98795793D01*
X84927498Y-98798195D01*
X84904048Y-98805308D01*
X84882438Y-98816859D01*
X84863495Y-98832404D01*
X84847949Y-98851348D01*
X84846181Y-98853994D01*
X84821389Y-98878786D01*
X84792236Y-98898266D01*
X84767178Y-98908645D01*
X84759841Y-98911684D01*
X84759840Y-98911684D01*
X84759838Y-98911685D01*
X84725453Y-98918525D01*
X84690387Y-98918525D01*
X84656002Y-98911685D01*
X84656000Y-98911684D01*
X84655999Y-98911684D01*
X84648662Y-98908645D01*
X84623604Y-98898266D01*
X84594451Y-98878786D01*
X84569659Y-98853994D01*
X84567891Y-98851348D01*
X84552346Y-98832405D01*
X84533404Y-98816860D01*
X84511793Y-98805308D01*
X84488344Y-98798195D01*
X84463958Y-98795793D01*
X84439572Y-98798195D01*
X84416122Y-98805308D01*
X84394512Y-98816859D01*
X84375569Y-98832404D01*
X84360023Y-98851348D01*
X84358255Y-98853994D01*
X84333463Y-98878786D01*
X84304310Y-98898266D01*
X84279252Y-98908645D01*
X84271915Y-98911684D01*
X84271914Y-98911684D01*
X84271912Y-98911685D01*
X84237527Y-98918525D01*
X84202461Y-98918525D01*
X84168076Y-98911685D01*
X84168074Y-98911684D01*
X84168073Y-98911684D01*
X84160736Y-98908645D01*
X84135678Y-98898266D01*
X84106525Y-98878786D01*
X84081733Y-98853994D01*
X84079965Y-98851348D01*
X84064420Y-98832405D01*
X84045478Y-98816860D01*
X84023867Y-98805308D01*
X84000418Y-98798195D01*
X83976032Y-98795793D01*
X83951646Y-98798195D01*
X83928196Y-98805308D01*
X83906586Y-98816859D01*
X83887643Y-98832404D01*
X83872097Y-98851348D01*
X83870329Y-98853994D01*
X83845537Y-98878786D01*
X83816384Y-98898266D01*
X83791326Y-98908645D01*
X83783989Y-98911684D01*
X83783988Y-98911684D01*
X83783986Y-98911685D01*
X83749601Y-98918525D01*
X83714535Y-98918525D01*
X83680150Y-98911685D01*
X83680148Y-98911684D01*
X83680147Y-98911684D01*
X83672810Y-98908645D01*
X83647752Y-98898266D01*
X83618599Y-98878786D01*
X83593807Y-98853994D01*
X83592039Y-98851348D01*
X83576494Y-98832405D01*
X83557552Y-98816860D01*
X83535941Y-98805308D01*
X83512492Y-98798195D01*
X83488106Y-98795793D01*
X83463720Y-98798195D01*
X83440270Y-98805308D01*
X83418660Y-98816859D01*
X83399717Y-98832404D01*
X83384171Y-98851348D01*
X83382403Y-98853994D01*
X83357611Y-98878786D01*
X83328458Y-98898266D01*
X83303400Y-98908645D01*
X83296063Y-98911684D01*
X83296062Y-98911684D01*
X83296060Y-98911685D01*
X83261675Y-98918525D01*
X83226609Y-98918525D01*
X83192224Y-98911685D01*
X83192222Y-98911684D01*
X83192221Y-98911684D01*
X83184884Y-98908645D01*
X83159826Y-98898266D01*
X83130673Y-98878786D01*
X83105881Y-98853994D01*
X83104113Y-98851348D01*
X83088568Y-98832405D01*
X83069626Y-98816860D01*
X83048015Y-98805308D01*
X83024566Y-98798195D01*
X83000180Y-98795793D01*
X82975794Y-98798195D01*
X82952344Y-98805308D01*
X82930734Y-98816859D01*
X82911791Y-98832404D01*
X82896245Y-98851348D01*
X82894477Y-98853994D01*
X82869685Y-98878786D01*
X82840532Y-98898266D01*
X82815474Y-98908645D01*
X82808137Y-98911684D01*
X82808136Y-98911684D01*
X82808134Y-98911685D01*
X82773749Y-98918525D01*
X82738683Y-98918525D01*
X82704298Y-98911685D01*
X82704296Y-98911684D01*
X82704295Y-98911684D01*
X82696958Y-98908645D01*
X82671900Y-98898266D01*
X82642747Y-98878786D01*
X82617955Y-98853994D01*
X82616187Y-98851348D01*
X82600642Y-98832405D01*
X82581700Y-98816860D01*
X82560089Y-98805308D01*
X82536640Y-98798195D01*
X82512254Y-98795793D01*
X82487868Y-98798195D01*
X82464418Y-98805308D01*
X82442808Y-98816859D01*
X82423865Y-98832404D01*
X82408319Y-98851348D01*
X82406551Y-98853994D01*
X82381759Y-98878786D01*
X82352606Y-98898266D01*
X82327548Y-98908645D01*
X82320211Y-98911684D01*
X82320210Y-98911684D01*
X82320208Y-98911685D01*
X82285823Y-98918525D01*
X82250757Y-98918525D01*
X82216372Y-98911685D01*
X82216370Y-98911684D01*
X82216369Y-98911684D01*
X82209032Y-98908645D01*
X82183974Y-98898266D01*
X82154821Y-98878786D01*
X82130029Y-98853994D01*
X82128261Y-98851348D01*
X82112716Y-98832405D01*
X82093774Y-98816860D01*
X82072163Y-98805308D01*
X82048714Y-98798195D01*
X82024328Y-98795793D01*
X81999942Y-98798195D01*
X81976492Y-98805308D01*
X81954882Y-98816859D01*
X81935939Y-98832404D01*
X81920393Y-98851348D01*
X81918625Y-98853994D01*
X81893833Y-98878786D01*
X81864680Y-98898266D01*
X81839622Y-98908645D01*
X81832285Y-98911684D01*
X81832284Y-98911684D01*
X81832282Y-98911685D01*
X81797897Y-98918525D01*
X81762831Y-98918525D01*
X81728446Y-98911685D01*
X81728444Y-98911684D01*
X81728443Y-98911684D01*
X81721106Y-98908645D01*
X81696048Y-98898266D01*
X81666895Y-98878786D01*
X81642103Y-98853994D01*
X81640335Y-98851348D01*
X81624790Y-98832405D01*
X81605848Y-98816860D01*
X81584237Y-98805308D01*
X81560788Y-98798195D01*
X81536402Y-98795793D01*
X81512016Y-98798195D01*
X81488566Y-98805308D01*
X81466956Y-98816859D01*
X81448013Y-98832404D01*
X81432467Y-98851348D01*
X81430699Y-98853994D01*
X81405907Y-98878786D01*
X81376754Y-98898266D01*
X81351696Y-98908645D01*
X81344359Y-98911684D01*
X81344358Y-98911684D01*
X81344356Y-98911685D01*
X81309971Y-98918525D01*
X81274905Y-98918525D01*
X81240520Y-98911685D01*
X81240518Y-98911684D01*
X81240517Y-98911684D01*
X81233180Y-98908645D01*
X81208122Y-98898266D01*
X81178969Y-98878786D01*
X81154177Y-98853994D01*
X81152409Y-98851348D01*
X81136864Y-98832405D01*
X81117922Y-98816860D01*
X81096311Y-98805308D01*
X81072862Y-98798195D01*
X81048476Y-98795793D01*
X81024090Y-98798195D01*
X81000640Y-98805308D01*
X80979030Y-98816859D01*
X80960087Y-98832404D01*
X80944541Y-98851348D01*
X80942773Y-98853994D01*
X80917981Y-98878786D01*
X80888828Y-98898266D01*
X80863770Y-98908645D01*
X80856433Y-98911684D01*
X80856432Y-98911684D01*
X80856430Y-98911685D01*
X80822045Y-98918525D01*
X80786979Y-98918525D01*
X80752594Y-98911685D01*
X80752592Y-98911684D01*
X80752591Y-98911684D01*
X80745254Y-98908645D01*
X80720196Y-98898266D01*
X80691043Y-98878786D01*
X80666251Y-98853994D01*
X80646771Y-98824841D01*
X80635734Y-98798195D01*
X80633353Y-98792446D01*
X80626512Y-98758056D01*
X80626512Y-98722994D01*
X80633353Y-98688604D01*
X80643465Y-98664191D01*
X80646771Y-98656209D01*
X80666251Y-98627056D01*
X80691043Y-98602264D01*
X80720196Y-98582784D01*
X80745254Y-98572405D01*
X80752591Y-98569366D01*
X80752592Y-98569366D01*
X80752594Y-98569365D01*
X80786979Y-98562525D01*
X80822045Y-98562525D01*
X80856430Y-98569365D01*
X80856432Y-98569366D01*
X80856433Y-98569366D01*
X80863770Y-98572405D01*
X80888828Y-98582784D01*
X80917981Y-98602264D01*
X80942773Y-98627056D01*
X80944541Y-98629702D01*
X80960086Y-98648645D01*
X80979028Y-98664190D01*
X81000639Y-98675742D01*
X81024088Y-98682855D01*
X81048474Y-98685257D01*
X81072860Y-98682855D01*
X81096310Y-98675742D01*
X81117920Y-98664191D01*
X81136863Y-98648646D01*
X81152409Y-98629702D01*
X81154177Y-98627056D01*
X81178969Y-98602264D01*
X81208122Y-98582784D01*
X81233180Y-98572405D01*
X81240517Y-98569366D01*
X81240518Y-98569366D01*
X81240520Y-98569365D01*
X81274905Y-98562525D01*
X81309971Y-98562525D01*
X81344356Y-98569365D01*
X81344358Y-98569366D01*
X81344359Y-98569366D01*
X81351696Y-98572405D01*
X81376754Y-98582784D01*
X81405907Y-98602264D01*
X81430699Y-98627056D01*
X81432467Y-98629702D01*
X81448012Y-98648645D01*
X81466954Y-98664190D01*
X81488565Y-98675742D01*
X81512014Y-98682855D01*
X81536400Y-98685257D01*
X81560786Y-98682855D01*
X81584236Y-98675742D01*
X81605846Y-98664191D01*
X81624789Y-98648646D01*
X81640335Y-98629702D01*
X81642103Y-98627056D01*
X81666895Y-98602264D01*
X81696048Y-98582784D01*
X81721106Y-98572405D01*
X81728443Y-98569366D01*
X81728444Y-98569366D01*
X81728446Y-98569365D01*
X81762831Y-98562525D01*
X81797897Y-98562525D01*
X81832282Y-98569365D01*
X81832284Y-98569366D01*
X81832285Y-98569366D01*
X81839622Y-98572405D01*
X81864680Y-98582784D01*
X81893833Y-98602264D01*
X81918625Y-98627056D01*
X81920393Y-98629702D01*
X81935938Y-98648645D01*
X81954880Y-98664190D01*
X81976491Y-98675742D01*
X81999940Y-98682855D01*
X82024326Y-98685257D01*
X82048712Y-98682855D01*
X82072162Y-98675742D01*
X82093772Y-98664191D01*
X82112715Y-98648646D01*
X82128261Y-98629702D01*
X82130029Y-98627056D01*
X82154821Y-98602264D01*
X82183974Y-98582784D01*
X82209032Y-98572405D01*
X82216369Y-98569366D01*
X82216370Y-98569366D01*
X82216372Y-98569365D01*
X82250757Y-98562525D01*
X82285823Y-98562525D01*
X82320208Y-98569365D01*
X82320210Y-98569366D01*
X82320211Y-98569366D01*
X82327548Y-98572405D01*
X82352606Y-98582784D01*
X82381759Y-98602264D01*
X82406551Y-98627056D01*
X82408319Y-98629702D01*
X82423864Y-98648645D01*
X82442806Y-98664190D01*
X82464417Y-98675742D01*
X82487866Y-98682855D01*
X82512252Y-98685257D01*
X82536638Y-98682855D01*
X82560088Y-98675742D01*
X82581698Y-98664191D01*
X82600641Y-98648646D01*
X82616187Y-98629702D01*
X82617955Y-98627056D01*
X82642747Y-98602264D01*
X82671900Y-98582784D01*
X82696958Y-98572405D01*
X82704295Y-98569366D01*
X82704296Y-98569366D01*
X82704298Y-98569365D01*
X82738683Y-98562525D01*
X82773749Y-98562525D01*
X82808134Y-98569365D01*
X82808136Y-98569366D01*
X82808137Y-98569366D01*
X82815474Y-98572405D01*
X82840532Y-98582784D01*
X82869685Y-98602264D01*
X82894477Y-98627056D01*
X82896245Y-98629702D01*
X82911790Y-98648645D01*
X82930732Y-98664190D01*
X82952343Y-98675742D01*
X82975792Y-98682855D01*
X83000178Y-98685257D01*
X83024564Y-98682855D01*
X83048014Y-98675742D01*
X83069624Y-98664191D01*
X83088567Y-98648646D01*
X83104113Y-98629702D01*
X83105881Y-98627056D01*
X83130673Y-98602264D01*
X83159826Y-98582784D01*
X83184884Y-98572405D01*
X83192221Y-98569366D01*
X83192222Y-98569366D01*
X83192224Y-98569365D01*
X83226609Y-98562525D01*
X83261675Y-98562525D01*
X83296060Y-98569365D01*
X83296062Y-98569366D01*
X83296063Y-98569366D01*
X83303400Y-98572405D01*
X83328458Y-98582784D01*
X83357611Y-98602264D01*
X83382403Y-98627056D01*
X83384171Y-98629702D01*
X83399716Y-98648645D01*
X83418658Y-98664190D01*
X83440269Y-98675742D01*
X83463718Y-98682855D01*
X83488104Y-98685257D01*
X83512490Y-98682855D01*
X83535940Y-98675742D01*
X83557550Y-98664191D01*
X83576493Y-98648646D01*
X83592039Y-98629702D01*
X83593807Y-98627056D01*
X83618599Y-98602264D01*
X83647752Y-98582784D01*
X83672810Y-98572405D01*
X83680147Y-98569366D01*
X83680148Y-98569366D01*
X83680150Y-98569365D01*
X83714535Y-98562525D01*
X83749601Y-98562525D01*
X83783986Y-98569365D01*
X83783988Y-98569366D01*
X83783989Y-98569366D01*
X83791326Y-98572405D01*
X83816384Y-98582784D01*
X83845537Y-98602264D01*
X83870329Y-98627056D01*
X83872097Y-98629702D01*
X83887642Y-98648645D01*
X83906584Y-98664190D01*
X83928195Y-98675742D01*
X83951644Y-98682855D01*
X83976030Y-98685257D01*
X84000416Y-98682855D01*
X84023866Y-98675742D01*
X84045476Y-98664191D01*
X84064419Y-98648646D01*
X84079965Y-98629702D01*
X84081733Y-98627056D01*
X84106525Y-98602264D01*
X84135678Y-98582784D01*
X84160736Y-98572405D01*
X84168073Y-98569366D01*
X84168074Y-98569366D01*
X84168076Y-98569365D01*
X84202461Y-98562525D01*
X84237527Y-98562525D01*
X84271912Y-98569365D01*
X84271914Y-98569366D01*
X84271915Y-98569366D01*
X84279252Y-98572405D01*
X84304310Y-98582784D01*
X84333463Y-98602264D01*
X84358255Y-98627056D01*
X84360023Y-98629702D01*
X84375568Y-98648645D01*
X84394510Y-98664190D01*
X84416121Y-98675742D01*
X84439570Y-98682855D01*
X84463956Y-98685257D01*
X84488342Y-98682855D01*
X84511792Y-98675742D01*
X84533402Y-98664191D01*
X84552345Y-98648646D01*
X84567891Y-98629702D01*
X84569659Y-98627056D01*
X84594451Y-98602264D01*
X84623604Y-98582784D01*
X84648662Y-98572405D01*
X84655999Y-98569366D01*
X84656000Y-98569366D01*
X84656002Y-98569365D01*
X84690387Y-98562525D01*
X84725453Y-98562525D01*
X84759838Y-98569365D01*
X84759840Y-98569366D01*
X84759841Y-98569366D01*
X84767178Y-98572405D01*
X84792236Y-98582784D01*
X84821389Y-98602264D01*
X84846181Y-98627056D01*
X84847949Y-98629702D01*
X84863494Y-98648645D01*
X84882436Y-98664190D01*
X84904047Y-98675742D01*
X84927496Y-98682855D01*
X84951882Y-98685257D01*
X84976268Y-98682855D01*
X84999718Y-98675742D01*
X85021328Y-98664191D01*
X85040271Y-98648646D01*
X85055817Y-98629702D01*
X85057585Y-98627056D01*
X85082377Y-98602264D01*
X85111530Y-98582784D01*
X85136588Y-98572405D01*
X85143925Y-98569366D01*
X85143926Y-98569366D01*
X85143928Y-98569365D01*
X85178313Y-98562525D01*
X85213379Y-98562525D01*
X85247764Y-98569365D01*
X85247766Y-98569366D01*
X85247767Y-98569366D01*
X85255104Y-98572405D01*
X85280162Y-98582784D01*
X85309315Y-98602264D01*
X85334107Y-98627056D01*
X85335875Y-98629702D01*
X85351420Y-98648645D01*
X85370362Y-98664190D01*
X85391973Y-98675742D01*
X85415422Y-98682855D01*
X85439808Y-98685257D01*
X85464194Y-98682855D01*
X85487644Y-98675742D01*
X85509254Y-98664191D01*
X85528197Y-98648646D01*
X85543743Y-98629702D01*
X85545511Y-98627056D01*
X85570303Y-98602264D01*
X85599456Y-98582784D01*
X85624514Y-98572405D01*
X85631851Y-98569366D01*
X85631852Y-98569366D01*
X85631854Y-98569365D01*
X85666239Y-98562525D01*
X85701305Y-98562525D01*
X85735690Y-98569365D01*
X85735692Y-98569366D01*
X85735693Y-98569366D01*
X85745634Y-98573484D01*
X85755900Y-98577736D01*
X85779349Y-98584849D01*
X85795541Y-98586444D01*
X85800141Y-98597550D01*
X85813754Y-98617925D01*
X85821995Y-98627018D01*
X85822033Y-98627056D01*
X85823801Y-98629702D01*
X85839346Y-98648645D01*
X85858288Y-98664190D01*
X85879899Y-98675742D01*
X85903348Y-98682855D01*
X85927734Y-98685257D01*
X85952120Y-98682855D01*
X85975570Y-98675742D01*
X85997180Y-98664191D01*
X86016123Y-98648646D01*
X86031669Y-98629702D01*
X86036992Y-98621736D01*
X86044456Y-98612641D01*
X86056007Y-98591030D01*
X86063120Y-98567581D01*
X86065404Y-98544392D01*
X86279071Y-98544392D01*
X86281473Y-98568778D01*
X86288586Y-98592227D01*
X86300137Y-98613838D01*
X86305464Y-98620329D01*
X86311727Y-98629702D01*
X86327272Y-98648645D01*
X86346214Y-98664190D01*
X86367825Y-98675742D01*
X86391274Y-98682855D01*
X86415660Y-98685257D01*
X86440046Y-98682855D01*
X86463496Y-98675742D01*
X86485106Y-98664191D01*
X86504049Y-98648646D01*
X86519595Y-98629702D01*
X86525858Y-98620329D01*
X86531185Y-98613838D01*
X86542736Y-98592227D01*
X86549849Y-98568778D01*
X86552251Y-98544392D01*
X86766997Y-98544392D01*
X86769399Y-98568778D01*
X86776512Y-98592227D01*
X86788063Y-98613838D01*
X86793390Y-98620329D01*
X86799653Y-98629702D01*
X86815198Y-98648645D01*
X86834140Y-98664190D01*
X86855751Y-98675742D01*
X86879200Y-98682855D01*
X86903586Y-98685257D01*
X86927972Y-98682855D01*
X86951422Y-98675742D01*
X86973032Y-98664191D01*
X86991975Y-98648646D01*
X87007521Y-98629702D01*
X87013784Y-98620329D01*
X87019111Y-98613838D01*
X87030662Y-98592227D01*
X87037775Y-98568778D01*
X87040177Y-98544392D01*
X87037775Y-98520006D01*
X87030662Y-98496557D01*
X87019111Y-98474946D01*
X87003565Y-98456004D01*
X86984623Y-98440458D01*
X86963012Y-98428907D01*
X86939563Y-98421794D01*
X86915177Y-98419392D01*
X86891997Y-98419392D01*
X86867611Y-98421794D01*
X86844162Y-98428907D01*
X86822551Y-98440458D01*
X86803609Y-98456004D01*
X86788063Y-98474946D01*
X86776512Y-98496557D01*
X86769399Y-98520006D01*
X86766997Y-98544392D01*
X86552251Y-98544392D01*
X86549849Y-98520006D01*
X86542736Y-98496557D01*
X86531185Y-98474946D01*
X86515639Y-98456004D01*
X86496697Y-98440458D01*
X86475086Y-98428907D01*
X86451637Y-98421794D01*
X86427251Y-98419392D01*
X86404071Y-98419392D01*
X86379685Y-98421794D01*
X86356236Y-98428907D01*
X86334625Y-98440458D01*
X86315683Y-98456004D01*
X86300137Y-98474946D01*
X86288586Y-98496557D01*
X86281473Y-98520006D01*
X86279071Y-98544392D01*
X86065404Y-98544392D01*
X86065522Y-98543195D01*
X86063120Y-98518809D01*
X86056007Y-98495360D01*
X86044456Y-98473749D01*
X86028910Y-98454807D01*
X86009968Y-98439261D01*
X85988357Y-98427710D01*
X85952774Y-98418797D01*
X85938533Y-98417394D01*
X85922640Y-98414232D01*
X85917878Y-98414232D01*
X85913977Y-98403328D01*
X85905330Y-98387150D01*
X85902414Y-98377539D01*
X85900825Y-98361400D01*
X85900825Y-96848380D01*
X85902414Y-96832241D01*
X85904330Y-96825926D01*
X85909111Y-96801892D01*
X85909111Y-96777388D01*
X85904331Y-96753355D01*
X85901677Y-96746948D01*
X85901677Y-95388399D01*
X85907311Y-95369826D01*
X85909713Y-95345440D01*
X85907311Y-95321054D01*
X85904330Y-95309154D01*
X85902414Y-95302839D01*
X85900825Y-95286700D01*
X85900825Y-93773680D01*
X85902414Y-93757541D01*
X85905330Y-93747929D01*
X85910065Y-93739071D01*
X85916440Y-93731303D01*
X85924208Y-93724928D01*
X85933066Y-93720193D01*
X85942678Y-93717277D01*
X85958817Y-93715688D01*
X93446537Y-93715688D01*
X93462676Y-93717277D01*
X93462676Y-93717277D01*
G37*
G36*
X80794027Y-94120870D02*
X74215027Y-94120870D01*
X74215027Y-93134950D01*
X80794027Y-93134950D01*
X80794027Y-94120870D01*
X80794027Y-94120870D01*
G37*
G36*
X93462676Y-83958757D02*
X93472288Y-83961673D01*
X93481146Y-83966408D01*
X93488914Y-83972783D01*
X93495289Y-83980551D01*
X93500024Y-83989409D01*
X93502940Y-83999021D01*
X93504529Y-84015160D01*
X93504529Y-84552880D01*
X93502940Y-84569019D01*
X93500024Y-84578631D01*
X93495289Y-84587489D01*
X93488914Y-84595257D01*
X93481146Y-84601632D01*
X93472288Y-84606367D01*
X93462676Y-84609283D01*
X93446537Y-84610872D01*
X89129529Y-84610872D01*
X89105143Y-84613274D01*
X89081694Y-84620387D01*
X89060083Y-84631938D01*
X89041141Y-84647484D01*
X89025595Y-84666426D01*
X89014044Y-84688037D01*
X89006931Y-84711486D01*
X89004529Y-84735872D01*
X89004529Y-85528180D01*
X89002940Y-85544319D01*
X89000024Y-85553931D01*
X88995289Y-85562789D01*
X88988914Y-85570557D01*
X88981146Y-85576932D01*
X88972288Y-85581667D01*
X88962676Y-85584583D01*
X88946537Y-85586172D01*
X88823877Y-85586172D01*
X88799491Y-85588574D01*
X88776042Y-85595687D01*
X88754431Y-85607238D01*
X88735489Y-85622784D01*
X88719943Y-85641726D01*
X88708392Y-85663337D01*
X88701279Y-85686786D01*
X88698877Y-85711172D01*
X88698877Y-86906868D01*
X88701279Y-86931254D01*
X88708392Y-86954703D01*
X88719943Y-86976314D01*
X88735489Y-86995256D01*
X88754431Y-87010802D01*
X88776042Y-87022353D01*
X88799491Y-87029466D01*
X88823877Y-87031868D01*
X88946537Y-87031868D01*
X88962676Y-87033457D01*
X88972288Y-87036373D01*
X88981146Y-87041108D01*
X88988914Y-87047483D01*
X88995289Y-87055251D01*
X89000024Y-87064109D01*
X89002940Y-87073721D01*
X89004529Y-87089860D01*
X89004529Y-87882168D01*
X89006931Y-87906554D01*
X89014044Y-87930003D01*
X89025595Y-87951614D01*
X89041141Y-87970556D01*
X89060083Y-87986102D01*
X89081694Y-87997653D01*
X89105143Y-88004766D01*
X89129529Y-88007168D01*
X93446537Y-88007168D01*
X93462676Y-88008757D01*
X93472288Y-88011673D01*
X93481146Y-88016408D01*
X93488914Y-88022783D01*
X93495289Y-88030551D01*
X93500024Y-88039409D01*
X93502940Y-88049021D01*
X93504529Y-88065160D01*
X93504529Y-88602880D01*
X93502940Y-88619019D01*
X93500024Y-88628631D01*
X93495289Y-88637489D01*
X93488914Y-88645257D01*
X93481146Y-88651632D01*
X93472288Y-88656367D01*
X93462676Y-88659283D01*
X93446537Y-88660872D01*
X85958817Y-88660872D01*
X85942678Y-88659283D01*
X85933066Y-88656367D01*
X85924208Y-88651632D01*
X85916440Y-88645257D01*
X85910065Y-88637489D01*
X85905330Y-88628631D01*
X85902414Y-88619019D01*
X85900825Y-88602880D01*
X85900825Y-87089860D01*
X85902414Y-87073721D01*
X85904330Y-87067406D01*
X85909111Y-87043372D01*
X85909111Y-87018868D01*
X85904331Y-86994835D01*
X85901677Y-86988428D01*
X85901677Y-85629879D01*
X85907311Y-85611306D01*
X85909713Y-85586920D01*
X85907311Y-85562534D01*
X85904330Y-85550634D01*
X85902414Y-85544319D01*
X85900825Y-85528180D01*
X85900825Y-84015160D01*
X85902414Y-83999021D01*
X85905330Y-83989409D01*
X85910065Y-83980551D01*
X85916440Y-83972783D01*
X85924208Y-83966408D01*
X85933066Y-83961673D01*
X85942678Y-83958757D01*
X85958817Y-83957168D01*
X93446537Y-83957168D01*
X93462676Y-83958757D01*
X93462676Y-83958757D01*
G37*
G36*
X80794027Y-84362350D02*
X74215027Y-84362350D01*
X74215027Y-83376430D01*
X80794027Y-83376430D01*
X80794027Y-84362350D01*
X80794027Y-84362350D01*
G37*
G36*
X93462676Y-74200237D02*
X93472288Y-74203153D01*
X93481146Y-74207888D01*
X93488914Y-74214263D01*
X93495289Y-74222031D01*
X93500024Y-74230889D01*
X93502940Y-74240501D01*
X93504529Y-74256640D01*
X93504529Y-74794360D01*
X93502940Y-74810499D01*
X93500024Y-74820111D01*
X93495289Y-74828969D01*
X93488914Y-74836737D01*
X93481146Y-74843112D01*
X93472288Y-74847847D01*
X93462676Y-74850763D01*
X93446537Y-74852352D01*
X89129529Y-74852352D01*
X89105143Y-74854754D01*
X89081694Y-74861867D01*
X89060083Y-74873418D01*
X89041141Y-74888964D01*
X89025595Y-74907906D01*
X89014044Y-74929517D01*
X89006931Y-74952966D01*
X89004529Y-74977352D01*
X89004529Y-75769660D01*
X89002940Y-75785799D01*
X89000024Y-75795411D01*
X88995289Y-75804269D01*
X88988914Y-75812037D01*
X88981146Y-75818412D01*
X88972288Y-75823147D01*
X88962676Y-75826063D01*
X88946537Y-75827652D01*
X88823877Y-75827652D01*
X88799491Y-75830054D01*
X88776042Y-75837167D01*
X88754431Y-75848718D01*
X88735489Y-75864264D01*
X88719943Y-75883206D01*
X88708392Y-75904817D01*
X88701279Y-75928266D01*
X88698877Y-75952652D01*
X88698877Y-77148348D01*
X88701279Y-77172734D01*
X88708392Y-77196183D01*
X88719943Y-77217794D01*
X88735489Y-77236736D01*
X88754431Y-77252282D01*
X88776042Y-77263833D01*
X88799491Y-77270946D01*
X88823877Y-77273348D01*
X88946537Y-77273348D01*
X88962676Y-77274937D01*
X88972288Y-77277853D01*
X88981146Y-77282588D01*
X88988914Y-77288963D01*
X88995289Y-77296731D01*
X89000024Y-77305589D01*
X89002940Y-77315201D01*
X89004529Y-77331340D01*
X89004529Y-78123648D01*
X89006931Y-78148034D01*
X89014044Y-78171483D01*
X89025595Y-78193094D01*
X89041141Y-78212036D01*
X89060083Y-78227582D01*
X89081694Y-78239133D01*
X89105143Y-78246246D01*
X89129529Y-78248648D01*
X93446537Y-78248648D01*
X93462676Y-78250237D01*
X93472288Y-78253153D01*
X93481146Y-78257888D01*
X93488914Y-78264263D01*
X93495289Y-78272031D01*
X93500024Y-78280889D01*
X93502940Y-78290501D01*
X93504529Y-78306640D01*
X93504529Y-78844360D01*
X93502940Y-78860499D01*
X93500024Y-78870111D01*
X93495289Y-78878969D01*
X93488914Y-78886737D01*
X93481146Y-78893112D01*
X93472288Y-78897847D01*
X93462676Y-78900763D01*
X93446537Y-78902352D01*
X85958817Y-78902352D01*
X85942678Y-78900763D01*
X85933066Y-78897847D01*
X85924208Y-78893112D01*
X85916440Y-78886737D01*
X85910065Y-78878969D01*
X85905330Y-78870111D01*
X85902414Y-78860499D01*
X85900825Y-78844360D01*
X85900825Y-77331340D01*
X85902414Y-77315201D01*
X85904330Y-77308886D01*
X85909111Y-77284852D01*
X85909111Y-77260348D01*
X85904331Y-77236315D01*
X85901677Y-77229908D01*
X85901677Y-75871359D01*
X85907311Y-75852786D01*
X85909713Y-75828400D01*
X85907311Y-75804014D01*
X85904330Y-75792114D01*
X85902414Y-75785799D01*
X85900825Y-75769660D01*
X85900825Y-74256640D01*
X85902414Y-74240501D01*
X85905330Y-74230889D01*
X85910065Y-74222031D01*
X85916440Y-74214263D01*
X85924208Y-74207888D01*
X85933066Y-74203153D01*
X85942678Y-74200237D01*
X85958817Y-74198648D01*
X93446537Y-74198648D01*
X93462676Y-74200237D01*
X93462676Y-74200237D01*
G37*
G36*
X80794027Y-74603833D02*
X74215027Y-74603833D01*
X74215027Y-73617913D01*
X80794027Y-73617913D01*
X80794027Y-74603833D01*
X80794027Y-74603833D01*
G37*
G36*
X93462676Y-64441717D02*
X93472288Y-64444633D01*
X93481146Y-64449368D01*
X93488914Y-64455743D01*
X93495289Y-64463511D01*
X93500024Y-64472369D01*
X93502940Y-64481981D01*
X93504529Y-64498120D01*
X93504529Y-65035840D01*
X93502940Y-65051979D01*
X93500024Y-65061591D01*
X93495289Y-65070449D01*
X93488914Y-65078217D01*
X93481146Y-65084592D01*
X93472288Y-65089327D01*
X93462676Y-65092243D01*
X93446537Y-65093832D01*
X89129529Y-65093832D01*
X89105143Y-65096234D01*
X89081694Y-65103347D01*
X89060083Y-65114898D01*
X89041141Y-65130444D01*
X89025595Y-65149386D01*
X89014044Y-65170997D01*
X89006931Y-65194446D01*
X89004529Y-65218832D01*
X89004529Y-66011140D01*
X89002940Y-66027279D01*
X89000024Y-66036891D01*
X88995289Y-66045749D01*
X88988914Y-66053517D01*
X88981146Y-66059892D01*
X88972288Y-66064627D01*
X88962676Y-66067543D01*
X88946537Y-66069132D01*
X88823877Y-66069132D01*
X88799491Y-66071534D01*
X88776042Y-66078647D01*
X88754431Y-66090198D01*
X88735489Y-66105744D01*
X88719943Y-66124686D01*
X88708392Y-66146297D01*
X88701279Y-66169746D01*
X88698877Y-66194132D01*
X88698877Y-67389828D01*
X88701279Y-67414214D01*
X88708392Y-67437663D01*
X88719943Y-67459274D01*
X88735489Y-67478216D01*
X88754431Y-67493762D01*
X88776042Y-67505313D01*
X88799491Y-67512426D01*
X88823877Y-67514828D01*
X88946537Y-67514828D01*
X88962676Y-67516417D01*
X88972288Y-67519333D01*
X88981146Y-67524068D01*
X88988914Y-67530443D01*
X88995289Y-67538211D01*
X89000024Y-67547069D01*
X89002940Y-67556681D01*
X89004529Y-67572820D01*
X89004529Y-68365128D01*
X89006931Y-68389514D01*
X89014044Y-68412963D01*
X89025595Y-68434574D01*
X89041141Y-68453516D01*
X89060083Y-68469062D01*
X89081694Y-68480613D01*
X89105143Y-68487726D01*
X89129529Y-68490128D01*
X93446537Y-68490128D01*
X93462676Y-68491717D01*
X93472288Y-68494633D01*
X93481146Y-68499368D01*
X93488914Y-68505743D01*
X93495289Y-68513511D01*
X93500024Y-68522369D01*
X93502940Y-68531981D01*
X93504529Y-68548120D01*
X93504529Y-69085840D01*
X93502940Y-69101979D01*
X93500024Y-69111591D01*
X93495289Y-69120449D01*
X93488914Y-69128217D01*
X93481146Y-69134592D01*
X93472288Y-69139327D01*
X93462676Y-69142243D01*
X93446537Y-69143832D01*
X85958817Y-69143832D01*
X85942678Y-69142243D01*
X85933066Y-69139327D01*
X85924208Y-69134592D01*
X85916440Y-69128217D01*
X85910065Y-69120449D01*
X85905330Y-69111591D01*
X85902414Y-69101979D01*
X85900825Y-69085840D01*
X85900825Y-67572820D01*
X85902414Y-67556681D01*
X85904330Y-67550366D01*
X85909111Y-67526332D01*
X85909111Y-67501828D01*
X85904331Y-67477795D01*
X85901677Y-67471388D01*
X85901677Y-66112839D01*
X85907311Y-66094266D01*
X85909713Y-66069880D01*
X85907311Y-66045494D01*
X85904330Y-66033594D01*
X85902414Y-66027279D01*
X85900825Y-66011140D01*
X85900825Y-64498120D01*
X85902414Y-64481981D01*
X85905330Y-64472369D01*
X85910065Y-64463511D01*
X85916440Y-64455743D01*
X85924208Y-64449368D01*
X85933066Y-64444633D01*
X85942678Y-64441717D01*
X85958817Y-64440128D01*
X93446537Y-64440128D01*
X93462676Y-64441717D01*
X93462676Y-64441717D01*
G37*
G36*
X80794027Y-64845313D02*
X74215027Y-64845313D01*
X74215027Y-63859393D01*
X80794027Y-63859393D01*
X80794027Y-64845313D01*
X80794027Y-64845313D01*
G37*
G36*
X93462676Y-54683197D02*
X93472288Y-54686113D01*
X93481146Y-54690848D01*
X93488914Y-54697223D01*
X93495289Y-54704991D01*
X93500024Y-54713849D01*
X93502940Y-54723461D01*
X93504529Y-54739600D01*
X93504529Y-55277320D01*
X93502940Y-55293459D01*
X93500024Y-55303071D01*
X93495289Y-55311929D01*
X93488914Y-55319697D01*
X93481146Y-55326072D01*
X93472288Y-55330807D01*
X93462676Y-55333723D01*
X93446537Y-55335312D01*
X89129529Y-55335312D01*
X89105143Y-55337714D01*
X89081694Y-55344827D01*
X89060083Y-55356378D01*
X89041141Y-55371924D01*
X89025595Y-55390866D01*
X89014044Y-55412477D01*
X89006931Y-55435926D01*
X89004529Y-55460312D01*
X89004529Y-56252620D01*
X89002940Y-56268759D01*
X89000024Y-56278371D01*
X88995289Y-56287229D01*
X88988914Y-56294997D01*
X88981146Y-56301372D01*
X88972288Y-56306107D01*
X88962676Y-56309023D01*
X88946537Y-56310612D01*
X88823877Y-56310612D01*
X88799491Y-56313014D01*
X88776042Y-56320127D01*
X88754431Y-56331678D01*
X88735489Y-56347224D01*
X88719943Y-56366166D01*
X88708392Y-56387777D01*
X88701279Y-56411226D01*
X88698877Y-56435612D01*
X88698877Y-57631308D01*
X88701279Y-57655694D01*
X88708392Y-57679143D01*
X88719943Y-57700754D01*
X88735489Y-57719696D01*
X88754431Y-57735242D01*
X88776042Y-57746793D01*
X88799491Y-57753906D01*
X88823877Y-57756308D01*
X88946537Y-57756308D01*
X88962676Y-57757897D01*
X88972288Y-57760813D01*
X88981146Y-57765548D01*
X88988914Y-57771923D01*
X88995289Y-57779691D01*
X89000024Y-57788549D01*
X89002940Y-57798161D01*
X89004529Y-57814300D01*
X89004529Y-58606608D01*
X89006931Y-58630994D01*
X89014044Y-58654443D01*
X89025595Y-58676054D01*
X89041141Y-58694996D01*
X89060083Y-58710542D01*
X89081694Y-58722093D01*
X89105143Y-58729206D01*
X89129529Y-58731608D01*
X93446537Y-58731608D01*
X93462676Y-58733197D01*
X93472288Y-58736113D01*
X93481146Y-58740848D01*
X93488914Y-58747223D01*
X93495289Y-58754991D01*
X93500024Y-58763849D01*
X93502940Y-58773461D01*
X93504529Y-58789600D01*
X93504529Y-59327320D01*
X93502940Y-59343459D01*
X93500024Y-59353071D01*
X93495289Y-59361929D01*
X93488914Y-59369697D01*
X93481146Y-59376072D01*
X93472288Y-59380807D01*
X93462676Y-59383723D01*
X93446537Y-59385312D01*
X85958817Y-59385312D01*
X85942678Y-59383723D01*
X85933066Y-59380807D01*
X85924208Y-59376072D01*
X85916440Y-59369697D01*
X85910065Y-59361929D01*
X85905330Y-59353071D01*
X85902414Y-59343459D01*
X85900825Y-59327320D01*
X85900825Y-57814300D01*
X85902414Y-57798161D01*
X85904330Y-57791846D01*
X85909111Y-57767812D01*
X85909111Y-57743308D01*
X85904331Y-57719275D01*
X85901677Y-57712868D01*
X85901677Y-56354319D01*
X85907311Y-56335746D01*
X85909713Y-56311360D01*
X85907311Y-56286974D01*
X85904330Y-56275074D01*
X85902414Y-56268759D01*
X85900825Y-56252620D01*
X85900825Y-54739600D01*
X85902414Y-54723461D01*
X85905330Y-54713849D01*
X85910065Y-54704991D01*
X85916440Y-54697223D01*
X85924208Y-54690848D01*
X85933066Y-54686113D01*
X85942678Y-54683197D01*
X85958817Y-54681608D01*
X93446537Y-54681608D01*
X93462676Y-54683197D01*
X93462676Y-54683197D01*
G37*
G36*
X80794027Y-55086787D02*
X74215027Y-55086787D01*
X74215027Y-54100867D01*
X80794027Y-54100867D01*
X80794027Y-55086787D01*
X80794027Y-55086787D01*
G37*
M02*
