M48
;DRILL file {KiCad (5.0.2)-1} date 9/4/2019 12:37:02 PM
;FORMAT={-:-/ absolute / inch / decimal}
FMAT,2
INCH,TZ
T1C0.0100
%
G90
G05
T1
X3.431Y-3.9649
X3.431Y-3.8874
X3.2005Y-3.9649
X3.2389Y-3.8874
X3.3926Y-3.9649
X3.2581Y-3.9649
X3.1813Y-3.9649
X3.4118Y-3.9649
X3.2965Y-3.9649
X3.3157Y-3.8874
X3.3734Y-3.8874
X3.3734Y-3.9649
X3.2005Y-3.8874
X3.2965Y-3.8874
X3.4118Y-3.8874
X3.2581Y-3.8874
X3.2197Y-3.8874
X3.335Y-3.9649
X3.335Y-3.8874
X3.3542Y-3.9649
X3.2389Y-3.9649
X3.2773Y-3.9649
X3.3926Y-3.8874
X3.3157Y-3.9649
X3.2197Y-3.9649
X3.3542Y-3.8874
X3.2773Y-3.8874
X3.1813Y-3.8874
T0
M30
