G04 #@! TF.GenerationSoftware,KiCad,Pcbnew,(5.0.2)-1*
G04 #@! TF.CreationDate,2019-09-03T12:36:00-04:00*
G04 #@! TF.ProjectId,MMCX_2DD-100P,4d4d4358-5f32-4444-942d-313030502e6b,rev?*
G04 #@! TF.SameCoordinates,Original*
G04 #@! TF.FileFunction,Copper,L1,Top*
G04 #@! TF.FilePolarity,Positive*
%FSLAX46Y46*%
G04 Gerber Fmt 4.6, Leading zero omitted, Abs format (unit mm)*
G04 Created by KiCad (PCBNEW (5.0.2)-1) date 9/3/2019 12:36:00 PM*
%MOMM*%
%LPD*%
G01*
G04 APERTURE LIST*
G04 #@! TA.AperFunction,SMDPad,CuDef*
%ADD10R,6.477000X0.883920*%
G04 #@! TD*
G04 #@! TA.AperFunction,SMDPad,CuDef*
%ADD11R,2.695200X1.092200*%
G04 #@! TD*
G04 #@! TA.AperFunction,SMDPad,CuDef*
%ADD12C,1.525300*%
G04 #@! TD*
G04 #@! TA.AperFunction,Conductor*
%ADD13C,0.100000*%
G04 #@! TD*
G04 #@! TA.AperFunction,ViaPad*
%ADD14C,0.800000*%
G04 #@! TD*
G04 #@! TA.AperFunction,Conductor*
%ADD15C,0.896620*%
G04 #@! TD*
G04 #@! TA.AperFunction,Conductor*
%ADD16C,0.250000*%
G04 #@! TD*
G04 #@! TA.AperFunction,Conductor*
%ADD17C,0.660400*%
G04 #@! TD*
G04 #@! TA.AperFunction,Conductor*
%ADD18C,0.152400*%
G04 #@! TD*
G04 APERTURE END LIST*
D10*
G04 #@! TO.P,J2,3*
G04 #@! TO.N,Net-(J1-Pad2)*
X156012153Y-30954029D03*
G04 #@! TO.P,J2,2*
G04 #@! TO.N,Net-(J2-Pad2)*
X156012153Y-29002319D03*
G04 #@! TD*
G04 #@! TO.P,J5,3*
G04 #@! TO.N,Net-(J4-Pad2)*
X156012153Y-40712547D03*
G04 #@! TO.P,J5,2*
G04 #@! TO.N,Net-(J5-Pad2)*
X156012153Y-38760837D03*
G04 #@! TD*
G04 #@! TO.P,J8,3*
G04 #@! TO.N,Net-(J7-Pad2)*
X156012153Y-50471067D03*
G04 #@! TO.P,J8,2*
G04 #@! TO.N,Net-(J8-Pad2)*
X156012153Y-48519357D03*
G04 #@! TD*
G04 #@! TO.P,J11,3*
G04 #@! TO.N,Net-(J10-Pad2)*
X156012153Y-60229589D03*
G04 #@! TO.P,J11,2*
G04 #@! TO.N,Net-(J11-Pad2)*
X156012153Y-58277879D03*
G04 #@! TD*
G04 #@! TO.P,J14,3*
G04 #@! TO.N,Net-(J13-Pad2)*
X156012153Y-69988112D03*
G04 #@! TO.P,J14,2*
G04 #@! TO.N,Net-(J14-Pad2)*
X156012153Y-68036402D03*
G04 #@! TD*
D11*
G04 #@! TO.P,J3,1*
G04 #@! TO.N,Net-(J2-Pad2)*
X146393385Y-24610985D03*
D12*
G04 #@! TO.P,J3,2*
G04 #@! TO.N,Net-(J1-Pad2)*
X146240985Y-23073635D03*
D13*
G04 #@! TD*
G04 #@! TO.N,Net-(J1-Pad2)*
G04 #@! TO.C,J3*
G36*
X147740985Y-23836285D02*
X144740985Y-23836285D01*
X144740985Y-22860985D01*
X140240985Y-22860985D01*
X140240985Y-22310985D01*
X147740985Y-22310985D01*
X147740985Y-23836285D01*
X147740985Y-23836285D01*
G37*
D12*
G04 #@! TO.P,J3,2*
G04 #@! TO.N,Net-(J1-Pad2)*
X146240985Y-26148335D03*
D13*
G04 #@! TD*
G04 #@! TO.N,Net-(J1-Pad2)*
G04 #@! TO.C,J3*
G36*
X147740985Y-26910985D02*
X140240985Y-26910985D01*
X140240985Y-26360985D01*
X144740985Y-26360985D01*
X144740985Y-25385685D01*
X147740985Y-25385685D01*
X147740985Y-26910985D01*
X147740985Y-26910985D01*
G37*
D12*
G04 #@! TO.P,J6,2*
G04 #@! TO.N,Net-(J4-Pad2)*
X146240985Y-35906855D03*
D13*
G04 #@! TD*
G04 #@! TO.N,Net-(J4-Pad2)*
G04 #@! TO.C,J6*
G36*
X147740985Y-36669505D02*
X140240985Y-36669505D01*
X140240985Y-36119505D01*
X144740985Y-36119505D01*
X144740985Y-35144205D01*
X147740985Y-35144205D01*
X147740985Y-36669505D01*
X147740985Y-36669505D01*
G37*
D12*
G04 #@! TO.P,J6,2*
G04 #@! TO.N,Net-(J4-Pad2)*
X146240985Y-32832155D03*
D13*
G04 #@! TD*
G04 #@! TO.N,Net-(J4-Pad2)*
G04 #@! TO.C,J6*
G36*
X147740985Y-33594805D02*
X144740985Y-33594805D01*
X144740985Y-32619505D01*
X140240985Y-32619505D01*
X140240985Y-32069505D01*
X147740985Y-32069505D01*
X147740985Y-33594805D01*
X147740985Y-33594805D01*
G37*
D11*
G04 #@! TO.P,J6,1*
G04 #@! TO.N,Net-(J5-Pad2)*
X146393385Y-34369505D03*
G04 #@! TD*
D12*
G04 #@! TO.P,J9,2*
G04 #@! TO.N,Net-(J7-Pad2)*
X146240985Y-45665375D03*
D13*
G04 #@! TD*
G04 #@! TO.N,Net-(J7-Pad2)*
G04 #@! TO.C,J9*
G36*
X147740985Y-46428025D02*
X140240985Y-46428025D01*
X140240985Y-45878025D01*
X144740985Y-45878025D01*
X144740985Y-44902725D01*
X147740985Y-44902725D01*
X147740985Y-46428025D01*
X147740985Y-46428025D01*
G37*
D12*
G04 #@! TO.P,J9,2*
G04 #@! TO.N,Net-(J7-Pad2)*
X146240985Y-42590675D03*
D13*
G04 #@! TD*
G04 #@! TO.N,Net-(J7-Pad2)*
G04 #@! TO.C,J9*
G36*
X147740985Y-43353325D02*
X144740985Y-43353325D01*
X144740985Y-42378025D01*
X140240985Y-42378025D01*
X140240985Y-41828025D01*
X147740985Y-41828025D01*
X147740985Y-43353325D01*
X147740985Y-43353325D01*
G37*
D11*
G04 #@! TO.P,J9,1*
G04 #@! TO.N,Net-(J8-Pad2)*
X146393385Y-44128025D03*
G04 #@! TD*
D12*
G04 #@! TO.P,J12,2*
G04 #@! TO.N,Net-(J10-Pad2)*
X146240985Y-55423895D03*
D13*
G04 #@! TD*
G04 #@! TO.N,Net-(J10-Pad2)*
G04 #@! TO.C,J12*
G36*
X147740985Y-56186545D02*
X140240985Y-56186545D01*
X140240985Y-55636545D01*
X144740985Y-55636545D01*
X144740985Y-54661245D01*
X147740985Y-54661245D01*
X147740985Y-56186545D01*
X147740985Y-56186545D01*
G37*
D12*
G04 #@! TO.P,J12,2*
G04 #@! TO.N,Net-(J10-Pad2)*
X146240985Y-52349195D03*
D13*
G04 #@! TD*
G04 #@! TO.N,Net-(J10-Pad2)*
G04 #@! TO.C,J12*
G36*
X147740985Y-53111845D02*
X144740985Y-53111845D01*
X144740985Y-52136545D01*
X140240985Y-52136545D01*
X140240985Y-51586545D01*
X147740985Y-51586545D01*
X147740985Y-53111845D01*
X147740985Y-53111845D01*
G37*
D11*
G04 #@! TO.P,J12,1*
G04 #@! TO.N,Net-(J11-Pad2)*
X146393385Y-53886545D03*
G04 #@! TD*
D12*
G04 #@! TO.P,J15,2*
G04 #@! TO.N,Net-(J13-Pad2)*
X146240985Y-65182415D03*
D13*
G04 #@! TD*
G04 #@! TO.N,Net-(J13-Pad2)*
G04 #@! TO.C,J15*
G36*
X147740985Y-65945065D02*
X140240985Y-65945065D01*
X140240985Y-65395065D01*
X144740985Y-65395065D01*
X144740985Y-64419765D01*
X147740985Y-64419765D01*
X147740985Y-65945065D01*
X147740985Y-65945065D01*
G37*
D12*
G04 #@! TO.P,J15,2*
G04 #@! TO.N,Net-(J13-Pad2)*
X146240985Y-62107715D03*
D13*
G04 #@! TD*
G04 #@! TO.N,Net-(J13-Pad2)*
G04 #@! TO.C,J15*
G36*
X147740985Y-62870365D02*
X144740985Y-62870365D01*
X144740985Y-61895065D01*
X140240985Y-61895065D01*
X140240985Y-61345065D01*
X147740985Y-61345065D01*
X147740985Y-62870365D01*
X147740985Y-62870365D01*
G37*
D11*
G04 #@! TO.P,J15,1*
G04 #@! TO.N,Net-(J14-Pad2)*
X146393385Y-63645065D03*
G04 #@! TD*
D14*
G04 #@! TO.N,Net-(J1-Pad2)*
X155701209Y-27050615D03*
X158140839Y-27050615D03*
X148382319Y-28026467D03*
X153261579Y-27050615D03*
X148382319Y-23147201D03*
X153261579Y-31929875D03*
X155701209Y-31929875D03*
X158140839Y-31929875D03*
X148382319Y-30954023D03*
X148382319Y-26148335D03*
X149846097Y-24610985D03*
X151797801Y-31441949D03*
X150334023Y-30954023D03*
X151309875Y-26074763D03*
X149846097Y-27538541D03*
X150821949Y-28514393D03*
G04 #@! TO.N,Net-(J4-Pad2)*
X158140839Y-36809135D03*
X155701209Y-36809135D03*
X153261579Y-36809135D03*
X153261579Y-41688395D03*
X155701209Y-41688395D03*
X158140839Y-41688395D03*
X148382319Y-32905727D03*
X148382319Y-37784987D03*
X148382319Y-40761159D03*
X148382319Y-35833283D03*
X149846097Y-34369505D03*
X151797801Y-41200469D03*
X150334023Y-40712543D03*
X151309875Y-35833283D03*
X149846097Y-37297061D03*
X150821949Y-38272913D03*
G04 #@! TO.N,Net-(J7-Pad2)*
X153261579Y-46567655D03*
X155701209Y-46567655D03*
X158140839Y-46567655D03*
X153261579Y-51446915D03*
X155701209Y-51446915D03*
X158140839Y-51446915D03*
X148382319Y-42664247D03*
X148382319Y-47543507D03*
X148382319Y-45591803D03*
X151797801Y-50958989D03*
X150334023Y-50471063D03*
X149846097Y-44128025D03*
X151309875Y-45591803D03*
X149846097Y-47055581D03*
X150821949Y-48031433D03*
X148382319Y-50519709D03*
G04 #@! TO.N,Net-(J10-Pad2)*
X155701209Y-56326175D03*
X158140839Y-56326175D03*
X153261579Y-56326175D03*
X153261579Y-61205435D03*
X155701209Y-61205435D03*
X158140839Y-61205435D03*
X148382319Y-57302027D03*
X148382337Y-60303155D03*
X148382337Y-52422866D03*
X148382319Y-55350323D03*
X151309875Y-55350323D03*
X150334023Y-60229583D03*
X149846097Y-53886545D03*
X150821949Y-57789953D03*
X149846097Y-56814101D03*
X151797801Y-60717509D03*
G04 #@! TO.N,Net-(J13-Pad2)*
X153261579Y-66084695D03*
X158140839Y-66084695D03*
X151309875Y-65108843D03*
X153261579Y-70963955D03*
X155701209Y-70963955D03*
X158140839Y-70963955D03*
X148382319Y-67060547D03*
X148382337Y-62181441D03*
X148382337Y-70036809D03*
X148308931Y-65182415D03*
X150334023Y-69988103D03*
X149846097Y-63645065D03*
X155701209Y-66084695D03*
X150821949Y-67548473D03*
X149846097Y-66572621D03*
X151797801Y-70476029D03*
G04 #@! TD*
D15*
G04 #@! TO.N,Net-(J1-Pad2)*
X146240985Y-26148335D02*
X146240985Y-27836841D01*
X146240985Y-26148335D02*
X148308771Y-26148335D01*
X148308771Y-26148335D02*
X148308771Y-26148335D01*
X146314551Y-23147201D02*
X146240985Y-23073635D01*
X148382319Y-23147201D02*
X146314551Y-23147201D01*
X149846097Y-24555291D02*
X149873944Y-24583138D01*
X148382319Y-23147201D02*
X148438008Y-23147201D01*
X148438008Y-23147201D02*
X149846097Y-24555291D01*
D16*
G04 #@! TO.N,Net-(J4-Pad2)*
X146592695Y-36321245D02*
X146240985Y-35969535D01*
D17*
X146346115Y-36321245D02*
X146240985Y-36216115D01*
D15*
X146240985Y-35906855D02*
X146240985Y-37595401D01*
X146314591Y-32905761D02*
X146240985Y-32832155D01*
X146240985Y-35906855D02*
X148308747Y-35906855D01*
X146314557Y-32905727D02*
X146240985Y-32832155D01*
X148382319Y-32905727D02*
X146314557Y-32905727D01*
X148827363Y-33295077D02*
X149873944Y-34341658D01*
X148382319Y-32905727D02*
X148438013Y-32905727D01*
X148438013Y-32905727D02*
X148827363Y-33295077D01*
D17*
G04 #@! TO.N,Net-(J7-Pad2)*
X146346115Y-46079795D02*
X146240985Y-45974665D01*
D15*
X146240985Y-45665375D02*
X146240985Y-47353961D01*
X146240985Y-45665375D02*
X148308851Y-45665375D01*
X148308851Y-45665375D02*
X148308851Y-45665375D01*
X146314623Y-42664313D02*
X146240985Y-42590675D01*
X146314557Y-42664247D02*
X146240985Y-42590675D01*
X148382319Y-42664247D02*
X146314557Y-42664247D01*
X148827365Y-43053597D02*
X149873945Y-44100177D01*
X148382319Y-42664247D02*
X148438015Y-42664247D01*
X148438015Y-42664247D02*
X148827365Y-43053597D01*
D17*
G04 #@! TO.N,Net-(J10-Pad2)*
X146346115Y-55838345D02*
X146240985Y-55733215D01*
D15*
X146240985Y-55423895D02*
X146240985Y-57112521D01*
X146240985Y-55423895D02*
X148308891Y-55423895D01*
X148308891Y-55423895D02*
X148308891Y-55423895D01*
X146314656Y-52422866D02*
X146240985Y-52349195D01*
X148382337Y-52422866D02*
X146314656Y-52422866D01*
X149846097Y-53830851D02*
X149873944Y-53858698D01*
X148382337Y-52422866D02*
X148438113Y-52422866D01*
X148438113Y-52422866D02*
X149846097Y-53830851D01*
G04 #@! TO.N,Net-(J13-Pad2)*
X146240985Y-65182415D02*
X146240985Y-67846937D01*
X146240985Y-65182415D02*
X148308931Y-65182415D01*
X148308931Y-65182415D02*
X148308931Y-65182415D01*
X146314711Y-62181441D02*
X146240985Y-62107715D01*
X148382337Y-62181441D02*
X146314711Y-62181441D01*
X149846097Y-63589374D02*
X149873942Y-63617219D01*
X148382337Y-62181441D02*
X148438165Y-62181441D01*
X148438165Y-62181441D02*
X149846097Y-63589374D01*
X158140839Y-70963955D02*
X155701209Y-70963955D01*
X155701209Y-70963955D02*
X153261579Y-70963955D01*
X152285727Y-70963955D02*
X151797801Y-70476029D01*
X153261579Y-70963955D02*
X152285727Y-70963955D01*
G04 #@! TO.N,Net-(J2-Pad2)*
X148382319Y-24610985D02*
X146393385Y-24610985D01*
X152773653Y-29002319D02*
X148382319Y-24610985D01*
G04 #@! TO.N,Net-(J5-Pad2)*
X152773653Y-38760837D02*
X152773651Y-38760837D01*
X148382319Y-34369505D02*
X146393385Y-34369505D01*
X152773651Y-38760837D02*
X148382319Y-34369505D01*
G04 #@! TO.N,Net-(J8-Pad2)*
X148382321Y-44128025D02*
X146393385Y-44128025D01*
X152773653Y-48519357D02*
X148382321Y-44128025D01*
G04 #@! TO.N,Net-(J11-Pad2)*
X148382319Y-53886545D02*
X146393385Y-53886545D01*
X152773653Y-58277879D02*
X148382319Y-53886545D01*
G04 #@! TO.N,Net-(J14-Pad2)*
X152773653Y-68036402D02*
X152773653Y-68036399D01*
X148382316Y-63645065D02*
X146393385Y-63645065D01*
X152773653Y-68036402D02*
X148382316Y-63645065D01*
G04 #@! TD*
D18*
G04 #@! TO.N,Net-(J1-Pad2)*
G36*
X152267277Y-29561001D02*
X152353223Y-29631535D01*
X152484055Y-29701467D01*
X152626017Y-29744530D01*
X152773652Y-29759071D01*
X152860136Y-29750553D01*
X158890900Y-29750553D01*
X158890900Y-30207269D01*
X156266153Y-30207269D01*
X156189953Y-30283469D01*
X156189953Y-30776229D01*
X156209953Y-30776229D01*
X156209953Y-31131829D01*
X156189953Y-31131829D01*
X156189953Y-31624589D01*
X156266153Y-31700789D01*
X158890900Y-31700789D01*
X158890900Y-32341601D01*
X148937756Y-32341601D01*
X148858442Y-32276510D01*
X148727610Y-32206578D01*
X148585648Y-32163515D01*
X148475000Y-32152617D01*
X148474990Y-32152617D01*
X148438013Y-32148975D01*
X148401036Y-32152617D01*
X148047260Y-32152617D01*
X148047260Y-32069505D01*
X148041375Y-32009754D01*
X148023946Y-31952299D01*
X147995643Y-31899348D01*
X147957554Y-31852936D01*
X147911142Y-31814847D01*
X147858191Y-31786544D01*
X147800736Y-31769115D01*
X147740985Y-31763230D01*
X140620800Y-31763230D01*
X140620800Y-31620063D01*
X144722349Y-31620063D01*
X144741000Y-31621900D01*
X144815454Y-31614567D01*
X144887046Y-31592850D01*
X144953026Y-31557583D01*
X145010858Y-31510121D01*
X145058320Y-31452289D01*
X145093587Y-31386309D01*
X145115304Y-31314717D01*
X145120800Y-31258915D01*
X145122637Y-31240263D01*
X145120800Y-31221611D01*
X145120800Y-31208029D01*
X152468853Y-31208029D01*
X152468853Y-31426009D01*
X152480566Y-31484896D01*
X152503543Y-31540366D01*
X152536900Y-31590288D01*
X152579354Y-31632743D01*
X152629276Y-31666099D01*
X152684746Y-31689076D01*
X152743633Y-31700789D01*
X155758153Y-31700789D01*
X155834353Y-31624589D01*
X155834353Y-31131829D01*
X152545053Y-31131829D01*
X152468853Y-31208029D01*
X145120800Y-31208029D01*
X145120800Y-30482049D01*
X152468853Y-30482049D01*
X152468853Y-30700029D01*
X152545053Y-30776229D01*
X155834353Y-30776229D01*
X155834353Y-30283469D01*
X155758153Y-30207269D01*
X152743633Y-30207269D01*
X152684746Y-30218982D01*
X152629276Y-30241959D01*
X152579354Y-30275315D01*
X152536900Y-30317770D01*
X152503543Y-30367692D01*
X152480566Y-30423162D01*
X152468853Y-30482049D01*
X145120800Y-30482049D01*
X145120800Y-27758915D01*
X145122637Y-27740263D01*
X145115304Y-27665809D01*
X145093587Y-27594217D01*
X145058320Y-27528237D01*
X145010858Y-27470405D01*
X144953026Y-27422943D01*
X144887046Y-27387676D01*
X144815454Y-27365959D01*
X144759652Y-27360463D01*
X144759651Y-27360463D01*
X144741000Y-27358626D01*
X144722348Y-27360463D01*
X140620800Y-27360463D01*
X140620800Y-27217260D01*
X147740985Y-27217260D01*
X147800736Y-27211375D01*
X147858191Y-27193946D01*
X147911142Y-27165643D01*
X147957554Y-27127554D01*
X147995643Y-27081142D01*
X148023946Y-27028191D01*
X148041375Y-26970736D01*
X148047260Y-26910985D01*
X148047260Y-25385685D01*
X148045134Y-25364095D01*
X148070372Y-25364095D01*
X152267277Y-29561001D01*
X152267277Y-29561001D01*
G37*
X152267277Y-29561001D02*
X152353223Y-29631535D01*
X152484055Y-29701467D01*
X152626017Y-29744530D01*
X152773652Y-29759071D01*
X152860136Y-29750553D01*
X158890900Y-29750553D01*
X158890900Y-30207269D01*
X156266153Y-30207269D01*
X156189953Y-30283469D01*
X156189953Y-30776229D01*
X156209953Y-30776229D01*
X156209953Y-31131829D01*
X156189953Y-31131829D01*
X156189953Y-31624589D01*
X156266153Y-31700789D01*
X158890900Y-31700789D01*
X158890900Y-32341601D01*
X148937756Y-32341601D01*
X148858442Y-32276510D01*
X148727610Y-32206578D01*
X148585648Y-32163515D01*
X148475000Y-32152617D01*
X148474990Y-32152617D01*
X148438013Y-32148975D01*
X148401036Y-32152617D01*
X148047260Y-32152617D01*
X148047260Y-32069505D01*
X148041375Y-32009754D01*
X148023946Y-31952299D01*
X147995643Y-31899348D01*
X147957554Y-31852936D01*
X147911142Y-31814847D01*
X147858191Y-31786544D01*
X147800736Y-31769115D01*
X147740985Y-31763230D01*
X140620800Y-31763230D01*
X140620800Y-31620063D01*
X144722349Y-31620063D01*
X144741000Y-31621900D01*
X144815454Y-31614567D01*
X144887046Y-31592850D01*
X144953026Y-31557583D01*
X145010858Y-31510121D01*
X145058320Y-31452289D01*
X145093587Y-31386309D01*
X145115304Y-31314717D01*
X145120800Y-31258915D01*
X145122637Y-31240263D01*
X145120800Y-31221611D01*
X145120800Y-31208029D01*
X152468853Y-31208029D01*
X152468853Y-31426009D01*
X152480566Y-31484896D01*
X152503543Y-31540366D01*
X152536900Y-31590288D01*
X152579354Y-31632743D01*
X152629276Y-31666099D01*
X152684746Y-31689076D01*
X152743633Y-31700789D01*
X155758153Y-31700789D01*
X155834353Y-31624589D01*
X155834353Y-31131829D01*
X152545053Y-31131829D01*
X152468853Y-31208029D01*
X145120800Y-31208029D01*
X145120800Y-30482049D01*
X152468853Y-30482049D01*
X152468853Y-30700029D01*
X152545053Y-30776229D01*
X155834353Y-30776229D01*
X155834353Y-30283469D01*
X155758153Y-30207269D01*
X152743633Y-30207269D01*
X152684746Y-30218982D01*
X152629276Y-30241959D01*
X152579354Y-30275315D01*
X152536900Y-30317770D01*
X152503543Y-30367692D01*
X152480566Y-30423162D01*
X152468853Y-30482049D01*
X145120800Y-30482049D01*
X145120800Y-27758915D01*
X145122637Y-27740263D01*
X145115304Y-27665809D01*
X145093587Y-27594217D01*
X145058320Y-27528237D01*
X145010858Y-27470405D01*
X144953026Y-27422943D01*
X144887046Y-27387676D01*
X144815454Y-27365959D01*
X144759652Y-27360463D01*
X144759651Y-27360463D01*
X144741000Y-27358626D01*
X144722348Y-27360463D01*
X140620800Y-27360463D01*
X140620800Y-27217260D01*
X147740985Y-27217260D01*
X147800736Y-27211375D01*
X147858191Y-27193946D01*
X147911142Y-27165643D01*
X147957554Y-27127554D01*
X147995643Y-27081142D01*
X148023946Y-27028191D01*
X148041375Y-26970736D01*
X148047260Y-26910985D01*
X148047260Y-25385685D01*
X148045134Y-25364095D01*
X148070372Y-25364095D01*
X152267277Y-29561001D01*
G36*
X158890900Y-28254085D02*
X153090477Y-28254085D01*
X148941007Y-24104616D01*
X148917424Y-24075880D01*
X148802748Y-23981768D01*
X148671916Y-23911836D01*
X148529954Y-23868773D01*
X148419306Y-23857875D01*
X148419296Y-23857875D01*
X148382319Y-23854233D01*
X148345342Y-23857875D01*
X148045134Y-23857875D01*
X148047260Y-23836285D01*
X148047260Y-22310985D01*
X148041375Y-22251234D01*
X148023946Y-22193779D01*
X148022354Y-22190800D01*
X158890900Y-22190800D01*
X158890900Y-28254085D01*
X158890900Y-28254085D01*
G37*
X158890900Y-28254085D02*
X153090477Y-28254085D01*
X148941007Y-24104616D01*
X148917424Y-24075880D01*
X148802748Y-23981768D01*
X148671916Y-23911836D01*
X148529954Y-23868773D01*
X148419306Y-23857875D01*
X148419296Y-23857875D01*
X148382319Y-23854233D01*
X148345342Y-23857875D01*
X148045134Y-23857875D01*
X148047260Y-23836285D01*
X148047260Y-22310985D01*
X148041375Y-22251234D01*
X148023946Y-22193779D01*
X148022354Y-22190800D01*
X158890900Y-22190800D01*
X158890900Y-28254085D01*
G04 #@! TO.N,Net-(J4-Pad2)*
G36*
X152214968Y-39267212D02*
X152238546Y-39295942D01*
X152353222Y-39390054D01*
X152484054Y-39459986D01*
X152626016Y-39503049D01*
X152736664Y-39513947D01*
X152736673Y-39513947D01*
X152773650Y-39517589D01*
X152810628Y-39513947D01*
X152810640Y-39513947D01*
X152860146Y-39509071D01*
X158890900Y-39509071D01*
X158890900Y-39965787D01*
X156266153Y-39965787D01*
X156189953Y-40041987D01*
X156189953Y-40534747D01*
X156209953Y-40534747D01*
X156209953Y-40890347D01*
X156189953Y-40890347D01*
X156189953Y-41383107D01*
X156266153Y-41459307D01*
X158890900Y-41459307D01*
X158890900Y-42100121D01*
X148937758Y-42100121D01*
X148858444Y-42035030D01*
X148727612Y-41965098D01*
X148585650Y-41922035D01*
X148475002Y-41911137D01*
X148474992Y-41911137D01*
X148438015Y-41907495D01*
X148401038Y-41911137D01*
X148047260Y-41911137D01*
X148047260Y-41828025D01*
X148041375Y-41768274D01*
X148023946Y-41710819D01*
X147995643Y-41657868D01*
X147957554Y-41611456D01*
X147911142Y-41573367D01*
X147858191Y-41545064D01*
X147800736Y-41527635D01*
X147740985Y-41521750D01*
X140620800Y-41521750D01*
X140620800Y-41378589D01*
X144722349Y-41378589D01*
X144741000Y-41380426D01*
X144815454Y-41373093D01*
X144887046Y-41351376D01*
X144953026Y-41316109D01*
X145010858Y-41268647D01*
X145058320Y-41210815D01*
X145093587Y-41144835D01*
X145115304Y-41073243D01*
X145120800Y-41017441D01*
X145122637Y-40998789D01*
X145120800Y-40980137D01*
X145120800Y-40966547D01*
X152468853Y-40966547D01*
X152468853Y-41184527D01*
X152480566Y-41243414D01*
X152503543Y-41298884D01*
X152536900Y-41348806D01*
X152579354Y-41391261D01*
X152629276Y-41424617D01*
X152684746Y-41447594D01*
X152743633Y-41459307D01*
X155758153Y-41459307D01*
X155834353Y-41383107D01*
X155834353Y-40890347D01*
X152545053Y-40890347D01*
X152468853Y-40966547D01*
X145120800Y-40966547D01*
X145120800Y-40240567D01*
X152468853Y-40240567D01*
X152468853Y-40458547D01*
X152545053Y-40534747D01*
X155834353Y-40534747D01*
X155834353Y-40041987D01*
X155758153Y-39965787D01*
X152743633Y-39965787D01*
X152684746Y-39977500D01*
X152629276Y-40000477D01*
X152579354Y-40033833D01*
X152536900Y-40076288D01*
X152503543Y-40126210D01*
X152480566Y-40181680D01*
X152468853Y-40240567D01*
X145120800Y-40240567D01*
X145120800Y-37517441D01*
X145122637Y-37498789D01*
X145115304Y-37424335D01*
X145093587Y-37352743D01*
X145058320Y-37286763D01*
X145010858Y-37228931D01*
X144953026Y-37181469D01*
X144887046Y-37146202D01*
X144815454Y-37124485D01*
X144759652Y-37118989D01*
X144759651Y-37118989D01*
X144741000Y-37117152D01*
X144722348Y-37118989D01*
X140620800Y-37118989D01*
X140620800Y-36975780D01*
X147740985Y-36975780D01*
X147800736Y-36969895D01*
X147858191Y-36952466D01*
X147911142Y-36924163D01*
X147957554Y-36886074D01*
X147995643Y-36839662D01*
X148023946Y-36786711D01*
X148041375Y-36729256D01*
X148047260Y-36669505D01*
X148047260Y-35144205D01*
X148045134Y-35122615D01*
X148070372Y-35122615D01*
X152214968Y-39267212D01*
X152214968Y-39267212D01*
G37*
X152214968Y-39267212D02*
X152238546Y-39295942D01*
X152353222Y-39390054D01*
X152484054Y-39459986D01*
X152626016Y-39503049D01*
X152736664Y-39513947D01*
X152736673Y-39513947D01*
X152773650Y-39517589D01*
X152810628Y-39513947D01*
X152810640Y-39513947D01*
X152860146Y-39509071D01*
X158890900Y-39509071D01*
X158890900Y-39965787D01*
X156266153Y-39965787D01*
X156189953Y-40041987D01*
X156189953Y-40534747D01*
X156209953Y-40534747D01*
X156209953Y-40890347D01*
X156189953Y-40890347D01*
X156189953Y-41383107D01*
X156266153Y-41459307D01*
X158890900Y-41459307D01*
X158890900Y-42100121D01*
X148937758Y-42100121D01*
X148858444Y-42035030D01*
X148727612Y-41965098D01*
X148585650Y-41922035D01*
X148475002Y-41911137D01*
X148474992Y-41911137D01*
X148438015Y-41907495D01*
X148401038Y-41911137D01*
X148047260Y-41911137D01*
X148047260Y-41828025D01*
X148041375Y-41768274D01*
X148023946Y-41710819D01*
X147995643Y-41657868D01*
X147957554Y-41611456D01*
X147911142Y-41573367D01*
X147858191Y-41545064D01*
X147800736Y-41527635D01*
X147740985Y-41521750D01*
X140620800Y-41521750D01*
X140620800Y-41378589D01*
X144722349Y-41378589D01*
X144741000Y-41380426D01*
X144815454Y-41373093D01*
X144887046Y-41351376D01*
X144953026Y-41316109D01*
X145010858Y-41268647D01*
X145058320Y-41210815D01*
X145093587Y-41144835D01*
X145115304Y-41073243D01*
X145120800Y-41017441D01*
X145122637Y-40998789D01*
X145120800Y-40980137D01*
X145120800Y-40966547D01*
X152468853Y-40966547D01*
X152468853Y-41184527D01*
X152480566Y-41243414D01*
X152503543Y-41298884D01*
X152536900Y-41348806D01*
X152579354Y-41391261D01*
X152629276Y-41424617D01*
X152684746Y-41447594D01*
X152743633Y-41459307D01*
X155758153Y-41459307D01*
X155834353Y-41383107D01*
X155834353Y-40890347D01*
X152545053Y-40890347D01*
X152468853Y-40966547D01*
X145120800Y-40966547D01*
X145120800Y-40240567D01*
X152468853Y-40240567D01*
X152468853Y-40458547D01*
X152545053Y-40534747D01*
X155834353Y-40534747D01*
X155834353Y-40041987D01*
X155758153Y-39965787D01*
X152743633Y-39965787D01*
X152684746Y-39977500D01*
X152629276Y-40000477D01*
X152579354Y-40033833D01*
X152536900Y-40076288D01*
X152503543Y-40126210D01*
X152480566Y-40181680D01*
X152468853Y-40240567D01*
X145120800Y-40240567D01*
X145120800Y-37517441D01*
X145122637Y-37498789D01*
X145115304Y-37424335D01*
X145093587Y-37352743D01*
X145058320Y-37286763D01*
X145010858Y-37228931D01*
X144953026Y-37181469D01*
X144887046Y-37146202D01*
X144815454Y-37124485D01*
X144759652Y-37118989D01*
X144759651Y-37118989D01*
X144741000Y-37117152D01*
X144722348Y-37118989D01*
X140620800Y-37118989D01*
X140620800Y-36975780D01*
X147740985Y-36975780D01*
X147800736Y-36969895D01*
X147858191Y-36952466D01*
X147911142Y-36924163D01*
X147957554Y-36886074D01*
X147995643Y-36839662D01*
X148023946Y-36786711D01*
X148041375Y-36729256D01*
X148047260Y-36669505D01*
X148047260Y-35144205D01*
X148045134Y-35122615D01*
X148070372Y-35122615D01*
X152214968Y-39267212D01*
G36*
X158890900Y-38012603D02*
X153090475Y-38012603D01*
X148941007Y-33863136D01*
X148917424Y-33834400D01*
X148802748Y-33740288D01*
X148671916Y-33670356D01*
X148529954Y-33627293D01*
X148419306Y-33616395D01*
X148419296Y-33616395D01*
X148382319Y-33612753D01*
X148345342Y-33616395D01*
X148045134Y-33616395D01*
X148047260Y-33594805D01*
X148047260Y-32981927D01*
X158890900Y-32981927D01*
X158890900Y-38012603D01*
X158890900Y-38012603D01*
G37*
X158890900Y-38012603D02*
X153090475Y-38012603D01*
X148941007Y-33863136D01*
X148917424Y-33834400D01*
X148802748Y-33740288D01*
X148671916Y-33670356D01*
X148529954Y-33627293D01*
X148419306Y-33616395D01*
X148419296Y-33616395D01*
X148382319Y-33612753D01*
X148345342Y-33616395D01*
X148045134Y-33616395D01*
X148047260Y-33594805D01*
X148047260Y-32981927D01*
X158890900Y-32981927D01*
X158890900Y-38012603D01*
G04 #@! TO.N,Net-(J7-Pad2)*
G36*
X152267277Y-49078039D02*
X152353223Y-49148573D01*
X152484055Y-49218505D01*
X152626017Y-49261568D01*
X152773652Y-49276109D01*
X152860136Y-49267591D01*
X158890901Y-49267591D01*
X158890901Y-49724307D01*
X156266153Y-49724307D01*
X156189953Y-49800507D01*
X156189953Y-50293267D01*
X156209953Y-50293267D01*
X156209953Y-50648867D01*
X156189953Y-50648867D01*
X156189953Y-51141627D01*
X156266153Y-51217827D01*
X158890901Y-51217827D01*
X158890901Y-51862713D01*
X148942697Y-51862713D01*
X148858542Y-51793649D01*
X148727710Y-51723717D01*
X148585748Y-51680654D01*
X148475100Y-51669756D01*
X148475090Y-51669756D01*
X148438113Y-51666114D01*
X148401136Y-51669756D01*
X148047260Y-51669756D01*
X148047260Y-51586545D01*
X148041375Y-51526794D01*
X148023946Y-51469339D01*
X147995643Y-51416388D01*
X147957554Y-51369976D01*
X147911142Y-51331887D01*
X147858191Y-51303584D01*
X147800736Y-51286155D01*
X147740985Y-51280270D01*
X140620800Y-51280270D01*
X140620800Y-51137115D01*
X144722349Y-51137115D01*
X144741000Y-51138952D01*
X144815454Y-51131619D01*
X144887046Y-51109902D01*
X144953026Y-51074635D01*
X145010858Y-51027173D01*
X145058320Y-50969341D01*
X145093587Y-50903361D01*
X145115304Y-50831769D01*
X145120800Y-50775967D01*
X145122637Y-50757315D01*
X145120800Y-50738663D01*
X145120800Y-50725067D01*
X152468853Y-50725067D01*
X152468853Y-50943047D01*
X152480566Y-51001934D01*
X152503543Y-51057404D01*
X152536900Y-51107326D01*
X152579354Y-51149781D01*
X152629276Y-51183137D01*
X152684746Y-51206114D01*
X152743633Y-51217827D01*
X155758153Y-51217827D01*
X155834353Y-51141627D01*
X155834353Y-50648867D01*
X152545053Y-50648867D01*
X152468853Y-50725067D01*
X145120800Y-50725067D01*
X145120800Y-49999087D01*
X152468853Y-49999087D01*
X152468853Y-50217067D01*
X152545053Y-50293267D01*
X155834353Y-50293267D01*
X155834353Y-49800507D01*
X155758153Y-49724307D01*
X152743633Y-49724307D01*
X152684746Y-49736020D01*
X152629276Y-49758997D01*
X152579354Y-49792353D01*
X152536900Y-49834808D01*
X152503543Y-49884730D01*
X152480566Y-49940200D01*
X152468853Y-49999087D01*
X145120800Y-49999087D01*
X145120800Y-47275967D01*
X145122637Y-47257315D01*
X145115304Y-47182861D01*
X145093587Y-47111269D01*
X145058320Y-47045289D01*
X145010858Y-46987457D01*
X144953026Y-46939995D01*
X144887046Y-46904728D01*
X144815454Y-46883011D01*
X144759652Y-46877515D01*
X144759651Y-46877515D01*
X144741000Y-46875678D01*
X144722348Y-46877515D01*
X140620800Y-46877515D01*
X140620800Y-46734300D01*
X147740985Y-46734300D01*
X147800736Y-46728415D01*
X147858191Y-46710986D01*
X147911142Y-46682683D01*
X147957554Y-46644594D01*
X147995643Y-46598182D01*
X148023946Y-46545231D01*
X148041375Y-46487776D01*
X148047260Y-46428025D01*
X148047260Y-44902725D01*
X148045134Y-44881135D01*
X148070374Y-44881135D01*
X152267277Y-49078039D01*
X152267277Y-49078039D01*
G37*
X152267277Y-49078039D02*
X152353223Y-49148573D01*
X152484055Y-49218505D01*
X152626017Y-49261568D01*
X152773652Y-49276109D01*
X152860136Y-49267591D01*
X158890901Y-49267591D01*
X158890901Y-49724307D01*
X156266153Y-49724307D01*
X156189953Y-49800507D01*
X156189953Y-50293267D01*
X156209953Y-50293267D01*
X156209953Y-50648867D01*
X156189953Y-50648867D01*
X156189953Y-51141627D01*
X156266153Y-51217827D01*
X158890901Y-51217827D01*
X158890901Y-51862713D01*
X148942697Y-51862713D01*
X148858542Y-51793649D01*
X148727710Y-51723717D01*
X148585748Y-51680654D01*
X148475100Y-51669756D01*
X148475090Y-51669756D01*
X148438113Y-51666114D01*
X148401136Y-51669756D01*
X148047260Y-51669756D01*
X148047260Y-51586545D01*
X148041375Y-51526794D01*
X148023946Y-51469339D01*
X147995643Y-51416388D01*
X147957554Y-51369976D01*
X147911142Y-51331887D01*
X147858191Y-51303584D01*
X147800736Y-51286155D01*
X147740985Y-51280270D01*
X140620800Y-51280270D01*
X140620800Y-51137115D01*
X144722349Y-51137115D01*
X144741000Y-51138952D01*
X144815454Y-51131619D01*
X144887046Y-51109902D01*
X144953026Y-51074635D01*
X145010858Y-51027173D01*
X145058320Y-50969341D01*
X145093587Y-50903361D01*
X145115304Y-50831769D01*
X145120800Y-50775967D01*
X145122637Y-50757315D01*
X145120800Y-50738663D01*
X145120800Y-50725067D01*
X152468853Y-50725067D01*
X152468853Y-50943047D01*
X152480566Y-51001934D01*
X152503543Y-51057404D01*
X152536900Y-51107326D01*
X152579354Y-51149781D01*
X152629276Y-51183137D01*
X152684746Y-51206114D01*
X152743633Y-51217827D01*
X155758153Y-51217827D01*
X155834353Y-51141627D01*
X155834353Y-50648867D01*
X152545053Y-50648867D01*
X152468853Y-50725067D01*
X145120800Y-50725067D01*
X145120800Y-49999087D01*
X152468853Y-49999087D01*
X152468853Y-50217067D01*
X152545053Y-50293267D01*
X155834353Y-50293267D01*
X155834353Y-49800507D01*
X155758153Y-49724307D01*
X152743633Y-49724307D01*
X152684746Y-49736020D01*
X152629276Y-49758997D01*
X152579354Y-49792353D01*
X152536900Y-49834808D01*
X152503543Y-49884730D01*
X152480566Y-49940200D01*
X152468853Y-49999087D01*
X145120800Y-49999087D01*
X145120800Y-47275967D01*
X145122637Y-47257315D01*
X145115304Y-47182861D01*
X145093587Y-47111269D01*
X145058320Y-47045289D01*
X145010858Y-46987457D01*
X144953026Y-46939995D01*
X144887046Y-46904728D01*
X144815454Y-46883011D01*
X144759652Y-46877515D01*
X144759651Y-46877515D01*
X144741000Y-46875678D01*
X144722348Y-46877515D01*
X140620800Y-46877515D01*
X140620800Y-46734300D01*
X147740985Y-46734300D01*
X147800736Y-46728415D01*
X147858191Y-46710986D01*
X147911142Y-46682683D01*
X147957554Y-46644594D01*
X147995643Y-46598182D01*
X148023946Y-46545231D01*
X148041375Y-46487776D01*
X148047260Y-46428025D01*
X148047260Y-44902725D01*
X148045134Y-44881135D01*
X148070374Y-44881135D01*
X152267277Y-49078039D01*
G36*
X158890901Y-47771123D02*
X153090477Y-47771123D01*
X148941009Y-43621656D01*
X148917426Y-43592920D01*
X148802750Y-43498808D01*
X148671918Y-43428876D01*
X148529956Y-43385813D01*
X148419308Y-43374915D01*
X148419298Y-43374915D01*
X148382321Y-43371273D01*
X148345344Y-43374915D01*
X148045134Y-43374915D01*
X148047260Y-43353325D01*
X148047260Y-42740447D01*
X158890901Y-42740447D01*
X158890901Y-47771123D01*
X158890901Y-47771123D01*
G37*
X158890901Y-47771123D02*
X153090477Y-47771123D01*
X148941009Y-43621656D01*
X148917426Y-43592920D01*
X148802750Y-43498808D01*
X148671918Y-43428876D01*
X148529956Y-43385813D01*
X148419308Y-43374915D01*
X148419298Y-43374915D01*
X148382321Y-43371273D01*
X148345344Y-43374915D01*
X148045134Y-43374915D01*
X148047260Y-43353325D01*
X148047260Y-42740447D01*
X158890901Y-42740447D01*
X158890901Y-47771123D01*
G04 #@! TO.N,Net-(J10-Pad2)*
G36*
X152267277Y-58836561D02*
X152353223Y-58907095D01*
X152484055Y-58977027D01*
X152626017Y-59020090D01*
X152773652Y-59034631D01*
X152860136Y-59026113D01*
X158890901Y-59026113D01*
X158890901Y-59482829D01*
X156266153Y-59482829D01*
X156189953Y-59559029D01*
X156189953Y-60051789D01*
X156209953Y-60051789D01*
X156209953Y-60407389D01*
X156189953Y-60407389D01*
X156189953Y-60900149D01*
X156266153Y-60976349D01*
X158890901Y-60976349D01*
X158890901Y-61617161D01*
X148937720Y-61617161D01*
X148858594Y-61552224D01*
X148727762Y-61482292D01*
X148585800Y-61439229D01*
X148475152Y-61428331D01*
X148475142Y-61428331D01*
X148438165Y-61424689D01*
X148401188Y-61428331D01*
X148047260Y-61428331D01*
X148047260Y-61345065D01*
X148041375Y-61285314D01*
X148023946Y-61227859D01*
X147995643Y-61174908D01*
X147957554Y-61128496D01*
X147911142Y-61090407D01*
X147858191Y-61062104D01*
X147800736Y-61044675D01*
X147740985Y-61038790D01*
X140651703Y-61038790D01*
X140651703Y-60895641D01*
X144722349Y-60895641D01*
X144741000Y-60897478D01*
X144815454Y-60890145D01*
X144887046Y-60868428D01*
X144953026Y-60833161D01*
X145010858Y-60785699D01*
X145058320Y-60727867D01*
X145093587Y-60661887D01*
X145115304Y-60590295D01*
X145120800Y-60534493D01*
X145122637Y-60515841D01*
X145120800Y-60497189D01*
X145120800Y-60483589D01*
X152468853Y-60483589D01*
X152468853Y-60701569D01*
X152480566Y-60760456D01*
X152503543Y-60815926D01*
X152536900Y-60865848D01*
X152579354Y-60908303D01*
X152629276Y-60941659D01*
X152684746Y-60964636D01*
X152743633Y-60976349D01*
X155758153Y-60976349D01*
X155834353Y-60900149D01*
X155834353Y-60407389D01*
X152545053Y-60407389D01*
X152468853Y-60483589D01*
X145120800Y-60483589D01*
X145120800Y-59757609D01*
X152468853Y-59757609D01*
X152468853Y-59975589D01*
X152545053Y-60051789D01*
X155834353Y-60051789D01*
X155834353Y-59559029D01*
X155758153Y-59482829D01*
X152743633Y-59482829D01*
X152684746Y-59494542D01*
X152629276Y-59517519D01*
X152579354Y-59550875D01*
X152536900Y-59593330D01*
X152503543Y-59643252D01*
X152480566Y-59698722D01*
X152468853Y-59757609D01*
X145120800Y-59757609D01*
X145120800Y-57034493D01*
X145122637Y-57015841D01*
X145115304Y-56941387D01*
X145093587Y-56869795D01*
X145058320Y-56803815D01*
X145010858Y-56745983D01*
X144953026Y-56698521D01*
X144887046Y-56663254D01*
X144815454Y-56641537D01*
X144759652Y-56636041D01*
X144759651Y-56636041D01*
X144741000Y-56634204D01*
X144722348Y-56636041D01*
X140651703Y-56636041D01*
X140651703Y-56492820D01*
X147740985Y-56492820D01*
X147800736Y-56486935D01*
X147858191Y-56469506D01*
X147911142Y-56441203D01*
X147957554Y-56403114D01*
X147995643Y-56356702D01*
X148023946Y-56303751D01*
X148041375Y-56246296D01*
X148047260Y-56186545D01*
X148047260Y-54661245D01*
X148045134Y-54639655D01*
X148070372Y-54639655D01*
X152267277Y-58836561D01*
X152267277Y-58836561D01*
G37*
X152267277Y-58836561D02*
X152353223Y-58907095D01*
X152484055Y-58977027D01*
X152626017Y-59020090D01*
X152773652Y-59034631D01*
X152860136Y-59026113D01*
X158890901Y-59026113D01*
X158890901Y-59482829D01*
X156266153Y-59482829D01*
X156189953Y-59559029D01*
X156189953Y-60051789D01*
X156209953Y-60051789D01*
X156209953Y-60407389D01*
X156189953Y-60407389D01*
X156189953Y-60900149D01*
X156266153Y-60976349D01*
X158890901Y-60976349D01*
X158890901Y-61617161D01*
X148937720Y-61617161D01*
X148858594Y-61552224D01*
X148727762Y-61482292D01*
X148585800Y-61439229D01*
X148475152Y-61428331D01*
X148475142Y-61428331D01*
X148438165Y-61424689D01*
X148401188Y-61428331D01*
X148047260Y-61428331D01*
X148047260Y-61345065D01*
X148041375Y-61285314D01*
X148023946Y-61227859D01*
X147995643Y-61174908D01*
X147957554Y-61128496D01*
X147911142Y-61090407D01*
X147858191Y-61062104D01*
X147800736Y-61044675D01*
X147740985Y-61038790D01*
X140651703Y-61038790D01*
X140651703Y-60895641D01*
X144722349Y-60895641D01*
X144741000Y-60897478D01*
X144815454Y-60890145D01*
X144887046Y-60868428D01*
X144953026Y-60833161D01*
X145010858Y-60785699D01*
X145058320Y-60727867D01*
X145093587Y-60661887D01*
X145115304Y-60590295D01*
X145120800Y-60534493D01*
X145122637Y-60515841D01*
X145120800Y-60497189D01*
X145120800Y-60483589D01*
X152468853Y-60483589D01*
X152468853Y-60701569D01*
X152480566Y-60760456D01*
X152503543Y-60815926D01*
X152536900Y-60865848D01*
X152579354Y-60908303D01*
X152629276Y-60941659D01*
X152684746Y-60964636D01*
X152743633Y-60976349D01*
X155758153Y-60976349D01*
X155834353Y-60900149D01*
X155834353Y-60407389D01*
X152545053Y-60407389D01*
X152468853Y-60483589D01*
X145120800Y-60483589D01*
X145120800Y-59757609D01*
X152468853Y-59757609D01*
X152468853Y-59975589D01*
X152545053Y-60051789D01*
X155834353Y-60051789D01*
X155834353Y-59559029D01*
X155758153Y-59482829D01*
X152743633Y-59482829D01*
X152684746Y-59494542D01*
X152629276Y-59517519D01*
X152579354Y-59550875D01*
X152536900Y-59593330D01*
X152503543Y-59643252D01*
X152480566Y-59698722D01*
X152468853Y-59757609D01*
X145120800Y-59757609D01*
X145120800Y-57034493D01*
X145122637Y-57015841D01*
X145115304Y-56941387D01*
X145093587Y-56869795D01*
X145058320Y-56803815D01*
X145010858Y-56745983D01*
X144953026Y-56698521D01*
X144887046Y-56663254D01*
X144815454Y-56641537D01*
X144759652Y-56636041D01*
X144759651Y-56636041D01*
X144741000Y-56634204D01*
X144722348Y-56636041D01*
X140651703Y-56636041D01*
X140651703Y-56492820D01*
X147740985Y-56492820D01*
X147800736Y-56486935D01*
X147858191Y-56469506D01*
X147911142Y-56441203D01*
X147957554Y-56403114D01*
X147995643Y-56356702D01*
X148023946Y-56303751D01*
X148041375Y-56246296D01*
X148047260Y-56186545D01*
X148047260Y-54661245D01*
X148045134Y-54639655D01*
X148070372Y-54639655D01*
X152267277Y-58836561D01*
G36*
X158890901Y-57529645D02*
X153090477Y-57529645D01*
X148941007Y-53380176D01*
X148917424Y-53351440D01*
X148802748Y-53257328D01*
X148671916Y-53187396D01*
X148529954Y-53144333D01*
X148419306Y-53133435D01*
X148419296Y-53133435D01*
X148382319Y-53129793D01*
X148345342Y-53133435D01*
X148045134Y-53133435D01*
X148047260Y-53111845D01*
X148047260Y-52498967D01*
X158890901Y-52498967D01*
X158890901Y-57529645D01*
X158890901Y-57529645D01*
G37*
X158890901Y-57529645D02*
X153090477Y-57529645D01*
X148941007Y-53380176D01*
X148917424Y-53351440D01*
X148802748Y-53257328D01*
X148671916Y-53187396D01*
X148529954Y-53144333D01*
X148419306Y-53133435D01*
X148419296Y-53133435D01*
X148382319Y-53129793D01*
X148345342Y-53133435D01*
X148045134Y-53133435D01*
X148047260Y-53111845D01*
X148047260Y-52498967D01*
X158890901Y-52498967D01*
X158890901Y-57529645D01*
G04 #@! TO.N,Net-(J13-Pad2)*
G36*
X152214971Y-68542778D02*
X152238548Y-68571507D01*
X152353224Y-68665619D01*
X152484056Y-68735551D01*
X152626018Y-68778614D01*
X152773653Y-68793155D01*
X152860146Y-68784636D01*
X158890901Y-68784636D01*
X158890901Y-69241352D01*
X156266153Y-69241352D01*
X156189953Y-69317552D01*
X156189953Y-69810312D01*
X156209953Y-69810312D01*
X156209953Y-70165912D01*
X156189953Y-70165912D01*
X156189953Y-70658672D01*
X156266153Y-70734872D01*
X158890901Y-70734872D01*
X158890901Y-70944700D01*
X140620800Y-70944700D01*
X140620800Y-70654167D01*
X144722349Y-70654167D01*
X144741000Y-70656004D01*
X144815454Y-70648671D01*
X144887046Y-70626954D01*
X144953026Y-70591687D01*
X145010858Y-70544225D01*
X145058320Y-70486393D01*
X145093587Y-70420413D01*
X145115304Y-70348821D01*
X145120800Y-70293019D01*
X145122637Y-70274367D01*
X145120800Y-70255715D01*
X145120800Y-70242112D01*
X152468853Y-70242112D01*
X152468853Y-70460092D01*
X152480566Y-70518979D01*
X152503543Y-70574449D01*
X152536900Y-70624371D01*
X152579354Y-70666826D01*
X152629276Y-70700182D01*
X152684746Y-70723159D01*
X152743633Y-70734872D01*
X155758153Y-70734872D01*
X155834353Y-70658672D01*
X155834353Y-70165912D01*
X152545053Y-70165912D01*
X152468853Y-70242112D01*
X145120800Y-70242112D01*
X145120800Y-69516132D01*
X152468853Y-69516132D01*
X152468853Y-69734112D01*
X152545053Y-69810312D01*
X155834353Y-69810312D01*
X155834353Y-69317552D01*
X155758153Y-69241352D01*
X152743633Y-69241352D01*
X152684746Y-69253065D01*
X152629276Y-69276042D01*
X152579354Y-69309398D01*
X152536900Y-69351853D01*
X152503543Y-69401775D01*
X152480566Y-69457245D01*
X152468853Y-69516132D01*
X145120800Y-69516132D01*
X145120800Y-66793019D01*
X145122637Y-66774367D01*
X145115304Y-66699913D01*
X145093587Y-66628321D01*
X145058320Y-66562341D01*
X145010858Y-66504509D01*
X144953026Y-66457047D01*
X144887046Y-66421780D01*
X144815454Y-66400063D01*
X144759652Y-66394567D01*
X144759651Y-66394567D01*
X144741000Y-66392730D01*
X144722348Y-66394567D01*
X140620800Y-66394567D01*
X140620800Y-66251340D01*
X147740985Y-66251340D01*
X147800736Y-66245455D01*
X147858191Y-66228026D01*
X147911142Y-66199723D01*
X147957554Y-66161634D01*
X147995643Y-66115222D01*
X148023946Y-66062271D01*
X148041375Y-66004816D01*
X148047260Y-65945065D01*
X148047260Y-64419765D01*
X148045134Y-64398175D01*
X148070369Y-64398175D01*
X152214971Y-68542778D01*
X152214971Y-68542778D01*
G37*
X152214971Y-68542778D02*
X152238548Y-68571507D01*
X152353224Y-68665619D01*
X152484056Y-68735551D01*
X152626018Y-68778614D01*
X152773653Y-68793155D01*
X152860146Y-68784636D01*
X158890901Y-68784636D01*
X158890901Y-69241352D01*
X156266153Y-69241352D01*
X156189953Y-69317552D01*
X156189953Y-69810312D01*
X156209953Y-69810312D01*
X156209953Y-70165912D01*
X156189953Y-70165912D01*
X156189953Y-70658672D01*
X156266153Y-70734872D01*
X158890901Y-70734872D01*
X158890901Y-70944700D01*
X140620800Y-70944700D01*
X140620800Y-70654167D01*
X144722349Y-70654167D01*
X144741000Y-70656004D01*
X144815454Y-70648671D01*
X144887046Y-70626954D01*
X144953026Y-70591687D01*
X145010858Y-70544225D01*
X145058320Y-70486393D01*
X145093587Y-70420413D01*
X145115304Y-70348821D01*
X145120800Y-70293019D01*
X145122637Y-70274367D01*
X145120800Y-70255715D01*
X145120800Y-70242112D01*
X152468853Y-70242112D01*
X152468853Y-70460092D01*
X152480566Y-70518979D01*
X152503543Y-70574449D01*
X152536900Y-70624371D01*
X152579354Y-70666826D01*
X152629276Y-70700182D01*
X152684746Y-70723159D01*
X152743633Y-70734872D01*
X155758153Y-70734872D01*
X155834353Y-70658672D01*
X155834353Y-70165912D01*
X152545053Y-70165912D01*
X152468853Y-70242112D01*
X145120800Y-70242112D01*
X145120800Y-69516132D01*
X152468853Y-69516132D01*
X152468853Y-69734112D01*
X152545053Y-69810312D01*
X155834353Y-69810312D01*
X155834353Y-69317552D01*
X155758153Y-69241352D01*
X152743633Y-69241352D01*
X152684746Y-69253065D01*
X152629276Y-69276042D01*
X152579354Y-69309398D01*
X152536900Y-69351853D01*
X152503543Y-69401775D01*
X152480566Y-69457245D01*
X152468853Y-69516132D01*
X145120800Y-69516132D01*
X145120800Y-66793019D01*
X145122637Y-66774367D01*
X145115304Y-66699913D01*
X145093587Y-66628321D01*
X145058320Y-66562341D01*
X145010858Y-66504509D01*
X144953026Y-66457047D01*
X144887046Y-66421780D01*
X144815454Y-66400063D01*
X144759652Y-66394567D01*
X144759651Y-66394567D01*
X144741000Y-66392730D01*
X144722348Y-66394567D01*
X140620800Y-66394567D01*
X140620800Y-66251340D01*
X147740985Y-66251340D01*
X147800736Y-66245455D01*
X147858191Y-66228026D01*
X147911142Y-66199723D01*
X147957554Y-66161634D01*
X147995643Y-66115222D01*
X148023946Y-66062271D01*
X148041375Y-66004816D01*
X148047260Y-65945065D01*
X148047260Y-64419765D01*
X148045134Y-64398175D01*
X148070369Y-64398175D01*
X152214971Y-68542778D01*
G36*
X158890901Y-67288168D02*
X153090477Y-67288168D01*
X148941004Y-63138696D01*
X148917421Y-63109960D01*
X148802745Y-63015848D01*
X148671913Y-62945916D01*
X148529951Y-62902853D01*
X148419303Y-62891955D01*
X148419293Y-62891955D01*
X148382316Y-62888313D01*
X148345339Y-62891955D01*
X148045134Y-62891955D01*
X148047260Y-62870365D01*
X148047260Y-62257487D01*
X158890901Y-62257487D01*
X158890901Y-67288168D01*
X158890901Y-67288168D01*
G37*
X158890901Y-67288168D02*
X153090477Y-67288168D01*
X148941004Y-63138696D01*
X148917421Y-63109960D01*
X148802745Y-63015848D01*
X148671913Y-62945916D01*
X148529951Y-62902853D01*
X148419303Y-62891955D01*
X148419293Y-62891955D01*
X148382316Y-62888313D01*
X148345339Y-62891955D01*
X148045134Y-62891955D01*
X148047260Y-62870365D01*
X148047260Y-62257487D01*
X158890901Y-62257487D01*
X158890901Y-67288168D01*
G04 #@! TD*
M02*
