G04 #@! TF.GenerationSoftware,KiCad,Pcbnew,(5.0.2)-1*
G04 #@! TF.CreationDate,2019-09-04T12:41:45-04:00*
G04 #@! TF.ProjectId,MMCX_2DD-100P_Odd,4d4d4358-5f32-4444-942d-313030505f4f,rev?*
G04 #@! TF.SameCoordinates,Original*
G04 #@! TF.FileFunction,Copper,L2,Bot*
G04 #@! TF.FilePolarity,Positive*
%FSLAX46Y46*%
G04 Gerber Fmt 4.6, Leading zero omitted, Abs format (unit mm)*
G04 Created by KiCad (PCBNEW (5.0.2)-1) date 9/4/2019 12:41:45 PM*
%MOMM*%
%LPD*%
G01*
G04 APERTURE LIST*
G04 #@! TA.AperFunction,SMDPad,CuDef*
%ADD10R,6.477000X0.883920*%
G04 #@! TD*
G04 #@! TA.AperFunction,SMDPad,CuDef*
%ADD11R,2.695200X1.092200*%
G04 #@! TD*
G04 #@! TA.AperFunction,SMDPad,CuDef*
%ADD12C,1.525300*%
G04 #@! TD*
G04 #@! TA.AperFunction,Conductor*
%ADD13C,0.100000*%
G04 #@! TD*
G04 #@! TA.AperFunction,ViaPad*
%ADD14C,0.800000*%
G04 #@! TD*
G04 #@! TA.AperFunction,Conductor*
%ADD15C,0.896620*%
G04 #@! TD*
G04 #@! TA.AperFunction,Conductor*
%ADD16C,0.883920*%
G04 #@! TD*
G04 #@! TA.AperFunction,Conductor*
%ADD17C,0.152400*%
G04 #@! TD*
G04 APERTURE END LIST*
D10*
G04 #@! TO.P,J2,1*
G04 #@! TO.N,Net-(J1-Pad1)*
X156189135Y-28026470D03*
G04 #@! TO.P,J2,3*
G04 #@! TO.N,Net-(J1-Pad2)*
X156189135Y-26074760D03*
G04 #@! TD*
G04 #@! TO.P,J5,1*
G04 #@! TO.N,Net-(J4-Pad1)*
X156189135Y-37784990D03*
G04 #@! TO.P,J5,3*
G04 #@! TO.N,Net-(J4-Pad2)*
X156189135Y-35833280D03*
G04 #@! TD*
G04 #@! TO.P,J8,1*
G04 #@! TO.N,Net-(J7-Pad1)*
X156189135Y-47543507D03*
G04 #@! TO.P,J8,3*
G04 #@! TO.N,Net-(J7-Pad2)*
X156189135Y-45591797D03*
G04 #@! TD*
G04 #@! TO.P,J11,1*
G04 #@! TO.N,Net-(J10-Pad1)*
X156189135Y-57302027D03*
G04 #@! TO.P,J11,3*
G04 #@! TO.N,Net-(J10-Pad2)*
X156189135Y-55350317D03*
G04 #@! TD*
G04 #@! TO.P,J14,1*
G04 #@! TO.N,Net-(J13-Pad1)*
X156189135Y-67060553D03*
G04 #@! TO.P,J14,3*
G04 #@! TO.N,Net-(J13-Pad2)*
X156189135Y-65108843D03*
G04 #@! TD*
D11*
G04 #@! TO.P,J1,1*
G04 #@! TO.N,Net-(J1-Pad1)*
X146393385Y-29490245D03*
D12*
G04 #@! TO.P,J1,2*
G04 #@! TO.N,Net-(J1-Pad2)*
X146240985Y-31027595D03*
D13*
G04 #@! TD*
G04 #@! TO.N,Net-(J1-Pad2)*
G04 #@! TO.C,J1*
G36*
X147740985Y-31790245D02*
X140240985Y-31790245D01*
X140240985Y-31240245D01*
X144740985Y-31240245D01*
X144740985Y-30264945D01*
X147740985Y-30264945D01*
X147740985Y-31790245D01*
X147740985Y-31790245D01*
G37*
D12*
G04 #@! TO.P,J1,2*
G04 #@! TO.N,Net-(J1-Pad2)*
X146240985Y-27952895D03*
D13*
G04 #@! TD*
G04 #@! TO.N,Net-(J1-Pad2)*
G04 #@! TO.C,J1*
G36*
X147740985Y-28715545D02*
X144740985Y-28715545D01*
X144740985Y-27740245D01*
X140240985Y-27740245D01*
X140240985Y-27190245D01*
X147740985Y-27190245D01*
X147740985Y-28715545D01*
X147740985Y-28715545D01*
G37*
D12*
G04 #@! TO.P,J4,2*
G04 #@! TO.N,Net-(J4-Pad2)*
X146240985Y-37711415D03*
D13*
G04 #@! TD*
G04 #@! TO.N,Net-(J4-Pad2)*
G04 #@! TO.C,J4*
G36*
X147740985Y-38474065D02*
X144740985Y-38474065D01*
X144740985Y-37498765D01*
X140240985Y-37498765D01*
X140240985Y-36948765D01*
X147740985Y-36948765D01*
X147740985Y-38474065D01*
X147740985Y-38474065D01*
G37*
D12*
G04 #@! TO.P,J4,2*
G04 #@! TO.N,Net-(J4-Pad2)*
X146240985Y-40786115D03*
D13*
G04 #@! TD*
G04 #@! TO.N,Net-(J4-Pad2)*
G04 #@! TO.C,J4*
G36*
X147740985Y-41548765D02*
X140240985Y-41548765D01*
X140240985Y-40998765D01*
X144740985Y-40998765D01*
X144740985Y-40023465D01*
X147740985Y-40023465D01*
X147740985Y-41548765D01*
X147740985Y-41548765D01*
G37*
D11*
G04 #@! TO.P,J4,1*
G04 #@! TO.N,Net-(J4-Pad1)*
X146393385Y-39248765D03*
G04 #@! TD*
D12*
G04 #@! TO.P,J7,2*
G04 #@! TO.N,Net-(J7-Pad2)*
X146240985Y-47469935D03*
D13*
G04 #@! TD*
G04 #@! TO.N,Net-(J7-Pad2)*
G04 #@! TO.C,J7*
G36*
X147740985Y-48232585D02*
X144740985Y-48232585D01*
X144740985Y-47257285D01*
X140240985Y-47257285D01*
X140240985Y-46707285D01*
X147740985Y-46707285D01*
X147740985Y-48232585D01*
X147740985Y-48232585D01*
G37*
D12*
G04 #@! TO.P,J7,2*
G04 #@! TO.N,Net-(J7-Pad2)*
X146240985Y-50544635D03*
D13*
G04 #@! TD*
G04 #@! TO.N,Net-(J7-Pad2)*
G04 #@! TO.C,J7*
G36*
X147740985Y-51307285D02*
X140240985Y-51307285D01*
X140240985Y-50757285D01*
X144740985Y-50757285D01*
X144740985Y-49781985D01*
X147740985Y-49781985D01*
X147740985Y-51307285D01*
X147740985Y-51307285D01*
G37*
D11*
G04 #@! TO.P,J7,1*
G04 #@! TO.N,Net-(J7-Pad1)*
X146393385Y-49007285D03*
G04 #@! TD*
D12*
G04 #@! TO.P,J10,2*
G04 #@! TO.N,Net-(J10-Pad2)*
X146240985Y-57228455D03*
D13*
G04 #@! TD*
G04 #@! TO.N,Net-(J10-Pad2)*
G04 #@! TO.C,J10*
G36*
X147740985Y-57991105D02*
X144740985Y-57991105D01*
X144740985Y-57015805D01*
X140240985Y-57015805D01*
X140240985Y-56465805D01*
X147740985Y-56465805D01*
X147740985Y-57991105D01*
X147740985Y-57991105D01*
G37*
D12*
G04 #@! TO.P,J10,2*
G04 #@! TO.N,Net-(J10-Pad2)*
X146240985Y-60303155D03*
D13*
G04 #@! TD*
G04 #@! TO.N,Net-(J10-Pad2)*
G04 #@! TO.C,J10*
G36*
X147740985Y-61065805D02*
X140240985Y-61065805D01*
X140240985Y-60515805D01*
X144740985Y-60515805D01*
X144740985Y-59540505D01*
X147740985Y-59540505D01*
X147740985Y-61065805D01*
X147740985Y-61065805D01*
G37*
D11*
G04 #@! TO.P,J10,1*
G04 #@! TO.N,Net-(J10-Pad1)*
X146393385Y-58765805D03*
G04 #@! TD*
D12*
G04 #@! TO.P,J13,2*
G04 #@! TO.N,Net-(J13-Pad2)*
X146240985Y-66986975D03*
D13*
G04 #@! TD*
G04 #@! TO.N,Net-(J13-Pad2)*
G04 #@! TO.C,J13*
G36*
X147740985Y-67749625D02*
X144740985Y-67749625D01*
X144740985Y-66774325D01*
X140240985Y-66774325D01*
X140240985Y-66224325D01*
X147740985Y-66224325D01*
X147740985Y-67749625D01*
X147740985Y-67749625D01*
G37*
D12*
G04 #@! TO.P,J13,2*
G04 #@! TO.N,Net-(J13-Pad2)*
X146240985Y-70061675D03*
D13*
G04 #@! TD*
G04 #@! TO.N,Net-(J13-Pad2)*
G04 #@! TO.C,J13*
G36*
X147740985Y-70824325D02*
X140240985Y-70824325D01*
X140240985Y-70274325D01*
X144740985Y-70274325D01*
X144740985Y-69299025D01*
X147740985Y-69299025D01*
X147740985Y-70824325D01*
X147740985Y-70824325D01*
G37*
D11*
G04 #@! TO.P,J13,1*
G04 #@! TO.N,Net-(J13-Pad1)*
X146393385Y-68524325D03*
G04 #@! TD*
D14*
G04 #@! TO.N,Net-(J1-Pad2)*
X148382319Y-28026467D03*
X148382319Y-23147201D03*
X149846097Y-26074763D03*
X150334023Y-23147207D03*
X151797801Y-24123059D03*
X148382319Y-30954023D03*
X148382319Y-26148335D03*
X155701209Y-24610985D03*
X151797801Y-29978171D03*
X150334023Y-30954023D03*
X158140839Y-24610985D03*
X149846097Y-28026467D03*
X153261579Y-29490245D03*
X150821949Y-27050615D03*
X155701209Y-29490245D03*
X158140839Y-29490245D03*
X153261579Y-24610985D03*
G04 #@! TO.N,Net-(J4-Pad2)*
X153261579Y-39248765D03*
X155701209Y-39248765D03*
X158140839Y-39248765D03*
X148382319Y-32905727D03*
X148382319Y-37784987D03*
X148382319Y-40761159D03*
X148382319Y-35833283D03*
X151797801Y-33881579D03*
X151797801Y-39736691D03*
X150334023Y-40712543D03*
X149846097Y-37784987D03*
X149846097Y-35833283D03*
X150821949Y-36809135D03*
X150334023Y-32905727D03*
X153261579Y-34369505D03*
X155701209Y-34369505D03*
X158140839Y-34369505D03*
G04 #@! TO.N,Net-(J7-Pad2)*
X153261579Y-49007285D03*
X155701209Y-49007285D03*
X158140839Y-49007285D03*
X148382319Y-47543507D03*
X148382319Y-45591803D03*
X151797801Y-49495211D03*
X150334023Y-50471063D03*
X149846097Y-45591803D03*
X150821949Y-46567655D03*
X148382319Y-50519709D03*
X151797801Y-43640099D03*
X148382319Y-42664247D03*
X150334023Y-42664247D03*
X153261579Y-44128025D03*
X155701209Y-44128025D03*
X158140839Y-44128025D03*
X149846097Y-47543507D03*
G04 #@! TO.N,Net-(J10-Pad2)*
X153261579Y-58765805D03*
X155701209Y-58765805D03*
X158140839Y-58765805D03*
X148382319Y-57302027D03*
X148382337Y-60303155D03*
X148382337Y-52422866D03*
X148382319Y-55350323D03*
X149846097Y-55350323D03*
X150334023Y-60229583D03*
X151797801Y-53398619D03*
X151797801Y-59253731D03*
X150821949Y-56326175D03*
X150334023Y-52422767D03*
X153261579Y-53886545D03*
X155701209Y-53886545D03*
X158140839Y-53886545D03*
X149846097Y-57302027D03*
G04 #@! TO.N,Net-(J13-Pad2)*
X155701209Y-68524325D03*
X151797801Y-69012251D03*
X149846097Y-65108843D03*
X148382319Y-67060547D03*
X148382337Y-62181441D03*
X148382337Y-70036809D03*
X148308931Y-65182415D03*
X150334023Y-69988103D03*
X158140839Y-68524325D03*
X150821949Y-66084695D03*
X153261579Y-68524325D03*
X150334023Y-62181287D03*
X158140839Y-63645065D03*
X155701209Y-63645065D03*
X153261579Y-63645065D03*
X151797801Y-63157139D03*
X149846097Y-67060547D03*
G04 #@! TD*
D15*
G04 #@! TO.N,Net-(J1-Pad1)*
X150334023Y-29490245D02*
X146393385Y-29490245D01*
X151797798Y-28026470D02*
X156189135Y-28026470D01*
X150334023Y-29490245D02*
X151797798Y-28026470D01*
D16*
G04 #@! TO.N,Net-(J1-Pad2)*
X146240985Y-27643680D02*
X146240985Y-25776467D01*
D15*
X146240985Y-27977911D02*
X147942949Y-27977911D01*
X146240985Y-31002609D02*
X148821659Y-31002609D01*
X148821659Y-31002609D02*
X148821659Y-31002609D01*
G04 #@! TO.N,Net-(J4-Pad1)*
X150334023Y-39248765D02*
X146393385Y-39248765D01*
X151797798Y-37784990D02*
X156189135Y-37784990D01*
X150334023Y-39248765D02*
X151797798Y-37784990D01*
D16*
G04 #@! TO.N,Net-(J4-Pad2)*
X146240985Y-37402230D02*
X146240985Y-36022913D01*
X146240985Y-36022913D02*
X146430582Y-35833316D01*
D15*
X146240985Y-37736461D02*
X147942919Y-37736461D01*
X146240985Y-40761159D02*
X148333787Y-40761159D01*
X148821662Y-40761159D02*
X148821662Y-40761159D01*
X148333787Y-40761159D02*
X148821662Y-40761159D01*
G04 #@! TO.N,Net-(J7-Pad1)*
X150334023Y-49007285D02*
X146393385Y-49007285D01*
X151797801Y-47543507D02*
X156189135Y-47543507D01*
X150334023Y-49007285D02*
X151797801Y-47543507D01*
D16*
G04 #@! TO.N,Net-(J7-Pad2)*
X146240985Y-47160780D02*
X146240985Y-45781433D01*
X146240985Y-45781433D02*
X146430549Y-45591869D01*
D15*
X146240985Y-47495011D02*
X147942889Y-47495011D01*
X146240985Y-50519709D02*
X148382319Y-50519709D01*
X148382319Y-50519709D02*
X148821665Y-50519709D01*
G04 #@! TO.N,Net-(J10-Pad1)*
X150334023Y-58765805D02*
X146393385Y-58765805D01*
X151797801Y-57302027D02*
X156189135Y-57302027D01*
X150334023Y-58765805D02*
X151797801Y-57302027D01*
D16*
G04 #@! TO.N,Net-(J10-Pad2)*
X146240985Y-57271040D02*
X146240985Y-55539953D01*
D15*
X146240985Y-60303155D02*
X148308747Y-60303155D01*
X146240985Y-57228455D02*
X148308747Y-57228455D01*
X148308747Y-60303155D02*
X148308747Y-60303155D01*
G04 #@! TO.N,Net-(J13-Pad1)*
X146393385Y-68524325D02*
X150334023Y-68524325D01*
X151797795Y-67060553D02*
X156189135Y-67060553D01*
X150334023Y-68524325D02*
X151797795Y-67060553D01*
D16*
G04 #@! TO.N,Net-(J13-Pad2)*
X146240985Y-66677880D02*
X146240985Y-65298473D01*
X146240985Y-65298473D02*
X146430483Y-65108975D01*
D15*
X146240985Y-67012111D02*
X147942829Y-67012111D01*
X146240985Y-70036809D02*
X148821671Y-70036809D01*
G04 #@! TD*
D17*
G04 #@! TO.N,Net-(J1-Pad2)*
G36*
X158941700Y-31365749D02*
X147996214Y-31365749D01*
X147996214Y-30264945D01*
X147991310Y-30215152D01*
X147984455Y-30192555D01*
X150299525Y-30192555D01*
X150334023Y-30195953D01*
X150368521Y-30192555D01*
X150368523Y-30192555D01*
X150471700Y-30182393D01*
X150604086Y-30142234D01*
X150726093Y-30077020D01*
X150833034Y-29989256D01*
X150855033Y-29962450D01*
X152088705Y-28728780D01*
X156223635Y-28728780D01*
X156275640Y-28723658D01*
X158941700Y-28723658D01*
X158941700Y-31365749D01*
X158941700Y-31365749D01*
G37*
X158941700Y-31365749D02*
X147996214Y-31365749D01*
X147996214Y-30264945D01*
X147991310Y-30215152D01*
X147984455Y-30192555D01*
X150299525Y-30192555D01*
X150334023Y-30195953D01*
X150368521Y-30192555D01*
X150368523Y-30192555D01*
X150471700Y-30182393D01*
X150604086Y-30142234D01*
X150726093Y-30077020D01*
X150833034Y-29989256D01*
X150855033Y-29962450D01*
X152088705Y-28728780D01*
X156223635Y-28728780D01*
X156275640Y-28723658D01*
X158941700Y-28723658D01*
X158941700Y-31365749D01*
G36*
X158941700Y-25378800D02*
X156430435Y-25378800D01*
X156366935Y-25442300D01*
X156366935Y-25896960D01*
X156386935Y-25896960D01*
X156386935Y-26252560D01*
X156366935Y-26252560D01*
X156366935Y-26707220D01*
X156430435Y-26770720D01*
X158941700Y-26770720D01*
X158941700Y-27329282D01*
X156275640Y-27329282D01*
X156223635Y-27324160D01*
X151832287Y-27324160D01*
X151797797Y-27320763D01*
X151763307Y-27324160D01*
X151763298Y-27324160D01*
X151660121Y-27334322D01*
X151527735Y-27374481D01*
X151405728Y-27439695D01*
X151298787Y-27527459D01*
X151276797Y-27554255D01*
X150043118Y-28787935D01*
X147984455Y-28787935D01*
X147991310Y-28765338D01*
X147996214Y-28715545D01*
X147996214Y-27190245D01*
X147991310Y-27140452D01*
X147976786Y-27092573D01*
X147953200Y-27048447D01*
X147921459Y-27009771D01*
X147882783Y-26978030D01*
X147838657Y-26954444D01*
X147790778Y-26939920D01*
X147740985Y-26935016D01*
X140570000Y-26935016D01*
X140570000Y-26690000D01*
X144724846Y-26690000D01*
X144741000Y-26691591D01*
X144757154Y-26690000D01*
X144805495Y-26685239D01*
X144867512Y-26666426D01*
X144924667Y-26635876D01*
X144974763Y-26594763D01*
X145015876Y-26544667D01*
X145046426Y-26487512D01*
X145065239Y-26425495D01*
X145071591Y-26361000D01*
X145070000Y-26344846D01*
X145070000Y-26316060D01*
X152696635Y-26316060D01*
X152696635Y-26541737D01*
X152706396Y-26590809D01*
X152725543Y-26637034D01*
X152753340Y-26678635D01*
X152788719Y-26714015D01*
X152830321Y-26741812D01*
X152876546Y-26760959D01*
X152925618Y-26770720D01*
X155947835Y-26770720D01*
X156011335Y-26707220D01*
X156011335Y-26252560D01*
X152760135Y-26252560D01*
X152696635Y-26316060D01*
X145070000Y-26316060D01*
X145070000Y-25607783D01*
X152696635Y-25607783D01*
X152696635Y-25833460D01*
X152760135Y-25896960D01*
X156011335Y-25896960D01*
X156011335Y-25442300D01*
X155947835Y-25378800D01*
X152925618Y-25378800D01*
X152876546Y-25388561D01*
X152830321Y-25407708D01*
X152788719Y-25435505D01*
X152753340Y-25470885D01*
X152725543Y-25512486D01*
X152706396Y-25558711D01*
X152696635Y-25607783D01*
X145070000Y-25607783D01*
X145070000Y-22877154D01*
X145071591Y-22861000D01*
X145065239Y-22796505D01*
X145046426Y-22734488D01*
X145015876Y-22677333D01*
X144974763Y-22627237D01*
X144924667Y-22586124D01*
X144867512Y-22555574D01*
X144805495Y-22536761D01*
X144757154Y-22532000D01*
X144741000Y-22530409D01*
X144724846Y-22532000D01*
X140570000Y-22532000D01*
X140570000Y-22140000D01*
X158941700Y-22140000D01*
X158941700Y-25378800D01*
X158941700Y-25378800D01*
G37*
X158941700Y-25378800D02*
X156430435Y-25378800D01*
X156366935Y-25442300D01*
X156366935Y-25896960D01*
X156386935Y-25896960D01*
X156386935Y-26252560D01*
X156366935Y-26252560D01*
X156366935Y-26707220D01*
X156430435Y-26770720D01*
X158941700Y-26770720D01*
X158941700Y-27329282D01*
X156275640Y-27329282D01*
X156223635Y-27324160D01*
X151832287Y-27324160D01*
X151797797Y-27320763D01*
X151763307Y-27324160D01*
X151763298Y-27324160D01*
X151660121Y-27334322D01*
X151527735Y-27374481D01*
X151405728Y-27439695D01*
X151298787Y-27527459D01*
X151276797Y-27554255D01*
X150043118Y-28787935D01*
X147984455Y-28787935D01*
X147991310Y-28765338D01*
X147996214Y-28715545D01*
X147996214Y-27190245D01*
X147991310Y-27140452D01*
X147976786Y-27092573D01*
X147953200Y-27048447D01*
X147921459Y-27009771D01*
X147882783Y-26978030D01*
X147838657Y-26954444D01*
X147790778Y-26939920D01*
X147740985Y-26935016D01*
X140570000Y-26935016D01*
X140570000Y-26690000D01*
X144724846Y-26690000D01*
X144741000Y-26691591D01*
X144757154Y-26690000D01*
X144805495Y-26685239D01*
X144867512Y-26666426D01*
X144924667Y-26635876D01*
X144974763Y-26594763D01*
X145015876Y-26544667D01*
X145046426Y-26487512D01*
X145065239Y-26425495D01*
X145071591Y-26361000D01*
X145070000Y-26344846D01*
X145070000Y-26316060D01*
X152696635Y-26316060D01*
X152696635Y-26541737D01*
X152706396Y-26590809D01*
X152725543Y-26637034D01*
X152753340Y-26678635D01*
X152788719Y-26714015D01*
X152830321Y-26741812D01*
X152876546Y-26760959D01*
X152925618Y-26770720D01*
X155947835Y-26770720D01*
X156011335Y-26707220D01*
X156011335Y-26252560D01*
X152760135Y-26252560D01*
X152696635Y-26316060D01*
X145070000Y-26316060D01*
X145070000Y-25607783D01*
X152696635Y-25607783D01*
X152696635Y-25833460D01*
X152760135Y-25896960D01*
X156011335Y-25896960D01*
X156011335Y-25442300D01*
X155947835Y-25378800D01*
X152925618Y-25378800D01*
X152876546Y-25388561D01*
X152830321Y-25407708D01*
X152788719Y-25435505D01*
X152753340Y-25470885D01*
X152725543Y-25512486D01*
X152706396Y-25558711D01*
X152696635Y-25607783D01*
X145070000Y-25607783D01*
X145070000Y-22877154D01*
X145071591Y-22861000D01*
X145065239Y-22796505D01*
X145046426Y-22734488D01*
X145015876Y-22677333D01*
X144974763Y-22627237D01*
X144924667Y-22586124D01*
X144867512Y-22555574D01*
X144805495Y-22536761D01*
X144757154Y-22532000D01*
X144741000Y-22530409D01*
X144724846Y-22532000D01*
X140570000Y-22532000D01*
X140570000Y-22140000D01*
X158941700Y-22140000D01*
X158941700Y-25378800D01*
G04 #@! TO.N,Net-(J4-Pad2)*
G36*
X158941700Y-41124269D02*
X147996214Y-41124269D01*
X147996214Y-40023465D01*
X147991310Y-39973672D01*
X147984455Y-39951075D01*
X150299525Y-39951075D01*
X150334023Y-39954473D01*
X150368521Y-39951075D01*
X150368523Y-39951075D01*
X150471700Y-39940913D01*
X150604086Y-39900754D01*
X150726093Y-39835540D01*
X150833034Y-39747776D01*
X150855033Y-39720970D01*
X152088705Y-38487300D01*
X156223635Y-38487300D01*
X156275640Y-38482178D01*
X158941700Y-38482178D01*
X158941700Y-41124269D01*
X158941700Y-41124269D01*
G37*
X158941700Y-41124269D02*
X147996214Y-41124269D01*
X147996214Y-40023465D01*
X147991310Y-39973672D01*
X147984455Y-39951075D01*
X150299525Y-39951075D01*
X150334023Y-39954473D01*
X150368521Y-39951075D01*
X150368523Y-39951075D01*
X150471700Y-39940913D01*
X150604086Y-39900754D01*
X150726093Y-39835540D01*
X150833034Y-39747776D01*
X150855033Y-39720970D01*
X152088705Y-38487300D01*
X156223635Y-38487300D01*
X156275640Y-38482178D01*
X158941700Y-38482178D01*
X158941700Y-41124269D01*
G36*
X158941700Y-35137320D02*
X156430435Y-35137320D01*
X156366935Y-35200820D01*
X156366935Y-35655480D01*
X156386935Y-35655480D01*
X156386935Y-36011080D01*
X156366935Y-36011080D01*
X156366935Y-36465740D01*
X156430435Y-36529240D01*
X158941700Y-36529240D01*
X158941700Y-37087802D01*
X156275640Y-37087802D01*
X156223635Y-37082680D01*
X151832287Y-37082680D01*
X151797797Y-37079283D01*
X151763307Y-37082680D01*
X151763298Y-37082680D01*
X151660121Y-37092842D01*
X151527735Y-37133001D01*
X151405728Y-37198215D01*
X151298787Y-37285979D01*
X151276797Y-37312775D01*
X150043118Y-38546455D01*
X147984455Y-38546455D01*
X147991310Y-38523858D01*
X147996214Y-38474065D01*
X147996214Y-36948765D01*
X147991310Y-36898972D01*
X147976786Y-36851093D01*
X147953200Y-36806967D01*
X147921459Y-36768291D01*
X147882783Y-36736550D01*
X147838657Y-36712964D01*
X147790778Y-36698440D01*
X147740985Y-36693536D01*
X140570000Y-36693536D01*
X140570000Y-36448526D01*
X144724846Y-36448526D01*
X144741000Y-36450117D01*
X144757154Y-36448526D01*
X144805495Y-36443765D01*
X144867512Y-36424952D01*
X144924667Y-36394402D01*
X144974763Y-36353289D01*
X145015876Y-36303193D01*
X145046426Y-36246038D01*
X145065239Y-36184021D01*
X145071591Y-36119526D01*
X145070000Y-36103372D01*
X145070000Y-36074580D01*
X152696635Y-36074580D01*
X152696635Y-36300257D01*
X152706396Y-36349329D01*
X152725543Y-36395554D01*
X152753340Y-36437155D01*
X152788719Y-36472535D01*
X152830321Y-36500332D01*
X152876546Y-36519479D01*
X152925618Y-36529240D01*
X155947835Y-36529240D01*
X156011335Y-36465740D01*
X156011335Y-36011080D01*
X152760135Y-36011080D01*
X152696635Y-36074580D01*
X145070000Y-36074580D01*
X145070000Y-35366303D01*
X152696635Y-35366303D01*
X152696635Y-35591980D01*
X152760135Y-35655480D01*
X156011335Y-35655480D01*
X156011335Y-35200820D01*
X155947835Y-35137320D01*
X152925618Y-35137320D01*
X152876546Y-35147081D01*
X152830321Y-35166228D01*
X152788719Y-35194025D01*
X152753340Y-35229405D01*
X152725543Y-35271006D01*
X152706396Y-35317231D01*
X152696635Y-35366303D01*
X145070000Y-35366303D01*
X145070000Y-32635680D01*
X145071591Y-32619526D01*
X145065239Y-32555031D01*
X145046725Y-32494001D01*
X158941700Y-32494001D01*
X158941700Y-35137320D01*
X158941700Y-35137320D01*
G37*
X158941700Y-35137320D02*
X156430435Y-35137320D01*
X156366935Y-35200820D01*
X156366935Y-35655480D01*
X156386935Y-35655480D01*
X156386935Y-36011080D01*
X156366935Y-36011080D01*
X156366935Y-36465740D01*
X156430435Y-36529240D01*
X158941700Y-36529240D01*
X158941700Y-37087802D01*
X156275640Y-37087802D01*
X156223635Y-37082680D01*
X151832287Y-37082680D01*
X151797797Y-37079283D01*
X151763307Y-37082680D01*
X151763298Y-37082680D01*
X151660121Y-37092842D01*
X151527735Y-37133001D01*
X151405728Y-37198215D01*
X151298787Y-37285979D01*
X151276797Y-37312775D01*
X150043118Y-38546455D01*
X147984455Y-38546455D01*
X147991310Y-38523858D01*
X147996214Y-38474065D01*
X147996214Y-36948765D01*
X147991310Y-36898972D01*
X147976786Y-36851093D01*
X147953200Y-36806967D01*
X147921459Y-36768291D01*
X147882783Y-36736550D01*
X147838657Y-36712964D01*
X147790778Y-36698440D01*
X147740985Y-36693536D01*
X140570000Y-36693536D01*
X140570000Y-36448526D01*
X144724846Y-36448526D01*
X144741000Y-36450117D01*
X144757154Y-36448526D01*
X144805495Y-36443765D01*
X144867512Y-36424952D01*
X144924667Y-36394402D01*
X144974763Y-36353289D01*
X145015876Y-36303193D01*
X145046426Y-36246038D01*
X145065239Y-36184021D01*
X145071591Y-36119526D01*
X145070000Y-36103372D01*
X145070000Y-36074580D01*
X152696635Y-36074580D01*
X152696635Y-36300257D01*
X152706396Y-36349329D01*
X152725543Y-36395554D01*
X152753340Y-36437155D01*
X152788719Y-36472535D01*
X152830321Y-36500332D01*
X152876546Y-36519479D01*
X152925618Y-36529240D01*
X155947835Y-36529240D01*
X156011335Y-36465740D01*
X156011335Y-36011080D01*
X152760135Y-36011080D01*
X152696635Y-36074580D01*
X145070000Y-36074580D01*
X145070000Y-35366303D01*
X152696635Y-35366303D01*
X152696635Y-35591980D01*
X152760135Y-35655480D01*
X156011335Y-35655480D01*
X156011335Y-35200820D01*
X155947835Y-35137320D01*
X152925618Y-35137320D01*
X152876546Y-35147081D01*
X152830321Y-35166228D01*
X152788719Y-35194025D01*
X152753340Y-35229405D01*
X152725543Y-35271006D01*
X152706396Y-35317231D01*
X152696635Y-35366303D01*
X145070000Y-35366303D01*
X145070000Y-32635680D01*
X145071591Y-32619526D01*
X145065239Y-32555031D01*
X145046725Y-32494001D01*
X158941700Y-32494001D01*
X158941700Y-35137320D01*
G04 #@! TO.N,Net-(J7-Pad2)*
G36*
X158941701Y-50882789D02*
X147996214Y-50882789D01*
X147996214Y-49781985D01*
X147991310Y-49732192D01*
X147984455Y-49709595D01*
X150299525Y-49709595D01*
X150334023Y-49712993D01*
X150368521Y-49709595D01*
X150368523Y-49709595D01*
X150471700Y-49699433D01*
X150604086Y-49659274D01*
X150726093Y-49594060D01*
X150833034Y-49506296D01*
X150855033Y-49479490D01*
X152088707Y-48245817D01*
X156223635Y-48245817D01*
X156275640Y-48240695D01*
X158941701Y-48240695D01*
X158941701Y-50882789D01*
X158941701Y-50882789D01*
G37*
X158941701Y-50882789D02*
X147996214Y-50882789D01*
X147996214Y-49781985D01*
X147991310Y-49732192D01*
X147984455Y-49709595D01*
X150299525Y-49709595D01*
X150334023Y-49712993D01*
X150368521Y-49709595D01*
X150368523Y-49709595D01*
X150471700Y-49699433D01*
X150604086Y-49659274D01*
X150726093Y-49594060D01*
X150833034Y-49506296D01*
X150855033Y-49479490D01*
X152088707Y-48245817D01*
X156223635Y-48245817D01*
X156275640Y-48240695D01*
X158941701Y-48240695D01*
X158941701Y-50882789D01*
G36*
X158941700Y-44895837D02*
X156430435Y-44895837D01*
X156366935Y-44959337D01*
X156366935Y-45413997D01*
X156386935Y-45413997D01*
X156386935Y-45769597D01*
X156366935Y-45769597D01*
X156366935Y-46224257D01*
X156430435Y-46287757D01*
X158941700Y-46287757D01*
X158941701Y-46846319D01*
X156275640Y-46846319D01*
X156223635Y-46841197D01*
X151832301Y-46841197D01*
X151797801Y-46837799D01*
X151660123Y-46851359D01*
X151612693Y-46865747D01*
X151527738Y-46891518D01*
X151405731Y-46956732D01*
X151298790Y-47044496D01*
X151276795Y-47071297D01*
X150043118Y-48304975D01*
X147984455Y-48304975D01*
X147991310Y-48282378D01*
X147996214Y-48232585D01*
X147996214Y-46707285D01*
X147991310Y-46657492D01*
X147976786Y-46609613D01*
X147953200Y-46565487D01*
X147921459Y-46526811D01*
X147882783Y-46495070D01*
X147838657Y-46471484D01*
X147790778Y-46456960D01*
X147740985Y-46452056D01*
X140570000Y-46452056D01*
X140570000Y-46207052D01*
X144724846Y-46207052D01*
X144741000Y-46208643D01*
X144757154Y-46207052D01*
X144805495Y-46202291D01*
X144867512Y-46183478D01*
X144924667Y-46152928D01*
X144974763Y-46111815D01*
X145015876Y-46061719D01*
X145046426Y-46004564D01*
X145065239Y-45942547D01*
X145071591Y-45878052D01*
X145070000Y-45861898D01*
X145070000Y-45833097D01*
X152696635Y-45833097D01*
X152696635Y-46058774D01*
X152706396Y-46107846D01*
X152725543Y-46154071D01*
X152753340Y-46195672D01*
X152788719Y-46231052D01*
X152830321Y-46258849D01*
X152876546Y-46277996D01*
X152925618Y-46287757D01*
X155947835Y-46287757D01*
X156011335Y-46224257D01*
X156011335Y-45769597D01*
X152760135Y-45769597D01*
X152696635Y-45833097D01*
X145070000Y-45833097D01*
X145070000Y-45124820D01*
X152696635Y-45124820D01*
X152696635Y-45350497D01*
X152760135Y-45413997D01*
X156011335Y-45413997D01*
X156011335Y-44959337D01*
X155947835Y-44895837D01*
X152925618Y-44895837D01*
X152876546Y-44905598D01*
X152830321Y-44924745D01*
X152788719Y-44952542D01*
X152753340Y-44987922D01*
X152725543Y-45029523D01*
X152706396Y-45075748D01*
X152696635Y-45124820D01*
X145070000Y-45124820D01*
X145070000Y-42394206D01*
X145071591Y-42378052D01*
X145065239Y-42313557D01*
X145046724Y-42252521D01*
X158941700Y-42252521D01*
X158941700Y-44895837D01*
X158941700Y-44895837D01*
G37*
X158941700Y-44895837D02*
X156430435Y-44895837D01*
X156366935Y-44959337D01*
X156366935Y-45413997D01*
X156386935Y-45413997D01*
X156386935Y-45769597D01*
X156366935Y-45769597D01*
X156366935Y-46224257D01*
X156430435Y-46287757D01*
X158941700Y-46287757D01*
X158941701Y-46846319D01*
X156275640Y-46846319D01*
X156223635Y-46841197D01*
X151832301Y-46841197D01*
X151797801Y-46837799D01*
X151660123Y-46851359D01*
X151612693Y-46865747D01*
X151527738Y-46891518D01*
X151405731Y-46956732D01*
X151298790Y-47044496D01*
X151276795Y-47071297D01*
X150043118Y-48304975D01*
X147984455Y-48304975D01*
X147991310Y-48282378D01*
X147996214Y-48232585D01*
X147996214Y-46707285D01*
X147991310Y-46657492D01*
X147976786Y-46609613D01*
X147953200Y-46565487D01*
X147921459Y-46526811D01*
X147882783Y-46495070D01*
X147838657Y-46471484D01*
X147790778Y-46456960D01*
X147740985Y-46452056D01*
X140570000Y-46452056D01*
X140570000Y-46207052D01*
X144724846Y-46207052D01*
X144741000Y-46208643D01*
X144757154Y-46207052D01*
X144805495Y-46202291D01*
X144867512Y-46183478D01*
X144924667Y-46152928D01*
X144974763Y-46111815D01*
X145015876Y-46061719D01*
X145046426Y-46004564D01*
X145065239Y-45942547D01*
X145071591Y-45878052D01*
X145070000Y-45861898D01*
X145070000Y-45833097D01*
X152696635Y-45833097D01*
X152696635Y-46058774D01*
X152706396Y-46107846D01*
X152725543Y-46154071D01*
X152753340Y-46195672D01*
X152788719Y-46231052D01*
X152830321Y-46258849D01*
X152876546Y-46277996D01*
X152925618Y-46287757D01*
X155947835Y-46287757D01*
X156011335Y-46224257D01*
X156011335Y-45769597D01*
X152760135Y-45769597D01*
X152696635Y-45833097D01*
X145070000Y-45833097D01*
X145070000Y-45124820D01*
X152696635Y-45124820D01*
X152696635Y-45350497D01*
X152760135Y-45413997D01*
X156011335Y-45413997D01*
X156011335Y-44959337D01*
X155947835Y-44895837D01*
X152925618Y-44895837D01*
X152876546Y-44905598D01*
X152830321Y-44924745D01*
X152788719Y-44952542D01*
X152753340Y-44987922D01*
X152725543Y-45029523D01*
X152706396Y-45075748D01*
X152696635Y-45124820D01*
X145070000Y-45124820D01*
X145070000Y-42394206D01*
X145071591Y-42378052D01*
X145065239Y-42313557D01*
X145046724Y-42252521D01*
X158941700Y-42252521D01*
X158941700Y-44895837D01*
G04 #@! TO.N,Net-(J10-Pad2)*
G36*
X158941701Y-60641309D02*
X147996214Y-60641309D01*
X147996214Y-59540505D01*
X147991310Y-59490712D01*
X147984455Y-59468115D01*
X150299525Y-59468115D01*
X150334023Y-59471513D01*
X150368521Y-59468115D01*
X150368523Y-59468115D01*
X150471700Y-59457953D01*
X150604086Y-59417794D01*
X150726093Y-59352580D01*
X150833034Y-59264816D01*
X150855033Y-59238010D01*
X152088707Y-58004337D01*
X156223635Y-58004337D01*
X156275640Y-57999215D01*
X158941701Y-57999215D01*
X158941701Y-60641309D01*
X158941701Y-60641309D01*
G37*
X158941701Y-60641309D02*
X147996214Y-60641309D01*
X147996214Y-59540505D01*
X147991310Y-59490712D01*
X147984455Y-59468115D01*
X150299525Y-59468115D01*
X150334023Y-59471513D01*
X150368521Y-59468115D01*
X150368523Y-59468115D01*
X150471700Y-59457953D01*
X150604086Y-59417794D01*
X150726093Y-59352580D01*
X150833034Y-59264816D01*
X150855033Y-59238010D01*
X152088707Y-58004337D01*
X156223635Y-58004337D01*
X156275640Y-57999215D01*
X158941701Y-57999215D01*
X158941701Y-60641309D01*
G36*
X158941701Y-54654357D02*
X156430435Y-54654357D01*
X156366935Y-54717857D01*
X156366935Y-55172517D01*
X156386935Y-55172517D01*
X156386935Y-55528117D01*
X156366935Y-55528117D01*
X156366935Y-55982777D01*
X156430435Y-56046277D01*
X158941701Y-56046277D01*
X158941701Y-56604839D01*
X156275640Y-56604839D01*
X156223635Y-56599717D01*
X151832301Y-56599717D01*
X151797801Y-56596319D01*
X151660123Y-56609879D01*
X151612693Y-56624267D01*
X151527738Y-56650038D01*
X151405731Y-56715252D01*
X151298790Y-56803016D01*
X151276795Y-56829817D01*
X150043118Y-58063495D01*
X147984455Y-58063495D01*
X147991310Y-58040898D01*
X147996214Y-57991105D01*
X147996214Y-56465805D01*
X147991310Y-56416012D01*
X147976786Y-56368133D01*
X147953200Y-56324007D01*
X147921459Y-56285331D01*
X147882783Y-56253590D01*
X147838657Y-56230004D01*
X147790778Y-56215480D01*
X147740985Y-56210576D01*
X140570000Y-56210576D01*
X140570000Y-55965578D01*
X144724846Y-55965578D01*
X144741000Y-55967169D01*
X144757154Y-55965578D01*
X144805495Y-55960817D01*
X144867512Y-55942004D01*
X144924667Y-55911454D01*
X144974763Y-55870341D01*
X145015876Y-55820245D01*
X145046426Y-55763090D01*
X145065239Y-55701073D01*
X145071591Y-55636578D01*
X145070000Y-55620424D01*
X145070000Y-55591617D01*
X152696635Y-55591617D01*
X152696635Y-55817294D01*
X152706396Y-55866366D01*
X152725543Y-55912591D01*
X152753340Y-55954192D01*
X152788719Y-55989572D01*
X152830321Y-56017369D01*
X152876546Y-56036516D01*
X152925618Y-56046277D01*
X155947835Y-56046277D01*
X156011335Y-55982777D01*
X156011335Y-55528117D01*
X152760135Y-55528117D01*
X152696635Y-55591617D01*
X145070000Y-55591617D01*
X145070000Y-54883340D01*
X152696635Y-54883340D01*
X152696635Y-55109017D01*
X152760135Y-55172517D01*
X156011335Y-55172517D01*
X156011335Y-54717857D01*
X155947835Y-54654357D01*
X152925618Y-54654357D01*
X152876546Y-54664118D01*
X152830321Y-54683265D01*
X152788719Y-54711062D01*
X152753340Y-54746442D01*
X152725543Y-54788043D01*
X152706396Y-54834268D01*
X152696635Y-54883340D01*
X145070000Y-54883340D01*
X145070000Y-52152732D01*
X145071591Y-52136578D01*
X145065239Y-52072083D01*
X145046722Y-52011041D01*
X158941701Y-52011041D01*
X158941701Y-54654357D01*
X158941701Y-54654357D01*
G37*
X158941701Y-54654357D02*
X156430435Y-54654357D01*
X156366935Y-54717857D01*
X156366935Y-55172517D01*
X156386935Y-55172517D01*
X156386935Y-55528117D01*
X156366935Y-55528117D01*
X156366935Y-55982777D01*
X156430435Y-56046277D01*
X158941701Y-56046277D01*
X158941701Y-56604839D01*
X156275640Y-56604839D01*
X156223635Y-56599717D01*
X151832301Y-56599717D01*
X151797801Y-56596319D01*
X151660123Y-56609879D01*
X151612693Y-56624267D01*
X151527738Y-56650038D01*
X151405731Y-56715252D01*
X151298790Y-56803016D01*
X151276795Y-56829817D01*
X150043118Y-58063495D01*
X147984455Y-58063495D01*
X147991310Y-58040898D01*
X147996214Y-57991105D01*
X147996214Y-56465805D01*
X147991310Y-56416012D01*
X147976786Y-56368133D01*
X147953200Y-56324007D01*
X147921459Y-56285331D01*
X147882783Y-56253590D01*
X147838657Y-56230004D01*
X147790778Y-56215480D01*
X147740985Y-56210576D01*
X140570000Y-56210576D01*
X140570000Y-55965578D01*
X144724846Y-55965578D01*
X144741000Y-55967169D01*
X144757154Y-55965578D01*
X144805495Y-55960817D01*
X144867512Y-55942004D01*
X144924667Y-55911454D01*
X144974763Y-55870341D01*
X145015876Y-55820245D01*
X145046426Y-55763090D01*
X145065239Y-55701073D01*
X145071591Y-55636578D01*
X145070000Y-55620424D01*
X145070000Y-55591617D01*
X152696635Y-55591617D01*
X152696635Y-55817294D01*
X152706396Y-55866366D01*
X152725543Y-55912591D01*
X152753340Y-55954192D01*
X152788719Y-55989572D01*
X152830321Y-56017369D01*
X152876546Y-56036516D01*
X152925618Y-56046277D01*
X155947835Y-56046277D01*
X156011335Y-55982777D01*
X156011335Y-55528117D01*
X152760135Y-55528117D01*
X152696635Y-55591617D01*
X145070000Y-55591617D01*
X145070000Y-54883340D01*
X152696635Y-54883340D01*
X152696635Y-55109017D01*
X152760135Y-55172517D01*
X156011335Y-55172517D01*
X156011335Y-54717857D01*
X155947835Y-54654357D01*
X152925618Y-54654357D01*
X152876546Y-54664118D01*
X152830321Y-54683265D01*
X152788719Y-54711062D01*
X152753340Y-54746442D01*
X152725543Y-54788043D01*
X152706396Y-54834268D01*
X152696635Y-54883340D01*
X145070000Y-54883340D01*
X145070000Y-52152732D01*
X145071591Y-52136578D01*
X145065239Y-52072083D01*
X145046722Y-52011041D01*
X158941701Y-52011041D01*
X158941701Y-54654357D01*
G04 #@! TO.N,Net-(J13-Pad2)*
G36*
X158941701Y-70995500D02*
X147929091Y-70995500D01*
X147953200Y-70966123D01*
X147976786Y-70921997D01*
X147991310Y-70874118D01*
X147996214Y-70824325D01*
X147996214Y-69299025D01*
X147991310Y-69249232D01*
X147984455Y-69226635D01*
X150299525Y-69226635D01*
X150334023Y-69230033D01*
X150368521Y-69226635D01*
X150368523Y-69226635D01*
X150471700Y-69216473D01*
X150604086Y-69176314D01*
X150726093Y-69111100D01*
X150833034Y-69023336D01*
X150855033Y-68996530D01*
X152088702Y-67762863D01*
X156223635Y-67762863D01*
X156275640Y-67757741D01*
X158941701Y-67757741D01*
X158941701Y-70995500D01*
X158941701Y-70995500D01*
G37*
X158941701Y-70995500D02*
X147929091Y-70995500D01*
X147953200Y-70966123D01*
X147976786Y-70921997D01*
X147991310Y-70874118D01*
X147996214Y-70824325D01*
X147996214Y-69299025D01*
X147991310Y-69249232D01*
X147984455Y-69226635D01*
X150299525Y-69226635D01*
X150334023Y-69230033D01*
X150368521Y-69226635D01*
X150368523Y-69226635D01*
X150471700Y-69216473D01*
X150604086Y-69176314D01*
X150726093Y-69111100D01*
X150833034Y-69023336D01*
X150855033Y-68996530D01*
X152088702Y-67762863D01*
X156223635Y-67762863D01*
X156275640Y-67757741D01*
X158941701Y-67757741D01*
X158941701Y-70995500D01*
G36*
X158941701Y-64412883D02*
X156430435Y-64412883D01*
X156366935Y-64476383D01*
X156366935Y-64931043D01*
X156386935Y-64931043D01*
X156386935Y-65286643D01*
X156366935Y-65286643D01*
X156366935Y-65741303D01*
X156430435Y-65804803D01*
X158941701Y-65804803D01*
X158941701Y-66363365D01*
X156275640Y-66363365D01*
X156223635Y-66358243D01*
X151832285Y-66358243D01*
X151797794Y-66354846D01*
X151763304Y-66358243D01*
X151763295Y-66358243D01*
X151660118Y-66368405D01*
X151527732Y-66408564D01*
X151405725Y-66473778D01*
X151298784Y-66561542D01*
X151276794Y-66588338D01*
X150043118Y-67822015D01*
X147984455Y-67822015D01*
X147991310Y-67799418D01*
X147996214Y-67749625D01*
X147996214Y-66224325D01*
X147991310Y-66174532D01*
X147976786Y-66126653D01*
X147953200Y-66082527D01*
X147921459Y-66043851D01*
X147882783Y-66012110D01*
X147838657Y-65988524D01*
X147790778Y-65974000D01*
X147740985Y-65969096D01*
X140570000Y-65969096D01*
X140570000Y-65724104D01*
X144724846Y-65724104D01*
X144741000Y-65725695D01*
X144757154Y-65724104D01*
X144805495Y-65719343D01*
X144867512Y-65700530D01*
X144924667Y-65669980D01*
X144974763Y-65628867D01*
X145015876Y-65578771D01*
X145046426Y-65521616D01*
X145065239Y-65459599D01*
X145071591Y-65395104D01*
X145070000Y-65378950D01*
X145070000Y-65350143D01*
X152696635Y-65350143D01*
X152696635Y-65575820D01*
X152706396Y-65624892D01*
X152725543Y-65671117D01*
X152753340Y-65712718D01*
X152788719Y-65748098D01*
X152830321Y-65775895D01*
X152876546Y-65795042D01*
X152925618Y-65804803D01*
X155947835Y-65804803D01*
X156011335Y-65741303D01*
X156011335Y-65286643D01*
X152760135Y-65286643D01*
X152696635Y-65350143D01*
X145070000Y-65350143D01*
X145070000Y-64641866D01*
X152696635Y-64641866D01*
X152696635Y-64867543D01*
X152760135Y-64931043D01*
X156011335Y-64931043D01*
X156011335Y-64476383D01*
X155947835Y-64412883D01*
X152925618Y-64412883D01*
X152876546Y-64422644D01*
X152830321Y-64441791D01*
X152788719Y-64469588D01*
X152753340Y-64504968D01*
X152725543Y-64546569D01*
X152706396Y-64592794D01*
X152696635Y-64641866D01*
X145070000Y-64641866D01*
X145070000Y-61911258D01*
X145071591Y-61895104D01*
X145065239Y-61830609D01*
X145046720Y-61769561D01*
X158941701Y-61769561D01*
X158941701Y-64412883D01*
X158941701Y-64412883D01*
G37*
X158941701Y-64412883D02*
X156430435Y-64412883D01*
X156366935Y-64476383D01*
X156366935Y-64931043D01*
X156386935Y-64931043D01*
X156386935Y-65286643D01*
X156366935Y-65286643D01*
X156366935Y-65741303D01*
X156430435Y-65804803D01*
X158941701Y-65804803D01*
X158941701Y-66363365D01*
X156275640Y-66363365D01*
X156223635Y-66358243D01*
X151832285Y-66358243D01*
X151797794Y-66354846D01*
X151763304Y-66358243D01*
X151763295Y-66358243D01*
X151660118Y-66368405D01*
X151527732Y-66408564D01*
X151405725Y-66473778D01*
X151298784Y-66561542D01*
X151276794Y-66588338D01*
X150043118Y-67822015D01*
X147984455Y-67822015D01*
X147991310Y-67799418D01*
X147996214Y-67749625D01*
X147996214Y-66224325D01*
X147991310Y-66174532D01*
X147976786Y-66126653D01*
X147953200Y-66082527D01*
X147921459Y-66043851D01*
X147882783Y-66012110D01*
X147838657Y-65988524D01*
X147790778Y-65974000D01*
X147740985Y-65969096D01*
X140570000Y-65969096D01*
X140570000Y-65724104D01*
X144724846Y-65724104D01*
X144741000Y-65725695D01*
X144757154Y-65724104D01*
X144805495Y-65719343D01*
X144867512Y-65700530D01*
X144924667Y-65669980D01*
X144974763Y-65628867D01*
X145015876Y-65578771D01*
X145046426Y-65521616D01*
X145065239Y-65459599D01*
X145071591Y-65395104D01*
X145070000Y-65378950D01*
X145070000Y-65350143D01*
X152696635Y-65350143D01*
X152696635Y-65575820D01*
X152706396Y-65624892D01*
X152725543Y-65671117D01*
X152753340Y-65712718D01*
X152788719Y-65748098D01*
X152830321Y-65775895D01*
X152876546Y-65795042D01*
X152925618Y-65804803D01*
X155947835Y-65804803D01*
X156011335Y-65741303D01*
X156011335Y-65286643D01*
X152760135Y-65286643D01*
X152696635Y-65350143D01*
X145070000Y-65350143D01*
X145070000Y-64641866D01*
X152696635Y-64641866D01*
X152696635Y-64867543D01*
X152760135Y-64931043D01*
X156011335Y-64931043D01*
X156011335Y-64476383D01*
X155947835Y-64412883D01*
X152925618Y-64412883D01*
X152876546Y-64422644D01*
X152830321Y-64441791D01*
X152788719Y-64469588D01*
X152753340Y-64504968D01*
X152725543Y-64546569D01*
X152706396Y-64592794D01*
X152696635Y-64641866D01*
X145070000Y-64641866D01*
X145070000Y-61911258D01*
X145071591Y-61895104D01*
X145065239Y-61830609D01*
X145046720Y-61769561D01*
X158941701Y-61769561D01*
X158941701Y-64412883D01*
G04 #@! TD*
M02*
