G04 #@! TF.GenerationSoftware,KiCad,Pcbnew,(5.0.2)-1*
G04 #@! TF.CreationDate,2019-09-04T12:36:58-04:00*
G04 #@! TF.ProjectId,MMCX_2DD-100P_Both,4d4d4358-5f32-4444-942d-313030505f42,rev?*
G04 #@! TF.SameCoordinates,Original*
G04 #@! TF.FileFunction,Profile,NP*
%FSLAX46Y46*%
G04 Gerber Fmt 4.6, Leading zero omitted, Abs format (unit mm)*
G04 Created by KiCad (PCBNEW (5.0.2)-1) date 9/4/2019 12:36:58 PM*
%MOMM*%
%LPD*%
G01*
G04 APERTURE LIST*
%ADD10C,0.150000*%
G04 APERTURE END LIST*
D10*
X80560605Y-100581771D02*
X80560605Y-98867525D01*
X87391569Y-100581771D02*
X93453505Y-100581771D01*
X87391569Y-98867525D02*
X87391569Y-100581771D01*
X93452662Y-98867525D02*
X87391569Y-98867525D01*
X74423805Y-100581771D02*
X74423805Y-101631771D01*
X74423805Y-149045138D02*
X74423805Y-150095271D01*
X74423805Y-144165875D02*
X74423805Y-145545138D01*
X74423805Y-139286612D02*
X74423805Y-140665875D01*
X74423805Y-134407349D02*
X74423805Y-135786612D01*
X74423805Y-129528086D02*
X74423805Y-130907349D01*
X74423805Y-124648823D02*
X74423805Y-126028086D01*
X74423805Y-119769560D02*
X74423805Y-121148823D01*
X74423805Y-114890297D02*
X74423805Y-116269560D01*
X74423805Y-110011034D02*
X74423805Y-111390297D01*
X74423805Y-105131771D02*
X74423805Y-106511034D01*
X78923805Y-145545138D02*
X78923805Y-149045138D01*
X78923805Y-140665875D02*
X78923805Y-144165875D01*
X78923805Y-135786612D02*
X78923805Y-139286612D01*
X78923805Y-130907349D02*
X78923805Y-134407349D01*
X78923805Y-126028086D02*
X78923805Y-129528086D01*
X78923805Y-121148823D02*
X78923805Y-124648823D01*
X78923805Y-116269560D02*
X78923805Y-119769560D01*
X78923805Y-111390297D02*
X78923805Y-114890297D01*
X78923805Y-106511034D02*
X78923805Y-110011034D01*
X74423805Y-149045138D02*
X78923805Y-149045138D01*
X74423805Y-144165875D02*
X78923805Y-144165875D01*
X74423805Y-139286612D02*
X78923805Y-139286612D01*
X74423805Y-134407349D02*
X78923805Y-134407349D01*
X74423805Y-129528086D02*
X78923805Y-129528086D01*
X74423805Y-124648823D02*
X78923805Y-124648823D01*
X74423805Y-119769560D02*
X78923805Y-119769560D01*
X74423805Y-114890297D02*
X78923805Y-114890297D01*
X74423805Y-110011034D02*
X78923805Y-110011034D01*
X74423805Y-145545138D02*
X78923805Y-145545138D01*
X74423805Y-140665875D02*
X78923805Y-140665875D01*
X74423805Y-135786612D02*
X78923805Y-135786612D01*
X74423805Y-130907349D02*
X78923805Y-130907349D01*
X74423805Y-126028086D02*
X78923805Y-126028086D01*
X74423805Y-121148823D02*
X78923805Y-121148823D01*
X74423805Y-116269560D02*
X78923805Y-116269560D01*
X74423805Y-111390297D02*
X78923805Y-111390297D01*
X74423805Y-106511034D02*
X78923805Y-106511034D01*
X78923805Y-101631771D02*
X78923805Y-105131771D01*
X74423805Y-105131771D02*
X78923805Y-105131771D01*
X74423805Y-101631771D02*
X78923805Y-101631771D01*
X93453505Y-100581771D02*
X93453505Y-150095271D01*
X74423805Y-100581771D02*
X80560605Y-100581771D01*
X93453505Y-150095271D02*
X74423805Y-150095271D01*
X93452662Y-98867525D02*
X93452662Y-97817525D01*
X93452662Y-50404158D02*
X93452662Y-49354025D01*
X93452662Y-55283421D02*
X93452662Y-53904158D01*
X93452662Y-60162684D02*
X93452662Y-58783421D01*
X93452662Y-65041947D02*
X93452662Y-63662684D01*
X93452662Y-69921210D02*
X93452662Y-68541947D01*
X93452662Y-74800473D02*
X93452662Y-73421210D01*
X93452662Y-79679736D02*
X93452662Y-78300473D01*
X93452662Y-84558999D02*
X93452662Y-83179736D01*
X93452662Y-89438262D02*
X93452662Y-88058999D01*
X93452662Y-94317525D02*
X93452662Y-92938262D01*
X88952662Y-53904158D02*
X88952662Y-50404158D01*
X88952662Y-58783421D02*
X88952662Y-55283421D01*
X88952662Y-63662684D02*
X88952662Y-60162684D01*
X88952662Y-68541947D02*
X88952662Y-65041947D01*
X88952662Y-73421210D02*
X88952662Y-69921210D01*
X88952662Y-78300473D02*
X88952662Y-74800473D01*
X88952662Y-83179736D02*
X88952662Y-79679736D01*
X88952662Y-88058999D02*
X88952662Y-84558999D01*
X88952662Y-92938262D02*
X88952662Y-89438262D01*
X93452662Y-50404158D02*
X88952662Y-50404158D01*
X93452662Y-55283421D02*
X88952662Y-55283421D01*
X93452662Y-60162684D02*
X88952662Y-60162684D01*
X93452662Y-65041947D02*
X88952662Y-65041947D01*
X93452662Y-69921210D02*
X88952662Y-69921210D01*
X93452662Y-74800473D02*
X88952662Y-74800473D01*
X93452662Y-79679736D02*
X88952662Y-79679736D01*
X93452662Y-84558999D02*
X88952662Y-84558999D01*
X93452662Y-89438262D02*
X88952662Y-89438262D01*
X93452662Y-53904158D02*
X88952662Y-53904158D01*
X93452662Y-58783421D02*
X88952662Y-58783421D01*
X93452662Y-63662684D02*
X88952662Y-63662684D01*
X93452662Y-68541947D02*
X88952662Y-68541947D01*
X93452662Y-73421210D02*
X88952662Y-73421210D01*
X93452662Y-78300473D02*
X88952662Y-78300473D01*
X93452662Y-83179736D02*
X88952662Y-83179736D01*
X93452662Y-88058999D02*
X88952662Y-88058999D01*
X93452662Y-92938262D02*
X88952662Y-92938262D01*
X88952662Y-97817525D02*
X88952662Y-94317525D01*
X93452662Y-94317525D02*
X88952662Y-94317525D01*
X93452662Y-97817525D02*
X88952662Y-97817525D01*
X74422962Y-98867525D02*
X74422962Y-49354025D01*
X80560605Y-98867525D02*
X74422962Y-98867525D01*
X74422962Y-49354025D02*
X93452662Y-49354025D01*
M02*
