M48
;DRILL file {KiCad (5.0.2)-1} date 9/4/2019 12:37:02 PM
;FORMAT={-:-/ absolute / inch / decimal}
FMAT,2
INCH,TZ
T1C0.0157
%
G90
G05
T1
X2.9745Y-2.0533
X2.9745Y-2.2454
X2.9745Y-2.4375
X2.9745Y-2.6296
X2.9745Y-2.8217
X2.9745Y-3.0138
X2.9745Y-3.2059
X2.9745Y-3.398
X2.9745Y-3.5901
X2.9745Y-3.7822
X3.0706Y-2.0533
X3.0706Y-2.2454
X3.0706Y-2.4375
X3.0706Y-2.6296
X3.0706Y-2.8217
X3.0706Y-3.0138
X3.0706Y-3.2059
X3.0706Y-3.398
X3.0706Y-3.5901
X3.0706Y-3.7822
X3.1666Y-2.0533
X3.1666Y-2.2454
X3.1666Y-2.4375
X3.1666Y-2.6296
X3.1666Y-2.8217
X3.1666Y-3.0138
X3.1666Y-3.2059
X3.1666Y-3.398
X3.1666Y-3.5901
X3.1666Y-3.7822
X3.2242Y-2.0341
X3.2242Y-2.2646
X3.2242Y-2.4183
X3.2242Y-2.6488
X3.2242Y-2.8025
X3.2242Y-3.033
X3.2242Y-3.1867
X3.2242Y-3.4172
X3.2242Y-3.5709
X3.2242Y-3.8014
X3.2477Y-5.6674
X3.2506Y-4.0125
X3.2506Y-4.1307
X3.2506Y-4.2046
X3.2506Y-4.3199
X3.2506Y-4.3967
X3.2506Y-4.512
X3.2506Y-4.5888
X3.2506Y-4.706
X3.2506Y-4.7809
X3.2506Y-4.8962
X3.2506Y-4.973
X3.2506Y-5.0902
X3.2506Y-5.2804
X3.2506Y-5.3572
X3.2506Y-5.7414
X3.2506Y-5.1651
X3.2506Y-5.4754
X3.2506Y-5.5493
X3.2506Y-5.8586
X3.2627Y-2.1494
X3.2627Y-2.5336
X3.2627Y-2.9178
X3.2627Y-3.3019
X3.2627Y-3.6861
X3.2819Y-1.9957
X3.2819Y-2.303
X3.2819Y-2.3799
X3.2819Y-2.6872
X3.2819Y-2.7641
X3.2819Y-3.0714
X3.2819Y-3.1483
X3.2819Y-3.4556
X3.2819Y-3.5325
X3.2819Y-3.8398
X3.3011Y-2.1109
X3.3011Y-2.1878
X3.3011Y-2.4951
X3.3011Y-2.572
X3.3011Y-2.8793
X3.3011Y-2.9562
X3.3011Y-3.2635
X3.3011Y-3.3404
X3.3011Y-3.6477
X3.3011Y-3.7246
X3.3082Y-4.1278
X3.3082Y-4.2046
X3.3082Y-4.512
X3.3082Y-4.5888
X3.3082Y-4.8962
X3.3082Y-4.973
X3.3082Y-5.2804
X3.3082Y-5.3572
X3.3082Y-5.6646
X3.3082Y-5.7414
X3.3274Y-4.0125
X3.3274Y-4.3199
X3.3274Y-4.3967
X3.3274Y-4.7041
X3.3274Y-4.7809
X3.3274Y-5.0883
X3.3274Y-5.1651
X3.3274Y-5.4725
X3.3274Y-5.5493
X3.3274Y-5.8566
X3.3466Y-4.1662
X3.3466Y-4.5504
X3.3466Y-4.9346
X3.3466Y-5.3188
X3.3466Y-5.703
X3.3587Y-1.9938
X3.3587Y-2.303
X3.3587Y-2.377
X3.3587Y-2.6872
X3.3587Y-2.1109
X3.3587Y-2.4951
X3.3587Y-2.572
X3.3587Y-2.7622
X3.3587Y-2.8793
X3.3587Y-2.9562
X3.3587Y-3.0714
X3.3587Y-3.1464
X3.3587Y-3.2635
X3.3587Y-3.3404
X3.3587Y-3.4556
X3.3587Y-3.5325
X3.3587Y-3.6477
X3.3587Y-3.7217
X3.3587Y-3.8398
X3.3616Y-2.1849
X3.3851Y-4.0509
X3.3851Y-4.2815
X3.3851Y-4.4351
X3.3851Y-4.6656
X3.3851Y-4.8193
X3.3851Y-5.0498
X3.3851Y-5.2035
X3.3851Y-5.434
X3.3851Y-5.5877
X3.3851Y-5.8182
X3.4427Y-4.1086
X3.4427Y-4.3007
X3.4427Y-4.4928
X3.4427Y-4.6849
X3.4427Y-4.877
X3.4427Y-5.0691
X3.4427Y-5.2611
X3.4427Y-5.4532
X3.4427Y-5.6453
X3.4427Y-5.8374
X3.5387Y-4.1086
X3.5387Y-4.3007
X3.5387Y-4.4928
X3.5387Y-4.6849
X3.5387Y-4.877
X3.5387Y-5.0691
X3.5387Y-5.2611
X3.5387Y-5.4532
X3.5387Y-5.6453
X3.5387Y-5.8374
X3.6348Y-4.1086
X3.6348Y-4.3007
X3.6348Y-4.4928
X3.6348Y-4.6849
X3.6348Y-4.877
X3.6348Y-5.0691
X3.6348Y-5.2611
X3.6348Y-5.4532
X3.6348Y-5.6453
X3.6348Y-5.8374
T0
M30
