G04 #@! TF.GenerationSoftware,KiCad,Pcbnew,(5.0.2)-1*
G04 #@! TF.CreationDate,2019-09-04T12:50:56-04:00*
G04 #@! TF.ProjectId,MMCX_2DD-100P_Even,4d4d4358-5f32-4444-942d-313030505f45,rev?*
G04 #@! TF.SameCoordinates,Original*
G04 #@! TF.FileFunction,Legend,Top*
G04 #@! TF.FilePolarity,Positive*
%FSLAX46Y46*%
G04 Gerber Fmt 4.6, Leading zero omitted, Abs format (unit mm)*
G04 Created by KiCad (PCBNEW (5.0.2)-1) date 9/4/2019 12:50:56 PM*
%MOMM*%
%LPD*%
G01*
G04 APERTURE LIST*
%ADD10C,0.300000*%
%ADD11C,0.120000*%
G04 APERTURE END LIST*
D10*
X148988954Y-67702896D02*
X149131811Y-67702896D01*
X149274668Y-67774325D01*
X149346097Y-67845753D01*
X149417525Y-67988610D01*
X149488954Y-68274325D01*
X149488954Y-68631467D01*
X149417525Y-68917182D01*
X149346097Y-69060039D01*
X149274668Y-69131467D01*
X149131811Y-69202896D01*
X148988954Y-69202896D01*
X148846097Y-69131467D01*
X148774668Y-69060039D01*
X148703239Y-68917182D01*
X148631811Y-68631467D01*
X148631811Y-68274325D01*
X148703239Y-67988610D01*
X148774668Y-67845753D01*
X148846097Y-67774325D01*
X148988954Y-67702896D01*
X150131811Y-69202896D02*
X150131811Y-67702896D01*
X150988954Y-69202896D01*
X150988954Y-67702896D01*
X149024668Y-62823636D02*
X149167525Y-62823636D01*
X149310382Y-62895065D01*
X149381811Y-62966493D01*
X149453239Y-63109350D01*
X149524668Y-63395065D01*
X149524668Y-63752207D01*
X149453239Y-64037922D01*
X149381811Y-64180779D01*
X149310382Y-64252207D01*
X149167525Y-64323636D01*
X149024668Y-64323636D01*
X148881811Y-64252207D01*
X148810382Y-64180779D01*
X148738954Y-64037922D01*
X148667525Y-63752207D01*
X148667525Y-63395065D01*
X148738954Y-63109350D01*
X148810382Y-62966493D01*
X148881811Y-62895065D01*
X149024668Y-62823636D01*
X150167525Y-64323636D02*
X150167525Y-62823636D01*
X150738954Y-62823636D01*
X150881811Y-62895065D01*
X150953239Y-62966493D01*
X151024668Y-63109350D01*
X151024668Y-63323636D01*
X150953239Y-63466493D01*
X150881811Y-63537922D01*
X150738954Y-63609350D01*
X150167525Y-63609350D01*
X148631811Y-58087233D02*
X148703239Y-58015805D01*
X148846097Y-57944376D01*
X149203239Y-57944376D01*
X149346097Y-58015805D01*
X149417525Y-58087233D01*
X149488954Y-58230090D01*
X149488954Y-58372947D01*
X149417525Y-58587233D01*
X148560382Y-59444376D01*
X149488954Y-59444376D01*
X150131811Y-59444376D02*
X150131811Y-57944376D01*
X150988954Y-59444376D01*
X150988954Y-57944376D01*
X148667525Y-53207973D02*
X148738954Y-53136545D01*
X148881811Y-53065116D01*
X149238954Y-53065116D01*
X149381811Y-53136545D01*
X149453239Y-53207973D01*
X149524668Y-53350830D01*
X149524668Y-53493687D01*
X149453239Y-53707973D01*
X148596097Y-54565116D01*
X149524668Y-54565116D01*
X150167525Y-54565116D02*
X150167525Y-53065116D01*
X150738954Y-53065116D01*
X150881811Y-53136545D01*
X150953239Y-53207973D01*
X151024668Y-53350830D01*
X151024668Y-53565116D01*
X150953239Y-53707973D01*
X150881811Y-53779402D01*
X150738954Y-53850830D01*
X150167525Y-53850830D01*
X149346097Y-48685856D02*
X149346097Y-49685856D01*
X148988954Y-48114427D02*
X148631811Y-49185856D01*
X149560382Y-49185856D01*
X150131811Y-49685856D02*
X150131811Y-48185856D01*
X150988954Y-49685856D01*
X150988954Y-48185856D01*
X149381811Y-43806596D02*
X149381811Y-44806596D01*
X149024668Y-43235167D02*
X148667525Y-44306596D01*
X149596097Y-44306596D01*
X150167525Y-44806596D02*
X150167525Y-43306596D01*
X150738954Y-43306596D01*
X150881811Y-43378025D01*
X150953239Y-43449453D01*
X151024668Y-43592310D01*
X151024668Y-43806596D01*
X150953239Y-43949453D01*
X150881811Y-44020882D01*
X150738954Y-44092310D01*
X150167525Y-44092310D01*
X149346097Y-38427336D02*
X149060382Y-38427336D01*
X148917525Y-38498765D01*
X148846097Y-38570193D01*
X148703239Y-38784479D01*
X148631811Y-39070193D01*
X148631811Y-39641622D01*
X148703239Y-39784479D01*
X148774668Y-39855907D01*
X148917525Y-39927336D01*
X149203239Y-39927336D01*
X149346097Y-39855907D01*
X149417525Y-39784479D01*
X149488954Y-39641622D01*
X149488954Y-39284479D01*
X149417525Y-39141622D01*
X149346097Y-39070193D01*
X149203239Y-38998765D01*
X148917525Y-38998765D01*
X148774668Y-39070193D01*
X148703239Y-39141622D01*
X148631811Y-39284479D01*
X150131811Y-39927336D02*
X150131811Y-38427336D01*
X150988954Y-39927336D01*
X150988954Y-38427336D01*
X149381811Y-33548076D02*
X149096097Y-33548076D01*
X148953239Y-33619505D01*
X148881811Y-33690933D01*
X148738954Y-33905219D01*
X148667525Y-34190933D01*
X148667525Y-34762362D01*
X148738954Y-34905219D01*
X148810382Y-34976647D01*
X148953239Y-35048076D01*
X149238954Y-35048076D01*
X149381811Y-34976647D01*
X149453239Y-34905219D01*
X149524668Y-34762362D01*
X149524668Y-34405219D01*
X149453239Y-34262362D01*
X149381811Y-34190933D01*
X149238954Y-34119505D01*
X148953239Y-34119505D01*
X148810382Y-34190933D01*
X148738954Y-34262362D01*
X148667525Y-34405219D01*
X150167525Y-35048076D02*
X150167525Y-33548076D01*
X150738954Y-33548076D01*
X150881811Y-33619505D01*
X150953239Y-33690933D01*
X151024668Y-33833790D01*
X151024668Y-34048076D01*
X150953239Y-34190933D01*
X150881811Y-34262362D01*
X150738954Y-34333790D01*
X150167525Y-34333790D01*
X148917525Y-29311673D02*
X148774668Y-29240245D01*
X148703239Y-29168816D01*
X148631811Y-29025959D01*
X148631811Y-28954530D01*
X148703239Y-28811673D01*
X148774668Y-28740245D01*
X148917525Y-28668816D01*
X149203239Y-28668816D01*
X149346097Y-28740245D01*
X149417525Y-28811673D01*
X149488954Y-28954530D01*
X149488954Y-29025959D01*
X149417525Y-29168816D01*
X149346097Y-29240245D01*
X149203239Y-29311673D01*
X148917525Y-29311673D01*
X148774668Y-29383102D01*
X148703239Y-29454530D01*
X148631811Y-29597387D01*
X148631811Y-29883102D01*
X148703239Y-30025959D01*
X148774668Y-30097387D01*
X148917525Y-30168816D01*
X149203239Y-30168816D01*
X149346097Y-30097387D01*
X149417525Y-30025959D01*
X149488954Y-29883102D01*
X149488954Y-29597387D01*
X149417525Y-29454530D01*
X149346097Y-29383102D01*
X149203239Y-29311673D01*
X150131811Y-30168816D02*
X150131811Y-28668816D01*
X150988954Y-30168816D01*
X150988954Y-28668816D01*
X148953239Y-24432413D02*
X148810382Y-24360985D01*
X148738954Y-24289556D01*
X148667525Y-24146699D01*
X148667525Y-24075270D01*
X148738954Y-23932413D01*
X148810382Y-23860985D01*
X148953239Y-23789556D01*
X149238954Y-23789556D01*
X149381811Y-23860985D01*
X149453239Y-23932413D01*
X149524668Y-24075270D01*
X149524668Y-24146699D01*
X149453239Y-24289556D01*
X149381811Y-24360985D01*
X149238954Y-24432413D01*
X148953239Y-24432413D01*
X148810382Y-24503842D01*
X148738954Y-24575270D01*
X148667525Y-24718127D01*
X148667525Y-25003842D01*
X148738954Y-25146699D01*
X148810382Y-25218127D01*
X148953239Y-25289556D01*
X149238954Y-25289556D01*
X149381811Y-25218127D01*
X149453239Y-25146699D01*
X149524668Y-25003842D01*
X149524668Y-24718127D01*
X149453239Y-24575270D01*
X149381811Y-24503842D01*
X149238954Y-24432413D01*
X150167525Y-25289556D02*
X150167525Y-23789556D01*
X150738954Y-23789556D01*
X150881811Y-23860985D01*
X150953239Y-23932413D01*
X151024668Y-24075270D01*
X151024668Y-24289556D01*
X150953239Y-24432413D01*
X150881811Y-24503842D01*
X150738954Y-24575270D01*
X150167525Y-24575270D01*
D11*
G04 #@! TO.C,J3*
X140300985Y-26930245D02*
X148000985Y-26930245D01*
X148000985Y-32050245D02*
X148000985Y-26930245D01*
X140300985Y-32050245D02*
X148000985Y-32050245D01*
X148200985Y-28940245D02*
X148200985Y-30040245D01*
G04 #@! TO.C,J6*
X148200985Y-38698765D02*
X148200985Y-39798765D01*
X140300985Y-41808765D02*
X148000985Y-41808765D01*
X148000985Y-41808765D02*
X148000985Y-36688765D01*
X140300985Y-36688765D02*
X148000985Y-36688765D01*
G04 #@! TO.C,J9*
X148200985Y-48457285D02*
X148200985Y-49557285D01*
X140300985Y-51567285D02*
X148000985Y-51567285D01*
X148000985Y-51567285D02*
X148000985Y-46447285D01*
X140300985Y-46447285D02*
X148000985Y-46447285D01*
G04 #@! TO.C,J12*
X148200985Y-58215805D02*
X148200985Y-59315805D01*
X140300985Y-61325805D02*
X148000985Y-61325805D01*
X148000985Y-61325805D02*
X148000985Y-56205805D01*
X140300985Y-56205805D02*
X148000985Y-56205805D01*
G04 #@! TO.C,J15*
X148200985Y-67974325D02*
X148200985Y-69074325D01*
X140300985Y-71084325D02*
X148000985Y-71084325D01*
X148000985Y-71084325D02*
X148000985Y-65964325D01*
X140300985Y-65964325D02*
X148000985Y-65964325D01*
G04 #@! TD*
M02*
