G04 #@! TF.GenerationSoftware,KiCad,Pcbnew,(5.0.2)-1*
G04 #@! TF.CreationDate,2019-09-04T12:36:58-04:00*
G04 #@! TF.ProjectId,MMCX_2DD-100P_Both,4d4d4358-5f32-4444-942d-313030505f42,rev?*
G04 #@! TF.SameCoordinates,Original*
G04 #@! TF.FileFunction,Legend,Top*
G04 #@! TF.FilePolarity,Positive*
%FSLAX46Y46*%
G04 Gerber Fmt 4.6, Leading zero omitted, Abs format (unit mm)*
G04 Created by KiCad (PCBNEW (5.0.2)-1) date 9/4/2019 12:36:58 PM*
%MOMM*%
%LPD*%
G01*
G04 APERTURE LIST*
%ADD10C,0.300000*%
%ADD11C,0.120000*%
G04 APERTURE END LIST*
D10*
X83171759Y-146473667D02*
X83314616Y-146473667D01*
X83457473Y-146545096D01*
X83528902Y-146616524D01*
X83600330Y-146759381D01*
X83671759Y-147045096D01*
X83671759Y-147402238D01*
X83600330Y-147687953D01*
X83528902Y-147830810D01*
X83457473Y-147902238D01*
X83314616Y-147973667D01*
X83171759Y-147973667D01*
X83028902Y-147902238D01*
X82957473Y-147830810D01*
X82886044Y-147687953D01*
X82814616Y-147402238D01*
X82814616Y-147045096D01*
X82886044Y-146759381D01*
X82957473Y-146616524D01*
X83028902Y-146545096D01*
X83171759Y-146473667D01*
X84314616Y-147973667D02*
X84314616Y-146473667D01*
X85171759Y-147973667D01*
X85171759Y-146473667D01*
X83207473Y-141594407D02*
X83350330Y-141594407D01*
X83493187Y-141665836D01*
X83564616Y-141737264D01*
X83636044Y-141880121D01*
X83707473Y-142165836D01*
X83707473Y-142522978D01*
X83636044Y-142808693D01*
X83564616Y-142951550D01*
X83493187Y-143022978D01*
X83350330Y-143094407D01*
X83207473Y-143094407D01*
X83064616Y-143022978D01*
X82993187Y-142951550D01*
X82921759Y-142808693D01*
X82850330Y-142522978D01*
X82850330Y-142165836D01*
X82921759Y-141880121D01*
X82993187Y-141737264D01*
X83064616Y-141665836D01*
X83207473Y-141594407D01*
X84350330Y-143094407D02*
X84350330Y-141594407D01*
X84921759Y-141594407D01*
X85064616Y-141665836D01*
X85136044Y-141737264D01*
X85207473Y-141880121D01*
X85207473Y-142094407D01*
X85136044Y-142237264D01*
X85064616Y-142308693D01*
X84921759Y-142380121D01*
X84350330Y-142380121D01*
X82814616Y-136858004D02*
X82886044Y-136786576D01*
X83028902Y-136715147D01*
X83386044Y-136715147D01*
X83528902Y-136786576D01*
X83600330Y-136858004D01*
X83671759Y-137000861D01*
X83671759Y-137143718D01*
X83600330Y-137358004D01*
X82743187Y-138215147D01*
X83671759Y-138215147D01*
X84314616Y-138215147D02*
X84314616Y-136715147D01*
X85171759Y-138215147D01*
X85171759Y-136715147D01*
X82850330Y-131978744D02*
X82921759Y-131907316D01*
X83064616Y-131835887D01*
X83421759Y-131835887D01*
X83564616Y-131907316D01*
X83636044Y-131978744D01*
X83707473Y-132121601D01*
X83707473Y-132264458D01*
X83636044Y-132478744D01*
X82778902Y-133335887D01*
X83707473Y-133335887D01*
X84350330Y-133335887D02*
X84350330Y-131835887D01*
X84921759Y-131835887D01*
X85064616Y-131907316D01*
X85136044Y-131978744D01*
X85207473Y-132121601D01*
X85207473Y-132335887D01*
X85136044Y-132478744D01*
X85064616Y-132550173D01*
X84921759Y-132621601D01*
X84350330Y-132621601D01*
X83528902Y-127456627D02*
X83528902Y-128456627D01*
X83171759Y-126885198D02*
X82814616Y-127956627D01*
X83743187Y-127956627D01*
X84314616Y-128456627D02*
X84314616Y-126956627D01*
X85171759Y-128456627D01*
X85171759Y-126956627D01*
X83564616Y-122577367D02*
X83564616Y-123577367D01*
X83207473Y-122005938D02*
X82850330Y-123077367D01*
X83778902Y-123077367D01*
X84350330Y-123577367D02*
X84350330Y-122077367D01*
X84921759Y-122077367D01*
X85064616Y-122148796D01*
X85136044Y-122220224D01*
X85207473Y-122363081D01*
X85207473Y-122577367D01*
X85136044Y-122720224D01*
X85064616Y-122791653D01*
X84921759Y-122863081D01*
X84350330Y-122863081D01*
X83528902Y-117198107D02*
X83243187Y-117198107D01*
X83100330Y-117269536D01*
X83028902Y-117340964D01*
X82886044Y-117555250D01*
X82814616Y-117840964D01*
X82814616Y-118412393D01*
X82886044Y-118555250D01*
X82957473Y-118626678D01*
X83100330Y-118698107D01*
X83386044Y-118698107D01*
X83528902Y-118626678D01*
X83600330Y-118555250D01*
X83671759Y-118412393D01*
X83671759Y-118055250D01*
X83600330Y-117912393D01*
X83528902Y-117840964D01*
X83386044Y-117769536D01*
X83100330Y-117769536D01*
X82957473Y-117840964D01*
X82886044Y-117912393D01*
X82814616Y-118055250D01*
X84314616Y-118698107D02*
X84314616Y-117198107D01*
X85171759Y-118698107D01*
X85171759Y-117198107D01*
X83564616Y-112318847D02*
X83278902Y-112318847D01*
X83136044Y-112390276D01*
X83064616Y-112461704D01*
X82921759Y-112675990D01*
X82850330Y-112961704D01*
X82850330Y-113533133D01*
X82921759Y-113675990D01*
X82993187Y-113747418D01*
X83136044Y-113818847D01*
X83421759Y-113818847D01*
X83564616Y-113747418D01*
X83636044Y-113675990D01*
X83707473Y-113533133D01*
X83707473Y-113175990D01*
X83636044Y-113033133D01*
X83564616Y-112961704D01*
X83421759Y-112890276D01*
X83136044Y-112890276D01*
X82993187Y-112961704D01*
X82921759Y-113033133D01*
X82850330Y-113175990D01*
X84350330Y-113818847D02*
X84350330Y-112318847D01*
X84921759Y-112318847D01*
X85064616Y-112390276D01*
X85136044Y-112461704D01*
X85207473Y-112604561D01*
X85207473Y-112818847D01*
X85136044Y-112961704D01*
X85064616Y-113033133D01*
X84921759Y-113104561D01*
X84350330Y-113104561D01*
X83100330Y-108082444D02*
X82957473Y-108011016D01*
X82886044Y-107939587D01*
X82814616Y-107796730D01*
X82814616Y-107725301D01*
X82886044Y-107582444D01*
X82957473Y-107511016D01*
X83100330Y-107439587D01*
X83386044Y-107439587D01*
X83528902Y-107511016D01*
X83600330Y-107582444D01*
X83671759Y-107725301D01*
X83671759Y-107796730D01*
X83600330Y-107939587D01*
X83528902Y-108011016D01*
X83386044Y-108082444D01*
X83100330Y-108082444D01*
X82957473Y-108153873D01*
X82886044Y-108225301D01*
X82814616Y-108368158D01*
X82814616Y-108653873D01*
X82886044Y-108796730D01*
X82957473Y-108868158D01*
X83100330Y-108939587D01*
X83386044Y-108939587D01*
X83528902Y-108868158D01*
X83600330Y-108796730D01*
X83671759Y-108653873D01*
X83671759Y-108368158D01*
X83600330Y-108225301D01*
X83528902Y-108153873D01*
X83386044Y-108082444D01*
X84314616Y-108939587D02*
X84314616Y-107439587D01*
X85171759Y-108939587D01*
X85171759Y-107439587D01*
X83136044Y-103203184D02*
X82993187Y-103131756D01*
X82921759Y-103060327D01*
X82850330Y-102917470D01*
X82850330Y-102846041D01*
X82921759Y-102703184D01*
X82993187Y-102631756D01*
X83136044Y-102560327D01*
X83421759Y-102560327D01*
X83564616Y-102631756D01*
X83636044Y-102703184D01*
X83707473Y-102846041D01*
X83707473Y-102917470D01*
X83636044Y-103060327D01*
X83564616Y-103131756D01*
X83421759Y-103203184D01*
X83136044Y-103203184D01*
X82993187Y-103274613D01*
X82921759Y-103346041D01*
X82850330Y-103488898D01*
X82850330Y-103774613D01*
X82921759Y-103917470D01*
X82993187Y-103988898D01*
X83136044Y-104060327D01*
X83421759Y-104060327D01*
X83564616Y-103988898D01*
X83636044Y-103917470D01*
X83707473Y-103774613D01*
X83707473Y-103488898D01*
X83636044Y-103346041D01*
X83564616Y-103274613D01*
X83421759Y-103203184D01*
X84350330Y-104060327D02*
X84350330Y-102560327D01*
X84921759Y-102560327D01*
X85064616Y-102631756D01*
X85136044Y-102703184D01*
X85207473Y-102846041D01*
X85207473Y-103060327D01*
X85136044Y-103203184D01*
X85064616Y-103274613D01*
X84921759Y-103346041D01*
X84350330Y-103346041D01*
X84883279Y-51475628D02*
X84597565Y-51475628D01*
X84454707Y-51547057D01*
X84383279Y-51618485D01*
X84240422Y-51832771D01*
X84168993Y-52118485D01*
X84168993Y-52689914D01*
X84240422Y-52832771D01*
X84311850Y-52904200D01*
X84454707Y-52975628D01*
X84740422Y-52975628D01*
X84883279Y-52904200D01*
X84954707Y-52832771D01*
X85026136Y-52689914D01*
X85026136Y-52332771D01*
X84954707Y-52189914D01*
X84883279Y-52118485D01*
X84740422Y-52047057D01*
X84454707Y-52047057D01*
X84311850Y-52118485D01*
X84240422Y-52189914D01*
X84168993Y-52332771D01*
X83526136Y-51475628D02*
X83526136Y-52975628D01*
X82954707Y-52975628D01*
X82811850Y-52904200D01*
X82740422Y-52832771D01*
X82668993Y-52689914D01*
X82668993Y-52475628D01*
X82740422Y-52332771D01*
X82811850Y-52261342D01*
X82954707Y-52189914D01*
X83526136Y-52189914D01*
X84918993Y-56354888D02*
X84633279Y-56354888D01*
X84490422Y-56426317D01*
X84418993Y-56497745D01*
X84276136Y-56712031D01*
X84204707Y-56997745D01*
X84204707Y-57569174D01*
X84276136Y-57712031D01*
X84347565Y-57783460D01*
X84490422Y-57854888D01*
X84776136Y-57854888D01*
X84918993Y-57783460D01*
X84990422Y-57712031D01*
X85061850Y-57569174D01*
X85061850Y-57212031D01*
X84990422Y-57069174D01*
X84918993Y-56997745D01*
X84776136Y-56926317D01*
X84490422Y-56926317D01*
X84347565Y-56997745D01*
X84276136Y-57069174D01*
X84204707Y-57212031D01*
X83561850Y-56354888D02*
X83561850Y-57854888D01*
X82704707Y-56354888D01*
X82704707Y-57854888D01*
X85097565Y-62734148D02*
X84097565Y-62734148D01*
X84740422Y-61234148D01*
X83526136Y-61234148D02*
X83526136Y-62734148D01*
X82954707Y-62734148D01*
X82811850Y-62662720D01*
X82740422Y-62591291D01*
X82668993Y-62448434D01*
X82668993Y-62234148D01*
X82740422Y-62091291D01*
X82811850Y-62019862D01*
X82954707Y-61948434D01*
X83526136Y-61948434D01*
X85133279Y-67613408D02*
X84133279Y-67613408D01*
X84776136Y-66113408D01*
X83561850Y-66113408D02*
X83561850Y-67613408D01*
X82704707Y-66113408D01*
X82704707Y-67613408D01*
X84240422Y-72492668D02*
X84954707Y-72492668D01*
X85026136Y-71778382D01*
X84954707Y-71849811D01*
X84811850Y-71921240D01*
X84454707Y-71921240D01*
X84311850Y-71849811D01*
X84240422Y-71778382D01*
X84168993Y-71635525D01*
X84168993Y-71278382D01*
X84240422Y-71135525D01*
X84311850Y-71064097D01*
X84454707Y-70992668D01*
X84811850Y-70992668D01*
X84954707Y-71064097D01*
X85026136Y-71135525D01*
X83526136Y-70992668D02*
X83526136Y-72492668D01*
X82954707Y-72492668D01*
X82811850Y-72421240D01*
X82740422Y-72349811D01*
X82668993Y-72206954D01*
X82668993Y-71992668D01*
X82740422Y-71849811D01*
X82811850Y-71778382D01*
X82954707Y-71706954D01*
X83526136Y-71706954D01*
X84276136Y-77371928D02*
X84990422Y-77371928D01*
X85061850Y-76657642D01*
X84990422Y-76729071D01*
X84847565Y-76800500D01*
X84490422Y-76800500D01*
X84347565Y-76729071D01*
X84276136Y-76657642D01*
X84204707Y-76514785D01*
X84204707Y-76157642D01*
X84276136Y-76014785D01*
X84347565Y-75943357D01*
X84490422Y-75871928D01*
X84847565Y-75871928D01*
X84990422Y-75943357D01*
X85061850Y-76014785D01*
X83561850Y-75871928D02*
X83561850Y-77371928D01*
X82704707Y-75871928D01*
X82704707Y-77371928D01*
X85097565Y-82251188D02*
X84168993Y-82251188D01*
X84668993Y-81679760D01*
X84454707Y-81679760D01*
X84311850Y-81608331D01*
X84240422Y-81536902D01*
X84168993Y-81394045D01*
X84168993Y-81036902D01*
X84240422Y-80894045D01*
X84311850Y-80822617D01*
X84454707Y-80751188D01*
X84883279Y-80751188D01*
X85026136Y-80822617D01*
X85097565Y-80894045D01*
X83526136Y-80751188D02*
X83526136Y-82251188D01*
X82954707Y-82251188D01*
X82811850Y-82179760D01*
X82740422Y-82108331D01*
X82668993Y-81965474D01*
X82668993Y-81751188D01*
X82740422Y-81608331D01*
X82811850Y-81536902D01*
X82954707Y-81465474D01*
X83526136Y-81465474D01*
X85133279Y-87130448D02*
X84204707Y-87130448D01*
X84704707Y-86559020D01*
X84490422Y-86559020D01*
X84347565Y-86487591D01*
X84276136Y-86416162D01*
X84204707Y-86273305D01*
X84204707Y-85916162D01*
X84276136Y-85773305D01*
X84347565Y-85701877D01*
X84490422Y-85630448D01*
X84918993Y-85630448D01*
X85061850Y-85701877D01*
X85133279Y-85773305D01*
X83561850Y-85630448D02*
X83561850Y-87130448D01*
X82704707Y-85630448D01*
X82704707Y-87130448D01*
X84168993Y-90509708D02*
X85026136Y-90509708D01*
X84597565Y-90509708D02*
X84597565Y-92009708D01*
X84740422Y-91795422D01*
X84883279Y-91652565D01*
X85026136Y-91581137D01*
X83526136Y-90509708D02*
X83526136Y-92009708D01*
X82954707Y-92009708D01*
X82811850Y-91938280D01*
X82740422Y-91866851D01*
X82668993Y-91723994D01*
X82668993Y-91509708D01*
X82740422Y-91366851D01*
X82811850Y-91295422D01*
X82954707Y-91223994D01*
X83526136Y-91223994D01*
X84204707Y-95388968D02*
X85061850Y-95388968D01*
X84633279Y-95388968D02*
X84633279Y-96888968D01*
X84776136Y-96674682D01*
X84918993Y-96531825D01*
X85061850Y-96460397D01*
X83561850Y-95388968D02*
X83561850Y-96888968D01*
X82704707Y-95388968D01*
X82704707Y-96888968D01*
D11*
G04 #@! TO.C,J3*
X74483790Y-105701016D02*
X82183790Y-105701016D01*
X82183790Y-110821016D02*
X82183790Y-105701016D01*
X74483790Y-110821016D02*
X82183790Y-110821016D01*
X82383790Y-107711016D02*
X82383790Y-108811016D01*
G04 #@! TO.C,J6*
X82383790Y-117469536D02*
X82383790Y-118569536D01*
X74483790Y-120579536D02*
X82183790Y-120579536D01*
X82183790Y-120579536D02*
X82183790Y-115459536D01*
X74483790Y-115459536D02*
X82183790Y-115459536D01*
G04 #@! TO.C,J9*
X82383790Y-127228056D02*
X82383790Y-128328056D01*
X74483790Y-130338056D02*
X82183790Y-130338056D01*
X82183790Y-130338056D02*
X82183790Y-125218056D01*
X74483790Y-125218056D02*
X82183790Y-125218056D01*
G04 #@! TO.C,J12*
X82383790Y-136986576D02*
X82383790Y-138086576D01*
X74483790Y-140096576D02*
X82183790Y-140096576D01*
X82183790Y-140096576D02*
X82183790Y-134976576D01*
X74483790Y-134976576D02*
X82183790Y-134976576D01*
G04 #@! TO.C,J15*
X82383790Y-146745096D02*
X82383790Y-147845096D01*
X74483790Y-149855096D02*
X82183790Y-149855096D01*
X82183790Y-149855096D02*
X82183790Y-144735096D01*
X74483790Y-144735096D02*
X82183790Y-144735096D01*
G04 #@! TO.C,J3*
X93392677Y-98627540D02*
X85692677Y-98627540D01*
X85692677Y-93507540D02*
X85692677Y-98627540D01*
X93392677Y-93507540D02*
X85692677Y-93507540D01*
X85492677Y-96617540D02*
X85492677Y-95517540D01*
G04 #@! TO.C,J6*
X85492677Y-86859020D02*
X85492677Y-85759020D01*
X93392677Y-83749020D02*
X85692677Y-83749020D01*
X85692677Y-83749020D02*
X85692677Y-88869020D01*
X93392677Y-88869020D02*
X85692677Y-88869020D01*
G04 #@! TO.C,J9*
X85492677Y-77100500D02*
X85492677Y-76000500D01*
X93392677Y-73990500D02*
X85692677Y-73990500D01*
X85692677Y-73990500D02*
X85692677Y-79110500D01*
X93392677Y-79110500D02*
X85692677Y-79110500D01*
G04 #@! TO.C,J12*
X85492677Y-67341980D02*
X85492677Y-66241980D01*
X93392677Y-64231980D02*
X85692677Y-64231980D01*
X85692677Y-64231980D02*
X85692677Y-69351980D01*
X93392677Y-69351980D02*
X85692677Y-69351980D01*
G04 #@! TO.C,J15*
X85492677Y-57583460D02*
X85492677Y-56483460D01*
X93392677Y-54473460D02*
X85692677Y-54473460D01*
X85692677Y-54473460D02*
X85692677Y-59593460D01*
X93392677Y-59593460D02*
X85692677Y-59593460D01*
G04 #@! TD*
M02*
