G04 #@! TF.GenerationSoftware,KiCad,Pcbnew,(5.0.2)-1*
G04 #@! TF.CreationDate,2019-09-03T12:36:00-04:00*
G04 #@! TF.ProjectId,MMCX_2DD-100P,4d4d4358-5f32-4444-942d-313030502e6b,rev?*
G04 #@! TF.SameCoordinates,Original*
G04 #@! TF.FileFunction,Profile,NP*
%FSLAX46Y46*%
G04 Gerber Fmt 4.6, Leading zero omitted, Abs format (unit mm)*
G04 Created by KiCad (PCBNEW (5.0.2)-1) date 9/3/2019 12:36:00 PM*
%MOMM*%
%LPD*%
G01*
G04 APERTURE LIST*
%ADD10C,0.150000*%
G04 APERTURE END LIST*
D10*
X140241000Y-21811000D02*
X140241000Y-22861000D01*
X140241000Y-70274367D02*
X140241000Y-71324500D01*
X140241000Y-65395104D02*
X140241000Y-66774367D01*
X140241000Y-60515841D02*
X140241000Y-61895104D01*
X140241000Y-55636578D02*
X140241000Y-57015841D01*
X140241000Y-50757315D02*
X140241000Y-52136578D01*
X140241000Y-45878052D02*
X140241000Y-47257315D01*
X140241000Y-40998789D02*
X140241000Y-42378052D01*
X140241000Y-36119526D02*
X140241000Y-37498789D01*
X140241000Y-31240263D02*
X140241000Y-32619526D01*
X140241000Y-26361000D02*
X140241000Y-27740263D01*
X144741000Y-66774367D02*
X144741000Y-70274367D01*
X144741000Y-61895104D02*
X144741000Y-65395104D01*
X144741000Y-57015841D02*
X144741000Y-60515841D01*
X144741000Y-52136578D02*
X144741000Y-55636578D01*
X144741000Y-47257315D02*
X144741000Y-50757315D01*
X144741000Y-42378052D02*
X144741000Y-45878052D01*
X144741000Y-37498789D02*
X144741000Y-40998789D01*
X144741000Y-32619526D02*
X144741000Y-36119526D01*
X144741000Y-27740263D02*
X144741000Y-31240263D01*
X140241000Y-70274367D02*
X144741000Y-70274367D01*
X140241000Y-65395104D02*
X144741000Y-65395104D01*
X140241000Y-60515841D02*
X144741000Y-60515841D01*
X140241000Y-55636578D02*
X144741000Y-55636578D01*
X140241000Y-50757315D02*
X144741000Y-50757315D01*
X140241000Y-45878052D02*
X144741000Y-45878052D01*
X140241000Y-40998789D02*
X144741000Y-40998789D01*
X140241000Y-36119526D02*
X144741000Y-36119526D01*
X140241000Y-31240263D02*
X144741000Y-31240263D01*
X140241000Y-66774367D02*
X144741000Y-66774367D01*
X140241000Y-61895104D02*
X144741000Y-61895104D01*
X140241000Y-57015841D02*
X144741000Y-57015841D01*
X140241000Y-52136578D02*
X144741000Y-52136578D01*
X140241000Y-47257315D02*
X144741000Y-47257315D01*
X140241000Y-42378052D02*
X144741000Y-42378052D01*
X140241000Y-37498789D02*
X144741000Y-37498789D01*
X140241000Y-32619526D02*
X144741000Y-32619526D01*
X140241000Y-27740263D02*
X144741000Y-27740263D01*
X144741000Y-22861000D02*
X144741000Y-26361000D01*
X140241000Y-26361000D02*
X144741000Y-26361000D01*
X140241000Y-22861000D02*
X144741000Y-22861000D01*
X159270700Y-21811000D02*
X159270700Y-71324500D01*
X140241000Y-21811000D02*
X159270700Y-21811000D01*
X159270700Y-71324500D02*
X140241000Y-71324500D01*
M02*
